<svg width="283" height="259" viewBox="0 0 283 259" fill="none" xmlns="http://www.w3.org/2000/svg">
<g opacity="0.5">
<path d="M109.353 163.905C107.617 163.905 106.13 163.409 105.138 162.541C103.154 160.929 102.906 157.954 104.27 154.482L119.644 116.667C121.751 111.46 127.331 106.129 133.158 103.773C136.505 102.409 139.481 102.161 141.713 103.029L168.617 114.436C170.477 115.179 171.469 116.667 171.717 118.775C172.089 123.61 167.501 130.305 160.93 134.397L118.652 160.929C115.304 162.789 111.957 163.905 109.353 163.905ZM138.613 103.401C137.125 103.401 135.266 103.773 133.406 104.641C127.827 106.997 122.495 112.08 120.512 117.039L105.138 154.854C103.898 157.954 104.146 160.433 105.758 161.797C108.237 163.781 112.949 163.161 118.032 159.937L160.31 133.405C167.377 128.942 170.849 122.495 170.601 118.651C170.477 116.915 169.609 115.799 168.121 115.18L141.217 103.773C140.349 103.525 139.481 103.401 138.613 103.401Z" fill="url(#paint0_linear_70_19918)"/>
<path d="M108.361 168.492C106.749 168.492 105.386 168.12 104.27 167.252C102.038 165.641 101.542 162.665 102.782 158.946L116.048 117.783C119.148 108.236 131.794 99.3097 138.985 101.541L169.981 110.964C172.088 111.584 173.452 113.072 173.824 115.304C174.692 120.263 170.229 127.702 163.409 132.537L119.148 164.153C115.304 167.128 111.461 168.492 108.361 168.492ZM136.505 102.285C129.686 102.285 119.52 110.22 116.916 118.279L103.65 159.441C102.534 162.665 103.03 165.269 104.89 166.632C107.741 168.74 113.196 167.5 118.528 163.657L162.79 132.041C170.105 126.834 173.452 119.767 172.708 115.799C172.46 113.94 171.344 112.824 169.609 112.204L138.613 102.781C137.993 102.409 137.249 102.285 136.505 102.285Z" fill="url(#paint1_linear_70_19918)"/>
<path d="M107.741 173.453C106.253 173.453 104.889 173.081 103.773 172.461C101.418 170.973 100.55 167.998 101.542 164.03L112.328 119.644C114.808 109.354 127.826 98.8153 136.009 100.551L171.22 107.618C173.7 108.114 175.312 109.602 175.808 111.957C177.047 117.165 172.956 125.224 166.013 130.803L120.139 167.998C115.8 171.593 111.336 173.453 107.741 173.453ZM134.273 101.419C126.586 101.419 115.428 110.966 113.32 120.016L102.534 164.402C101.666 167.874 102.41 170.477 104.393 171.717C107.121 173.453 112.948 172.833 119.519 167.502L165.393 130.307C172.956 124.232 175.932 116.545 174.94 112.453C174.444 110.47 173.08 109.23 171.096 108.858L135.885 101.791C135.265 101.419 134.769 101.419 134.273 101.419Z" fill="url(#paint2_linear_70_19918)"/>
<path d="M107.493 178.66C106.13 178.66 104.89 178.412 103.774 177.792C101.17 176.428 100.054 173.328 100.674 169.361L108.237 121.875C109.973 110.965 123.363 98.6905 132.538 99.6824L172.088 103.898C174.94 104.146 176.8 105.634 177.668 108.113C179.403 113.568 175.56 122.123 168.617 128.57L121.379 171.84C116.792 176.304 111.585 178.66 107.493 178.66ZM131.546 100.55C122.991 100.55 110.841 112.081 109.229 121.999L101.666 169.485C101.046 173.08 102.038 175.684 104.27 176.924C107.493 178.66 113.817 177.544 120.884 171.221L168.121 127.95C175.684 121.007 178.412 112.701 176.924 108.485C176.18 106.377 174.568 105.138 172.212 104.89L132.662 100.674C132.166 100.674 131.918 100.55 131.546 100.55Z" fill="url(#paint3_linear_70_19918)"/>
<path d="M107.741 184.239C106.502 184.239 105.262 183.991 104.27 183.495C101.418 182.255 99.9304 179.155 100.302 175.064L104.146 124.603C105.014 112.948 118.652 98.8142 128.818 99.0622L173.08 99.8061C176.304 99.8061 178.536 101.294 179.651 104.022C181.883 109.601 178.536 118.899 171.469 126.09L123.487 175.808C118.28 181.139 112.453 184.239 107.741 184.239ZM128.694 100.054C119.148 100.054 106.006 113.816 105.138 124.727L101.294 175.188C101.046 178.907 102.286 181.511 104.766 182.627C109.229 184.61 116.668 181.511 122.867 175.188L170.849 125.471C178.536 117.536 180.643 108.857 178.784 104.393C177.792 102.162 175.808 100.922 173.08 100.798L128.818 100.054C128.694 100.054 128.694 100.054 128.694 100.054Z" fill="url(#paint4_linear_70_19918)"/>
<path d="M108.609 189.942C107.493 189.942 106.378 189.818 105.386 189.446C102.162 188.33 100.426 185.354 100.426 181.015L99.6825 127.702C99.5585 115.428 113.197 99.4343 124.479 98.6904L173.576 95.4668V95.9627V95.4668C177.172 95.2188 180.023 96.7066 181.387 99.4342C184.239 105.137 181.387 114.932 174.32 123.115L125.967 179.651C120.512 186.222 113.817 189.942 108.609 189.942ZM174.444 96.4586C174.196 96.4586 173.948 96.4586 173.7 96.4586L124.603 99.6822C113.94 100.426 100.55 116.048 100.674 127.702L101.418 181.015C101.418 184.858 103.03 187.462 105.758 188.454C110.841 190.314 118.9 186.47 125.223 179.031L173.576 122.495C181.139 113.692 182.751 104.394 180.519 99.9302C179.404 97.6985 177.296 96.4586 174.444 96.4586Z" fill="url(#paint5_linear_70_19918)"/>
<path d="M109.849 195.893C108.981 195.893 107.989 195.769 107.245 195.521C103.773 194.529 101.542 191.553 101.17 187.214L95.2186 131.422C93.8548 118.527 107.493 100.55 119.891 98.8141L173.824 90.8792C177.915 90.2592 181.139 91.6231 182.999 94.7227C186.47 100.55 184.114 110.84 177.295 119.891L129.19 183.494C123.363 191.181 115.924 195.893 109.849 195.893ZM173.824 91.3751L173.948 91.8711L120.015 99.8059C108.237 101.542 94.9707 119.271 96.2105 131.422L102.162 187.214C102.534 191.181 104.517 193.785 107.617 194.653C113.568 196.265 122.123 191.429 128.57 182.999L176.675 119.271C183.246 110.592 185.602 100.674 182.379 95.2186C180.767 92.4909 177.915 91.3752 174.196 91.8711L173.824 91.3751Z" fill="url(#paint6_linear_70_19918)"/>
<path d="M111.957 202.092C111.213 202.092 110.593 201.968 109.849 201.844C106.006 201.1 103.402 198.249 102.534 193.785L90.6318 135.761C87.9042 122.495 101.17 102.286 114.684 99.3104L173.7 86.0442C178.288 85.0523 182.131 86.1681 184.363 89.5157C188.33 95.3429 186.719 106.253 180.271 116.048L133.282 187.214C127.083 196.265 118.776 202.092 111.957 202.092ZM173.7 86.5401L173.824 87.036L114.808 100.302C101.914 103.154 88.896 122.991 91.4996 135.637L103.402 193.661C104.27 197.753 106.502 200.356 109.973 200.976C116.668 202.216 125.843 196.513 132.166 186.842L179.156 115.676C185.355 106.253 187.09 95.7148 183.371 90.2596C181.387 87.284 178.04 86.2921 173.7 87.16V86.5401Z" fill="url(#paint7_linear_70_19918)"/>
<path d="M114.684 208.292C114.188 208.292 113.817 208.292 113.321 208.168C109.105 207.672 106.006 204.944 104.518 200.481L85.7964 140.845C83.8126 134.77 85.1764 126.587 89.5159 118.528C94.2272 109.477 101.666 102.534 108.857 100.426L172.832 81.0851L172.956 81.5809L172.832 81.0851C178.04 79.4733 182.503 80.5891 185.231 84.0606C189.942 90.0118 189.074 101.17 182.875 111.833L137.745 190.81C131.794 201.348 122.495 208.292 114.684 208.292ZM177.296 81.333C175.932 81.333 174.568 81.581 173.08 81.953L109.105 101.294C102.162 103.402 94.9711 110.097 90.2597 118.9C86.1683 126.711 84.8045 134.77 86.6643 140.473L105.51 200.109C106.873 204.324 109.601 206.804 113.445 207.176C121.131 208.044 130.678 201.1 136.877 190.314L182.007 111.337C187.834 101.17 188.826 90.1358 184.363 84.5566C182.751 82.4489 180.271 81.333 177.296 81.333Z" fill="url(#paint8_linear_70_19918)"/>
<path d="M118.28 214.614C118.156 214.614 118.032 214.614 118.032 214.614C113.321 214.49 109.601 211.886 107.617 207.299L80.9611 146.423C78.3575 140.472 78.9774 132.165 82.5729 123.487C86.9123 113.196 94.5992 104.889 102.658 101.914L171.593 75.7531C177.42 73.5215 182.503 74.3893 185.851 78.1088C191.306 84.06 191.182 95.7144 185.603 107.121L143.325 194.157C137.373 206.183 127.207 214.614 118.28 214.614ZM171.717 76.249L171.841 76.745L102.906 102.905C95.0952 105.881 87.6562 113.94 83.4408 123.982C79.9692 132.289 79.3493 140.348 81.829 146.051L108.485 206.927C110.345 211.266 113.693 213.498 118.032 213.622C126.587 213.746 136.629 205.563 142.333 193.785L184.611 106.749C189.942 95.7144 190.19 84.432 184.983 78.8527C181.883 75.3812 177.172 74.6373 171.717 76.745V76.249Z" fill="url(#paint9_linear_70_19918)"/>
<path d="M122.867 220.814C118.156 220.814 114.188 218.459 111.585 214.119L76.2496 152.748C72.902 146.92 72.6541 138.366 75.5057 129.315C79.2252 117.784 87.0361 108.114 95.8389 104.022L169.609 70.299L169.857 70.795L169.609 70.299C176.056 67.3234 181.883 67.9433 186.099 71.9108C192.298 77.8619 193.165 89.6403 188.206 101.915L149.771 197.01C144.44 210.276 133.778 220.07 123.983 220.69C123.487 220.814 123.239 220.814 122.867 220.814ZM177.42 69.5551C175.188 69.5551 172.708 70.175 170.105 71.2908L96.3348 105.014C87.78 108.982 80.0931 118.404 76.4976 129.687C73.6459 138.49 73.8939 146.672 77.1175 152.252L112.453 213.623C114.932 217.963 118.9 220.07 123.735 219.822C133.282 219.202 143.448 209.656 148.78 196.762L187.214 101.667C191.926 89.8883 191.182 78.3579 185.355 72.7787C183.247 70.6709 180.519 69.5551 177.42 69.5551Z" fill="url(#paint10_linear_70_19918)"/>
<path d="M128.323 227.013C123.611 227.013 119.52 224.906 116.668 220.938L71.5384 159.815C67.3229 154.111 66.2071 145.432 68.3148 136.01C71.1664 123.487 79.1013 112.081 88.524 107.122L167.005 64.9676C174.072 61.2481 180.891 61.372 185.851 65.4635C192.794 71.2906 194.653 83.441 190.562 96.3352L157.211 199.613C152.623 213.871 141.961 225.03 131.174 226.765C130.182 227.013 129.314 227.013 128.323 227.013ZM167.253 65.4635L167.501 65.8355L89.0199 107.99C79.8452 112.949 72.0343 123.983 69.3067 136.258C67.199 145.432 68.3148 153.863 72.4062 159.319L117.536 220.442C120.76 224.906 125.471 226.765 130.926 225.897C141.341 224.162 151.631 213.251 156.219 199.365L189.57 96.0873C193.662 83.565 191.926 71.9106 185.231 66.3313C180.519 62.4879 174.32 62.24 167.501 65.8355L167.253 65.4635Z" fill="url(#paint11_linear_70_19918)"/>
<path d="M135.017 232.964C130.43 232.964 126.338 231.104 123.115 227.632L67.3224 167.625C62.2391 162.169 60.1314 153.367 61.3712 143.324C63.231 129.81 70.9179 117.04 80.9605 110.716L163.657 59.3876L163.905 59.7595L163.657 59.3876C171.344 54.6763 179.155 54.4282 184.982 58.6437C192.793 64.3469 195.769 76.6212 192.545 90.1354L165.641 201.472C162.045 216.598 151.383 229.244 139.976 232.22C138.241 232.84 136.505 232.964 135.017 232.964ZM164.029 60.3795L81.3325 111.708C71.5379 117.784 63.9749 130.306 62.2391 143.572C60.9993 153.243 62.983 161.797 67.9423 167.129L123.735 227.137C127.826 231.6 133.529 233.088 139.604 231.476C150.763 228.5 161.053 216.226 164.649 201.472L191.553 90.1354C194.653 76.9932 191.925 65.0908 184.362 59.6356C178.783 55.5441 171.344 55.7921 164.029 60.3795Z" fill="url(#paint12_linear_70_19918)"/>
<path d="M142.704 238.667C138.241 238.667 134.15 237.18 130.678 234.204L63.1074 176.428C57.0322 171.221 53.6847 162.17 54.1806 151.631C54.8005 137.249 62.1156 123.115 72.6541 115.552L159.318 54.0567L159.566 54.4287L159.318 54.0567C167.625 48.2295 176.428 47.3616 183.495 51.701C192.422 57.1563 196.513 69.4306 194.157 83.6886L175.064 202.836C172.46 218.83 162.542 232.716 150.267 237.179C147.664 238.171 145.184 238.667 142.704 238.667ZM173.7 49.9652C169.237 49.9652 164.401 51.577 159.814 54.9246L73.15 116.42C62.7354 123.735 55.6684 137.621 55.0485 151.755C54.5526 161.922 57.6521 170.725 63.6033 175.808L131.174 233.584C136.381 238.047 142.952 239.039 149.895 236.56C161.922 232.096 171.592 218.582 174.072 202.96L193.042 83.8126C195.273 70.0505 191.306 58.1482 182.751 52.8169C180.023 50.8332 176.924 49.9652 173.7 49.9652Z" fill="url(#paint13_linear_70_19918)"/>
<path d="M151.631 243.875C147.415 243.875 143.324 242.635 139.729 240.155L59.2636 185.851C51.9486 180.891 47.4853 171.717 46.9893 160.558C46.3694 145.432 53.0645 129.934 63.975 121.132L153.863 48.7255C162.665 41.5345 172.584 40.0467 181.015 44.3861C190.934 49.5934 196.389 61.8678 195.273 76.4977L185.85 203.208C184.61 219.698 175.312 234.948 162.541 241.147C158.822 243.007 155.102 243.875 151.631 243.875ZM154.235 49.2215L154.483 49.5934L64.5949 121.999C53.9324 130.678 47.3613 145.804 47.9812 160.558C48.4771 171.345 52.6925 180.271 59.7596 185.107L140.225 239.411C146.672 243.751 154.359 244.123 162.045 240.403C174.444 234.452 183.619 219.45 184.858 203.332L194.281 76.6217C195.397 62.3637 190.066 50.4614 180.519 45.3781C172.46 41.1626 163.037 42.6504 154.483 49.5934L154.235 49.2215Z" fill="url(#paint14_linear_70_19918)"/>
<path d="M161.674 248.586C157.706 248.586 153.863 247.594 150.267 245.734L55.9165 196.141C47.2377 191.554 41.4104 182.131 39.9226 170.353C37.9389 154.731 43.7661 137.993 54.9245 127.95L147.416 43.7659C156.839 35.2111 167.873 32.8555 177.668 37.0709C188.578 41.7823 195.521 54.0565 195.769 69.1824L197.505 202.96C197.753 220.07 189.446 236.187 176.428 244.246C171.716 247.098 166.633 248.586 161.674 248.586ZM147.788 44.1379L148.16 44.5099L55.6685 128.694C44.758 138.613 39.0547 154.979 40.9145 170.229C42.4023 181.759 47.9815 190.934 56.4124 195.273L150.763 244.866C158.698 249.082 167.625 248.462 176.056 243.255C188.826 235.444 196.885 219.574 196.637 202.836L194.901 69.0585C194.653 54.4285 187.958 42.5262 177.42 37.9388C167.873 33.8474 157.334 36.203 148.16 44.5099L147.788 44.1379Z" fill="url(#paint15_linear_70_19918)"/>
<path d="M173.08 252.553C169.485 252.553 166.013 251.933 162.542 250.57L53.3129 207.175C43.0223 203.084 35.5834 193.537 32.9797 180.891C29.5082 164.649 34.3435 147.292 45.6259 135.761L139.853 39.0546C149.524 29.1359 162.046 25.5404 173.328 29.5079C185.727 33.7233 194.034 45.6257 195.769 61.2475L210.771 201.348C212.631 218.582 205.44 235.94 192.67 245.61C186.595 250.198 179.776 252.553 173.08 252.553ZM140.225 39.3025L140.597 39.6745L46.3699 136.381C35.3354 147.788 30.5 164.649 33.9716 180.643C36.5752 192.917 43.7662 202.216 53.8088 206.184L163.038 249.578C172.584 253.297 183.123 251.561 192.174 244.742C204.696 235.196 211.639 218.21 209.903 201.348L194.901 61.2475C193.29 46.1216 185.107 34.4672 173.204 30.3758C162.294 26.5323 150.144 30.0038 140.721 39.6745L140.225 39.3025Z" fill="url(#paint16_linear_70_19918)"/>
<path d="M185.726 255.777C182.627 255.777 179.651 255.405 176.676 254.537L51.5768 219.078C39.5505 215.606 30.2518 205.936 26.1603 192.421C21.201 175.932 25.0445 157.706 36.079 144.936L131.05 34.8392C140.968 23.3088 154.731 18.5974 167.749 21.9449C181.511 25.5404 191.678 37.0708 194.901 52.9407L225.029 198.497C228.624 215.854 223.045 233.832 210.523 245.486C203.332 252.181 194.529 255.777 185.726 255.777ZM131.422 35.0871L131.794 35.4591L36.8228 145.556C25.9123 158.202 22.1928 176.056 27.0281 192.173C30.9956 205.316 40.0464 214.862 51.7008 218.21L176.8 253.669C188.33 256.893 200.356 253.669 209.903 244.742C222.177 233.336 227.633 215.73 224.037 198.621L193.909 53.0646C190.686 37.5667 180.767 26.2843 167.501 22.8128C154.731 19.4653 141.34 24.1766 131.67 35.3351L131.422 35.0871Z" fill="url(#paint17_linear_70_19918)"/>
<path d="M199.489 257.885C197.133 257.885 194.777 257.637 192.421 257.265L50.585 231.601C36.4509 228.997 25.0445 219.202 19.4653 204.82C13.0182 188.331 15.7458 169.361 26.4083 155.351L120.883 31.2442L121.255 31.4922L120.883 31.2442C130.802 18.102 145.804 11.9028 160.806 14.5065C176.056 17.1101 188.206 28.3925 193.289 44.3863L240.651 194.282C246.106 211.391 242.139 230.237 230.484 243.503C222.053 252.802 211.019 257.885 199.489 257.885ZM153.987 14.7545C141.589 14.7545 129.81 20.8296 121.503 31.7401L27.0282 155.847C16.6137 169.609 14.01 188.207 20.2092 204.448C25.6644 218.582 36.8229 228.129 50.585 230.609L192.421 256.273C206.184 258.753 219.698 253.794 229.492 242.511C240.899 229.493 244.742 211.019 239.535 194.282L192.174 44.3863C187.214 28.6405 175.312 17.73 160.434 15.1264C158.326 14.8784 156.218 14.7545 153.987 14.7545Z" fill="url(#paint18_linear_70_19918)"/>
<path d="M214.367 259C213.003 259 211.763 258.999 210.399 258.875L50.8332 244.865C34.5914 243.502 20.4574 233.459 13.1424 218.209C5.2075 201.595 6.44728 182.502 16.7379 167.128L109.229 28.2672L109.601 28.5152L109.229 28.2672C119.024 13.5132 135.018 5.57837 152.003 7.06616C168.989 8.55396 183.371 19.0925 190.438 35.3343L257.389 188.081C264.828 204.943 262.844 224.036 252.057 239.038C243.007 251.684 229.121 259 214.367 259ZM147.912 7.81003C132.786 7.81003 118.776 15.497 109.973 28.7632L17.4818 167.624C7.43919 182.75 6.07532 201.471 14.0102 217.713C21.2012 232.715 34.9634 242.51 50.9572 243.874L210.523 257.884C226.393 259.247 241.767 252.056 251.438 238.542C261.976 223.788 263.96 205.191 256.645 188.577L189.694 35.8302C182.751 19.9604 168.617 9.5458 152.003 8.05801C150.639 7.81004 149.276 7.81003 147.912 7.81003Z" fill="url(#paint19_linear_70_19918)"/>
<path d="M230.236 258.752H52.3208C33.4754 258.752 16.4897 248.958 7.06703 232.592C-2.35568 216.226 -2.35568 196.637 7.06703 180.271L96.0868 26.1604C105.509 9.7947 122.495 0 141.341 0C160.186 0 177.172 9.7947 186.594 26.1604L275.49 180.271C284.913 196.637 284.913 216.226 275.49 232.592C266.067 248.958 249.082 258.752 230.236 258.752ZM96.4587 26.4084L96.8307 26.6563L7.81089 180.767C-1.48783 196.885 -1.48783 215.978 7.81089 232.096C17.1096 248.214 33.7234 257.761 52.1968 257.761H230.112C248.71 257.761 265.324 248.214 274.498 232.096C283.797 215.978 283.797 196.885 274.498 180.767L185.479 26.6563C176.18 10.5386 159.566 0.991848 141.093 0.991848C122.495 0.991848 105.881 10.5386 96.7067 26.6563L96.4587 26.4084Z" fill="url(#paint20_linear_70_19918)"/>
</g>
<defs>
<linearGradient id="paint0_linear_70_19918" x1="103.35" y1="133.165" x2="171.547" y2="133.165" gradientUnits="userSpaceOnUse">
<stop stop-color="#83A4D4"/>
<stop offset="0.9543" stop-color="#B4F7FD"/>
<stop offset="0.9994" stop-color="#B6FBFF"/>
</linearGradient>
<linearGradient id="paint1_linear_70_19918" x1="102.118" y1="134.941" x2="173.78" y2="134.941" gradientUnits="userSpaceOnUse">
<stop stop-color="#83A4D4"/>
<stop offset="0.9543" stop-color="#B4F7FD"/>
<stop offset="0.9994" stop-color="#B6FBFF"/>
</linearGradient>
<linearGradient id="paint2_linear_70_19918" x1="101.171" y1="136.928" x2="176.019" y2="136.928" gradientUnits="userSpaceOnUse">
<stop stop-color="#83A4D4"/>
<stop offset="0.9543" stop-color="#B4F7FD"/>
<stop offset="0.9994" stop-color="#B6FBFF"/>
</linearGradient>
<linearGradient id="paint3_linear_70_19918" x1="100.538" y1="139.159" x2="178.229" y2="139.159" gradientUnits="userSpaceOnUse">
<stop stop-color="#83A4D4"/>
<stop offset="0.9543" stop-color="#B4F7FD"/>
<stop offset="0.9994" stop-color="#B6FBFF"/>
</linearGradient>
<linearGradient id="paint4_linear_70_19918" x1="100.267" y1="141.629" x2="180.391" y2="141.629" gradientUnits="userSpaceOnUse">
<stop stop-color="#83A4D4"/>
<stop offset="0.9543" stop-color="#B4F7FD"/>
<stop offset="0.9994" stop-color="#B6FBFF"/>
</linearGradient>
<linearGradient id="paint5_linear_70_19918" x1="99.7208" y1="142.717" x2="182.517" y2="142.717" gradientUnits="userSpaceOnUse">
<stop stop-color="#83A4D4"/>
<stop offset="0.9543" stop-color="#B4F7FD"/>
<stop offset="0.9994" stop-color="#B6FBFF"/>
</linearGradient>
<linearGradient id="paint6_linear_70_19918" x1="95.0818" y1="143.34" x2="184.523" y2="143.34" gradientUnits="userSpaceOnUse">
<stop stop-color="#83A4D4"/>
<stop offset="0.9543" stop-color="#B4F7FD"/>
<stop offset="0.9994" stop-color="#B6FBFF"/>
</linearGradient>
<linearGradient id="paint7_linear_70_19918" x1="90.1427" y1="143.883" x2="186.415" y2="143.883" gradientUnits="userSpaceOnUse">
<stop stop-color="#83A4D4"/>
<stop offset="0.9543" stop-color="#B4F7FD"/>
<stop offset="0.9994" stop-color="#B6FBFF"/>
</linearGradient>
<linearGradient id="paint8_linear_70_19918" x1="84.902" y1="144.311" x2="188.235" y2="144.311" gradientUnits="userSpaceOnUse">
<stop stop-color="#83A4D4"/>
<stop offset="0.9543" stop-color="#B4F7FD"/>
<stop offset="0.9994" stop-color="#B6FBFF"/>
</linearGradient>
<linearGradient id="paint9_linear_70_19918" x1="79.3634" y1="144.599" x2="189.852" y2="144.599" gradientUnits="userSpaceOnUse">
<stop stop-color="#83A4D4"/>
<stop offset="0.9543" stop-color="#B4F7FD"/>
<stop offset="0.9994" stop-color="#B6FBFF"/>
</linearGradient>
<linearGradient id="paint10_linear_70_19918" x1="73.5154" y1="144.725" x2="191.372" y2="144.725" gradientUnits="userSpaceOnUse">
<stop stop-color="#83A4D4"/>
<stop offset="0.9543" stop-color="#B4F7FD"/>
<stop offset="0.9994" stop-color="#B6FBFF"/>
</linearGradient>
<linearGradient id="paint11_linear_70_19918" x1="67.3504" y1="144.675" x2="192.654" y2="144.675" gradientUnits="userSpaceOnUse">
<stop stop-color="#83A4D4"/>
<stop offset="0.9543" stop-color="#B4F7FD"/>
<stop offset="0.9994" stop-color="#B6FBFF"/>
</linearGradient>
<linearGradient id="paint12_linear_70_19918" x1="60.864" y1="144.38" x2="193.754" y2="144.38" gradientUnits="userSpaceOnUse">
<stop stop-color="#83A4D4"/>
<stop offset="0.9543" stop-color="#B4F7FD"/>
<stop offset="0.9994" stop-color="#B6FBFF"/>
</linearGradient>
<linearGradient id="paint13_linear_70_19918" x1="54.0611" y1="143.825" x2="194.69" y2="143.825" gradientUnits="userSpaceOnUse">
<stop stop-color="#83A4D4"/>
<stop offset="0.9543" stop-color="#B4F7FD"/>
<stop offset="0.9994" stop-color="#B6FBFF"/>
</linearGradient>
<linearGradient id="paint14_linear_70_19918" x1="46.9497" y1="142.975" x2="195.38" y2="142.975" gradientUnits="userSpaceOnUse">
<stop stop-color="#83A4D4"/>
<stop offset="0.9543" stop-color="#B4F7FD"/>
<stop offset="0.9994" stop-color="#B6FBFF"/>
</linearGradient>
<linearGradient id="paint15_linear_70_19918" x1="39.5465" y1="141.791" x2="197.647" y2="141.791" gradientUnits="userSpaceOnUse">
<stop stop-color="#83A4D4"/>
<stop offset="0.9543" stop-color="#B4F7FD"/>
<stop offset="0.9994" stop-color="#B6FBFF"/>
</linearGradient>
<linearGradient id="paint16_linear_70_19918" x1="31.8573" y1="140.234" x2="211.013" y2="140.234" gradientUnits="userSpaceOnUse">
<stop stop-color="#83A4D4"/>
<stop offset="0.9543" stop-color="#B4F7FD"/>
<stop offset="0.9994" stop-color="#B6FBFF"/>
</linearGradient>
<linearGradient id="paint17_linear_70_19918" x1="23.993" y1="138.26" x2="226.132" y2="138.26" gradientUnits="userSpaceOnUse">
<stop stop-color="#83A4D4"/>
<stop offset="0.9543" stop-color="#B4F7FD"/>
<stop offset="0.9994" stop-color="#B6FBFF"/>
</linearGradient>
<linearGradient id="paint18_linear_70_19918" x1="16.0118" y1="135.824" x2="243.031" y2="135.824" gradientUnits="userSpaceOnUse">
<stop stop-color="#83A4D4"/>
<stop offset="0.9543" stop-color="#B4F7FD"/>
<stop offset="0.9994" stop-color="#B6FBFF"/>
</linearGradient>
<linearGradient id="paint19_linear_70_19918" x1="7.89965" y1="132.876" x2="261.892" y2="132.876" gradientUnits="userSpaceOnUse">
<stop stop-color="#83A4D4"/>
<stop offset="0.9543" stop-color="#B4F7FD"/>
<stop offset="0.9994" stop-color="#B6FBFF"/>
</linearGradient>
<linearGradient id="paint20_linear_70_19918" x1="-0.0564122" y1="129.389" x2="282.609" y2="129.389" gradientUnits="userSpaceOnUse">
<stop stop-color="#83A4D4"/>
<stop offset="0.9543" stop-color="#B4F7FD"/>
<stop offset="0.9994" stop-color="#B6FBFF"/>
</linearGradient>
</defs>
</svg>
