<svg width="296" height="300" viewBox="0 0 296 300" fill="none" xmlns="http://www.w3.org/2000/svg">
<g opacity="0.5">
<path d="M127.699 46.4956L296 210.474L295.476 210.605L69.9399 274.259L70.071 273.735L127.699 46.4956ZM294.69 210.082L128.092 47.9363L70.8568 273.342L294.69 210.082Z" fill="url(#paint0_linear_70_19839)"/>
<path d="M58.938 266.4L136.343 44.5312L289.713 222.524L58.938 266.4ZM136.605 45.841L59.9858 265.484L288.404 222L136.605 45.841Z" fill="url(#paint1_linear_70_19839)"/>
<path d="M48.7222 257.494L48.9841 256.97L145.119 43.2212L282.51 233.919L48.7222 257.494ZM145.25 44.6619L49.7699 256.708L281.2 233.395L145.25 44.6619Z" fill="url(#paint2_linear_70_19839)"/>
<path d="M39.292 247.802L154.025 42.6978L154.287 43.2216L274.127 244.659H273.473L39.292 247.802ZM154.025 44.1385L40.4707 247.016L273.08 243.873L154.025 44.1385Z" fill="url(#paint3_linear_70_19839)"/>
<path d="M30.6479 237.193L162.931 42.959L265.09 254.612L30.6479 237.193ZM162.8 44.3997L31.9577 236.669L263.912 253.826L162.8 44.3997Z" fill="url(#paint4_linear_70_19839)"/>
<path d="M23.0513 226.06L23.4442 225.536L171.706 44.0068L255.005 263.78L23.0513 226.06ZM171.444 45.4476L24.361 225.536L253.958 262.864L171.444 45.4476Z" fill="url(#paint5_linear_70_19839)"/>
<path d="M16.5029 214.142L180.482 45.8408L244.266 272.032L243.742 271.901L16.5029 214.142ZM180.089 47.1506L17.8127 213.749L243.218 270.984L180.089 47.1506Z" fill="url(#paint6_linear_70_19839)"/>
<path d="M10.8711 201.83L188.864 48.4604L232.74 279.367L10.8711 201.83ZM188.471 49.7702L12.3118 201.568L231.954 278.188L188.471 49.7702Z" fill="url(#paint7_linear_70_19839)"/>
<path d="M6.41748 188.995L197.115 51.6035L220.69 285.391L220.166 285.129L6.41748 188.995ZM196.591 52.9133L7.85824 188.864L219.904 284.343L196.591 52.9133Z" fill="url(#paint8_linear_70_19839)"/>
<path d="M3.14307 175.898L3.66699 175.636L205.104 55.7949L208.248 290.761L3.14307 175.898ZM204.449 56.8427L4.58382 175.767L207.462 289.321L204.449 56.8427Z" fill="url(#paint9_linear_70_19839)"/>
<path d="M1.04785 162.538L212.701 60.3789L195.282 294.69L1.04785 162.538ZM211.784 61.5577L2.35759 162.538L194.627 293.381L211.784 61.5577Z" fill="url(#paint10_linear_70_19839)"/>
<path d="M0 148.917L219.774 65.6182L182.053 297.572L0 148.917ZM218.857 66.7969L1.44068 149.179L181.529 296.262L218.857 66.7969Z" fill="url(#paint11_linear_70_19839)"/>
<path d="M0.261719 135.427L0.785565 135.296L226.322 71.6426L168.563 299.406L168.17 299.013L0.261719 135.427ZM225.405 72.5594L1.57145 135.689L168.17 297.965L225.405 72.5594Z" fill="url(#paint12_linear_70_19839)"/>
<path d="M1.57178 121.937L232.478 78.0605L155.073 299.93L1.57178 121.937ZM231.43 78.9774L3.01245 122.461L154.811 298.62L231.43 78.9774Z" fill="url(#paint13_linear_70_19839)"/>
<path d="M4.19092 108.577L237.979 85.0015L141.451 299.274L4.19092 108.577ZM236.8 85.7873L5.36963 109.101L141.32 297.833L236.8 85.7873Z" fill="url(#paint14_linear_70_19839)"/>
<path d="M7.8584 95.4798H8.51327L242.825 92.3364L128.092 297.441L7.8584 95.4798ZM241.646 93.1223L9.03711 96.2656L127.961 296.131L241.646 93.1223Z" fill="url(#paint15_linear_70_19839)"/>
<path d="M12.7046 82.9062L247.016 100.326L114.733 294.559L12.7046 82.9062ZM245.706 100.85L13.7524 83.6921L114.864 293.119L245.706 100.85Z" fill="url(#paint16_linear_70_19839)"/>
<path d="M18.5981 70.7256L250.552 108.446L101.897 290.368L18.5981 70.7256ZM249.242 108.839L19.6459 71.5115L102.028 288.927L249.242 108.839Z" fill="url(#paint17_linear_70_19839)"/>
<path d="M25.54 59.0693L26.0639 59.2003L253.303 116.829L89.3241 285.13L25.54 59.0693ZM251.993 117.222L26.5878 59.9862L89.717 283.82L251.993 117.222Z" fill="url(#paint18_linear_70_19839)"/>
<path d="M33.5293 48.0669L255.398 125.472L77.4054 278.842L33.5293 48.0669ZM253.958 125.734L34.3152 49.1147L77.7983 277.532L253.958 125.734Z" fill="url(#paint19_linear_70_19839)"/>
<path d="M42.3047 37.7202L42.8286 37.9821L256.577 134.248L65.8799 271.639L42.3047 37.7202ZM255.268 134.379L43.2215 38.899L66.5348 270.329L255.268 134.379Z" fill="url(#paint20_linear_70_19839)"/>
<path d="M52.1274 28.2905L257.232 143.023L256.708 143.285L55.2708 263.126V262.471L52.1274 28.2905ZM255.66 143.154L52.7823 29.6002L55.9257 262.209L255.66 143.154Z" fill="url(#paint21_linear_70_19839)"/>
<path d="M62.605 19.7773L256.839 152.061L45.1855 254.22L62.605 19.7773ZM255.398 151.93L63.1289 21.0871L45.9714 253.041L255.398 151.93Z" fill="url(#paint22_linear_70_19839)"/>
<path d="M73.7379 12.1807L74.2619 12.5736L255.791 160.836L36.0176 244.135L73.7379 12.1807ZM254.481 160.574L74.2619 13.4905L36.9344 243.087L254.481 160.574Z" fill="url(#paint23_linear_70_19839)"/>
<path d="M85.6567 5.50098L253.958 169.48L253.434 169.611L27.8975 233.264L28.0284 232.74L85.6567 5.50098ZM252.648 169.087L86.0497 6.94169L28.8143 232.347L252.648 169.087Z" fill="url(#paint24_linear_70_19839)"/>
<path d="M20.563 221.869L97.9683 0L251.338 177.993L20.563 221.869ZM98.2303 1.44072L21.6108 221.083L250.028 177.6L98.2303 1.44072Z" fill="url(#paint25_linear_70_19839)"/>
</g>
<defs>
<linearGradient id="paint0_linear_70_19839" x1="69.9338" y1="160.421" x2="296.092" y2="160.421" gradientUnits="userSpaceOnUse">
<stop stop-color="#83A4D4"/>
<stop offset="0.9543" stop-color="#B4F7FD"/>
<stop offset="0.9994" stop-color="#B6FBFF"/>
</linearGradient>
<linearGradient id="paint1_linear_70_19839" x1="58.9423" y1="155.432" x2="289.803" y2="155.432" gradientUnits="userSpaceOnUse">
<stop stop-color="#83A4D4"/>
<stop offset="0.9543" stop-color="#B4F7FD"/>
<stop offset="0.9994" stop-color="#B6FBFF"/>
</linearGradient>
<linearGradient id="paint2_linear_70_19839" x1="48.6846" y1="150.36" x2="282.491" y2="150.36" gradientUnits="userSpaceOnUse">
<stop stop-color="#83A4D4"/>
<stop offset="0.9543" stop-color="#B4F7FD"/>
<stop offset="0.9994" stop-color="#B6FBFF"/>
</linearGradient>
<linearGradient id="paint3_linear_70_19839" x1="39.2388" y1="145.244" x2="274.211" y2="145.244" gradientUnits="userSpaceOnUse">
<stop stop-color="#83A4D4"/>
<stop offset="0.9543" stop-color="#B4F7FD"/>
<stop offset="0.9994" stop-color="#B6FBFF"/>
</linearGradient>
<linearGradient id="paint4_linear_70_19839" x1="30.6773" y1="148.805" x2="265.027" y2="148.805" gradientUnits="userSpaceOnUse">
<stop stop-color="#83A4D4"/>
<stop offset="0.9543" stop-color="#B4F7FD"/>
<stop offset="0.9994" stop-color="#B6FBFF"/>
</linearGradient>
<linearGradient id="paint5_linear_70_19839" x1="23.0641" y1="153.895" x2="255.009" y2="153.895" gradientUnits="userSpaceOnUse">
<stop stop-color="#83A4D4"/>
<stop offset="0.9543" stop-color="#B4F7FD"/>
<stop offset="0.9994" stop-color="#B6FBFF"/>
</linearGradient>
<linearGradient id="paint6_linear_70_19839" x1="16.4587" y1="158.914" x2="244.232" y2="158.914" gradientUnits="userSpaceOnUse">
<stop stop-color="#83A4D4"/>
<stop offset="0.9543" stop-color="#B4F7FD"/>
<stop offset="0.9994" stop-color="#B6FBFF"/>
</linearGradient>
<linearGradient id="paint7_linear_70_19839" x1="10.9103" y1="163.822" x2="232.779" y2="163.822" gradientUnits="userSpaceOnUse">
<stop stop-color="#83A4D4"/>
<stop offset="0.9543" stop-color="#B4F7FD"/>
<stop offset="0.9994" stop-color="#B6FBFF"/>
</linearGradient>
<linearGradient id="paint8_linear_70_19839" x1="6.46044" y1="168.582" x2="220.737" y2="168.582" gradientUnits="userSpaceOnUse">
<stop stop-color="#83A4D4"/>
<stop offset="0.9543" stop-color="#B4F7FD"/>
<stop offset="0.9994" stop-color="#B6FBFF"/>
</linearGradient>
<linearGradient id="paint9_linear_70_19839" x1="3.14451" y1="173.159" x2="208.197" y2="173.159" gradientUnits="userSpaceOnUse">
<stop stop-color="#83A4D4"/>
<stop offset="0.9543" stop-color="#B4F7FD"/>
<stop offset="0.9994" stop-color="#B6FBFF"/>
</linearGradient>
<linearGradient id="paint10_linear_70_19839" x1="0.987735" y1="177.518" x2="212.626" y2="177.518" gradientUnits="userSpaceOnUse">
<stop stop-color="#83A4D4"/>
<stop offset="0.9543" stop-color="#B4F7FD"/>
<stop offset="0.9994" stop-color="#B6FBFF"/>
</linearGradient>
<linearGradient id="paint11_linear_70_19839" x1="0.00510797" y1="181.625" x2="219.74" y2="181.625" gradientUnits="userSpaceOnUse">
<stop stop-color="#83A4D4"/>
<stop offset="0.9543" stop-color="#B4F7FD"/>
<stop offset="0.9994" stop-color="#B6FBFF"/>
</linearGradient>
<linearGradient id="paint12_linear_70_19839" x1="0.205138" y1="185.449" x2="226.363" y2="185.449" gradientUnits="userSpaceOnUse">
<stop stop-color="#83A4D4"/>
<stop offset="0.9543" stop-color="#B4F7FD"/>
<stop offset="0.9994" stop-color="#B6FBFF"/>
</linearGradient>
<linearGradient id="paint13_linear_70_19839" x1="1.58658" y1="188.962" x2="232.447" y2="188.962" gradientUnits="userSpaceOnUse">
<stop stop-color="#83A4D4"/>
<stop offset="0.9543" stop-color="#B4F7FD"/>
<stop offset="0.9994" stop-color="#B6FBFF"/>
</linearGradient>
<linearGradient id="paint14_linear_70_19839" x1="4.13787" y1="192.135" x2="237.944" y2="192.135" gradientUnits="userSpaceOnUse">
<stop stop-color="#83A4D4"/>
<stop offset="0.9543" stop-color="#B4F7FD"/>
<stop offset="0.9994" stop-color="#B6FBFF"/>
</linearGradient>
<linearGradient id="paint15_linear_70_19839" x1="7.84032" y1="194.946" x2="242.812" y2="194.946" gradientUnits="userSpaceOnUse">
<stop stop-color="#83A4D4"/>
<stop offset="0.9543" stop-color="#B4F7FD"/>
<stop offset="0.9994" stop-color="#B6FBFF"/>
</linearGradient>
<linearGradient id="paint16_linear_70_19839" x1="12.666" y1="188.688" x2="247.016" y2="188.688" gradientUnits="userSpaceOnUse">
<stop stop-color="#83A4D4"/>
<stop offset="0.9543" stop-color="#B4F7FD"/>
<stop offset="0.9994" stop-color="#B6FBFF"/>
</linearGradient>
<linearGradient id="paint17_linear_70_19839" x1="18.5771" y1="180.532" x2="250.521" y2="180.532" gradientUnits="userSpaceOnUse">
<stop stop-color="#83A4D4"/>
<stop offset="0.9543" stop-color="#B4F7FD"/>
<stop offset="0.9994" stop-color="#B6FBFF"/>
</linearGradient>
<linearGradient id="paint18_linear_70_19839" x1="25.5297" y1="172.102" x2="253.303" y2="172.102" gradientUnits="userSpaceOnUse">
<stop stop-color="#83A4D4"/>
<stop offset="0.9543" stop-color="#B4F7FD"/>
<stop offset="0.9994" stop-color="#B6FBFF"/>
</linearGradient>
<linearGradient id="paint19_linear_70_19839" x1="33.47" y1="163.462" x2="255.339" y2="163.462" gradientUnits="userSpaceOnUse">
<stop stop-color="#83A4D4"/>
<stop offset="0.9543" stop-color="#B4F7FD"/>
<stop offset="0.9994" stop-color="#B6FBFF"/>
</linearGradient>
<linearGradient id="paint20_linear_70_19839" x1="42.3389" y1="154.677" x2="256.615" y2="154.677" gradientUnits="userSpaceOnUse">
<stop stop-color="#83A4D4"/>
<stop offset="0.9543" stop-color="#B4F7FD"/>
<stop offset="0.9994" stop-color="#B6FBFF"/>
</linearGradient>
<linearGradient id="paint21_linear_70_19839" x1="52.0671" y1="145.815" x2="257.12" y2="145.815" gradientUnits="userSpaceOnUse">
<stop stop-color="#83A4D4"/>
<stop offset="0.9543" stop-color="#B4F7FD"/>
<stop offset="0.9994" stop-color="#B6FBFF"/>
</linearGradient>
<linearGradient id="paint22_linear_70_19839" x1="45.2116" y1="136.942" x2="256.85" y2="136.942" gradientUnits="userSpaceOnUse">
<stop stop-color="#83A4D4"/>
<stop offset="0.9543" stop-color="#B4F7FD"/>
<stop offset="0.9994" stop-color="#B6FBFF"/>
</linearGradient>
<linearGradient id="paint23_linear_70_19839" x1="36.0742" y1="128.126" x2="255.808" y2="128.126" gradientUnits="userSpaceOnUse">
<stop stop-color="#83A4D4"/>
<stop offset="0.9543" stop-color="#B4F7FD"/>
<stop offset="0.9994" stop-color="#B6FBFF"/>
</linearGradient>
<linearGradient id="paint24_linear_70_19839" x1="27.8444" y1="119.435" x2="254.003" y2="119.435" gradientUnits="userSpaceOnUse">
<stop stop-color="#83A4D4"/>
<stop offset="0.9543" stop-color="#B4F7FD"/>
<stop offset="0.9994" stop-color="#B6FBFF"/>
</linearGradient>
<linearGradient id="paint25_linear_70_19839" x1="20.5853" y1="110.934" x2="251.446" y2="110.934" gradientUnits="userSpaceOnUse">
<stop stop-color="#83A4D4"/>
<stop offset="0.9543" stop-color="#B4F7FD"/>
<stop offset="0.9994" stop-color="#B6FBFF"/>
</linearGradient>
</defs>
</svg>
