<svg width="267" height="231" viewBox="0 0 267 231" fill="none" xmlns="http://www.w3.org/2000/svg">
<g opacity="0.5">
<path d="M143.431 169.689H123.365L132.903 62.0542H133.893L143.431 169.689ZM124.356 168.698H142.316L133.398 67.6279L124.356 168.698Z" fill="url(#paint0_linear_70_19982)"/>
<path d="M144.422 171.299H122.25L132.903 60.3203H133.893L144.422 171.299ZM123.241 170.308H143.307L133.274 65.5225L123.241 170.308Z" fill="url(#paint1_linear_70_19982)"/>
<path d="M145.66 173.033H121.136L133.398 53.7553L145.66 173.033ZM122.127 172.042H144.545L133.398 63.5403L122.127 172.042Z" fill="url(#paint2_linear_70_19982)"/>
<path d="M146.899 174.892H119.649L133.274 52.5176L146.899 174.892ZM120.888 173.901H145.908L133.398 61.4355L120.888 173.901Z" fill="url(#paint3_linear_70_19982)"/>
<path d="M148.385 176.625H118.287L133.398 50.9062L148.385 176.625ZM119.401 175.634H147.27L133.274 59.3288L119.401 175.634Z" fill="url(#paint4_linear_70_19982)"/>
<path d="M149.995 178.482H116.677L133.398 49.2954L149.995 178.482ZM117.792 177.491H148.881L133.398 57.0986L117.792 177.491Z" fill="url(#paint5_linear_70_19982)"/>
<path d="M151.729 180.464H114.819L133.274 47.6855L151.729 180.464ZM115.934 179.473H150.615L133.274 54.9934L115.934 179.473Z" fill="url(#paint6_linear_70_19982)"/>
<path d="M153.835 182.447H112.961L133.398 45.9526L153.835 182.447ZM113.952 181.456H152.596L133.274 52.6411L113.952 181.456Z" fill="url(#paint7_linear_70_19982)"/>
<path d="M155.94 184.552H110.607L133.274 44.2183L155.94 184.552ZM111.846 183.561H154.826L133.274 50.4113L111.846 183.561Z" fill="url(#paint8_linear_70_19982)"/>
<path d="M158.418 186.657H108.13L133.274 42.3598L158.418 186.657ZM109.369 185.667H157.303L133.398 48.0573L109.369 185.667Z" fill="url(#paint9_linear_70_19982)"/>
<path d="M161.143 188.763H105.405L133.274 40.2539L161.143 188.763ZM106.644 187.772H160.028L133.398 45.7038L106.644 187.772Z" fill="url(#paint10_linear_70_19982)"/>
<path d="M164.239 191.117H102.433L133.398 38.2734L164.239 191.117ZM103.671 190.126H163.124L133.398 43.3517L103.671 190.126Z" fill="url(#paint11_linear_70_19982)"/>
<path d="M167.584 193.346H98.9648L133.274 36.043L167.584 193.346ZM100.203 192.355H166.345L133.274 40.7497L100.203 192.355Z" fill="url(#paint12_linear_70_19982)"/>
<path d="M171.423 195.823H95.3726L133.398 33.937L171.423 195.823ZM96.4873 194.832H170.061L133.274 38.2721L96.4873 194.832Z" fill="url(#paint13_linear_70_19982)"/>
<path d="M175.511 198.301H91.0376L133.274 31.7085L175.511 198.301ZM92.4001 197.31H174.272L133.398 35.6721L92.4001 197.31Z" fill="url(#paint14_linear_70_19982)"/>
<path d="M180.217 200.778H86.5786L133.398 29.2315L180.217 200.778ZM87.8172 199.788H178.855L133.274 32.9473L87.8172 199.788Z" fill="url(#paint15_linear_70_19982)"/>
<path d="M185.296 203.379H81.3765L133.398 26.6295L185.296 203.379ZM82.6151 202.388H183.933L133.274 30.2215L82.6151 202.388Z" fill="url(#paint16_linear_70_19982)"/>
<path d="M190.993 206.103H75.5547L133.274 24.1519L190.993 206.103ZM76.9172 205.112H189.63L133.274 27.3722L76.9172 205.112Z" fill="url(#paint17_linear_70_19982)"/>
<path d="M197.434 208.952H69.2383L133.274 21.5512L197.434 208.952ZM70.6007 207.961H195.948L133.274 24.6477L70.6007 207.961Z" fill="url(#paint18_linear_70_19982)"/>
<path d="M204.494 211.802H62.1782L133.274 18.7031L204.494 211.802ZM63.6646 210.811H203.008L133.274 21.6758L63.6646 210.811Z" fill="url(#paint19_linear_70_19982)"/>
<path d="M212.297 214.774H54.375L54.6227 214.154L133.274 15.9775L212.297 214.774ZM55.8613 213.783H210.811L133.274 18.5786L55.8613 213.783Z" fill="url(#paint20_linear_70_19982)"/>
<path d="M220.967 217.746H45.7046L133.398 12.881L220.967 217.746ZM47.1909 216.755H219.481L133.274 15.3582L47.1909 216.755Z" fill="url(#paint21_linear_70_19982)"/>
<path d="M230.628 220.966H35.9194L133.274 9.9077L230.628 220.966ZM37.5297 219.975H229.142L133.398 12.2611L37.5297 219.975Z" fill="url(#paint22_linear_70_19982)"/>
<path d="M241.404 224.187H25.2676L133.398 6.68799L241.404 224.187ZM26.8778 223.196H239.918L133.398 8.91746L26.8778 223.196Z" fill="url(#paint23_linear_70_19982)"/>
<path d="M253.419 227.532H13.2529L133.274 3.46774L253.419 227.532ZM14.8631 226.541H251.685L133.274 5.57338L14.8631 226.541Z" fill="url(#paint24_linear_70_19982)"/>
<path d="M266.672 231H0L133.274 0L266.672 231ZM1.73408 230.009H264.938L133.274 2.10565L1.73408 230.009Z" fill="url(#paint25_linear_70_19982)"/>
</g>
<defs>
<linearGradient id="paint0_linear_70_19982" x1="123.267" y1="115.852" x2="143.373" y2="115.852" gradientUnits="userSpaceOnUse">
<stop stop-color="#83A4D4"/>
<stop offset="0.9543" stop-color="#B4F7FD"/>
<stop offset="0.9994" stop-color="#B6FBFF"/>
</linearGradient>
<linearGradient id="paint1_linear_70_19982" x1="122.206" y1="115.854" x2="144.434" y2="115.854" gradientUnits="userSpaceOnUse">
<stop stop-color="#83A4D4"/>
<stop offset="0.9543" stop-color="#B4F7FD"/>
<stop offset="0.9994" stop-color="#B6FBFF"/>
</linearGradient>
<linearGradient id="paint2_linear_70_19982" x1="121.028" y1="113.459" x2="145.612" y2="113.459" gradientUnits="userSpaceOnUse">
<stop stop-color="#83A4D4"/>
<stop offset="0.9543" stop-color="#B4F7FD"/>
<stop offset="0.9994" stop-color="#B6FBFF"/>
</linearGradient>
<linearGradient id="paint3_linear_70_19982" x1="119.719" y1="113.636" x2="146.921" y2="113.636" gradientUnits="userSpaceOnUse">
<stop stop-color="#83A4D4"/>
<stop offset="0.9543" stop-color="#B4F7FD"/>
<stop offset="0.9994" stop-color="#B6FBFF"/>
</linearGradient>
<linearGradient id="paint4_linear_70_19982" x1="118.264" y1="113.8" x2="148.375" y2="113.8" gradientUnits="userSpaceOnUse">
<stop stop-color="#83A4D4"/>
<stop offset="0.9543" stop-color="#B4F7FD"/>
<stop offset="0.9994" stop-color="#B6FBFF"/>
</linearGradient>
<linearGradient id="paint5_linear_70_19982" x1="116.649" y1="113.951" x2="149.991" y2="113.951" gradientUnits="userSpaceOnUse">
<stop stop-color="#83A4D4"/>
<stop offset="0.9543" stop-color="#B4F7FD"/>
<stop offset="0.9994" stop-color="#B6FBFF"/>
</linearGradient>
<linearGradient id="paint6_linear_70_19982" x1="114.854" y1="114.094" x2="151.786" y2="114.094" gradientUnits="userSpaceOnUse">
<stop stop-color="#83A4D4"/>
<stop offset="0.9543" stop-color="#B4F7FD"/>
<stop offset="0.9994" stop-color="#B6FBFF"/>
</linearGradient>
<linearGradient id="paint7_linear_70_19982" x1="112.859" y1="114.227" x2="153.781" y2="114.227" gradientUnits="userSpaceOnUse">
<stop stop-color="#83A4D4"/>
<stop offset="0.9543" stop-color="#B4F7FD"/>
<stop offset="0.9994" stop-color="#B6FBFF"/>
</linearGradient>
<linearGradient id="paint8_linear_70_19982" x1="110.643" y1="114.349" x2="155.996" y2="114.349" gradientUnits="userSpaceOnUse">
<stop stop-color="#83A4D4"/>
<stop offset="0.9543" stop-color="#B4F7FD"/>
<stop offset="0.9994" stop-color="#B6FBFF"/>
</linearGradient>
<linearGradient id="paint9_linear_70_19982" x1="108.181" y1="114.462" x2="158.459" y2="114.462" gradientUnits="userSpaceOnUse">
<stop stop-color="#83A4D4"/>
<stop offset="0.9543" stop-color="#B4F7FD"/>
<stop offset="0.9994" stop-color="#B6FBFF"/>
</linearGradient>
<linearGradient id="paint10_linear_70_19982" x1="105.445" y1="114.568" x2="161.194" y2="114.568" gradientUnits="userSpaceOnUse">
<stop stop-color="#83A4D4"/>
<stop offset="0.9543" stop-color="#B4F7FD"/>
<stop offset="0.9994" stop-color="#B6FBFF"/>
</linearGradient>
<linearGradient id="paint11_linear_70_19982" x1="102.406" y1="114.668" x2="164.234" y2="114.668" gradientUnits="userSpaceOnUse">
<stop stop-color="#83A4D4"/>
<stop offset="0.9543" stop-color="#B4F7FD"/>
<stop offset="0.9994" stop-color="#B6FBFF"/>
</linearGradient>
<linearGradient id="paint12_linear_70_19982" x1="99.0295" y1="114.759" x2="167.611" y2="114.759" gradientUnits="userSpaceOnUse">
<stop stop-color="#83A4D4"/>
<stop offset="0.9543" stop-color="#B4F7FD"/>
<stop offset="0.9994" stop-color="#B6FBFF"/>
</linearGradient>
<linearGradient id="paint13_linear_70_19982" x1="95.2774" y1="114.844" x2="171.362" y2="114.844" gradientUnits="userSpaceOnUse">
<stop stop-color="#83A4D4"/>
<stop offset="0.9543" stop-color="#B4F7FD"/>
<stop offset="0.9994" stop-color="#B6FBFF"/>
</linearGradient>
<linearGradient id="paint14_linear_70_19982" x1="91.1089" y1="114.924" x2="175.531" y2="114.924" gradientUnits="userSpaceOnUse">
<stop stop-color="#83A4D4"/>
<stop offset="0.9543" stop-color="#B4F7FD"/>
<stop offset="0.9994" stop-color="#B6FBFF"/>
</linearGradient>
<linearGradient id="paint15_linear_70_19982" x1="86.4777" y1="114.998" x2="180.162" y2="114.998" gradientUnits="userSpaceOnUse">
<stop stop-color="#83A4D4"/>
<stop offset="0.9543" stop-color="#B4F7FD"/>
<stop offset="0.9994" stop-color="#B6FBFF"/>
</linearGradient>
<linearGradient id="paint16_linear_70_19982" x1="81.3321" y1="115.066" x2="185.308" y2="115.066" gradientUnits="userSpaceOnUse">
<stop stop-color="#83A4D4"/>
<stop offset="0.9543" stop-color="#B4F7FD"/>
<stop offset="0.9994" stop-color="#B6FBFF"/>
</linearGradient>
<linearGradient id="paint17_linear_70_19982" x1="75.6143" y1="115.13" x2="191.025" y2="115.13" gradientUnits="userSpaceOnUse">
<stop stop-color="#83A4D4"/>
<stop offset="0.9543" stop-color="#B4F7FD"/>
<stop offset="0.9994" stop-color="#B6FBFF"/>
</linearGradient>
<linearGradient id="paint18_linear_70_19982" x1="69.2626" y1="115.19" x2="197.378" y2="115.19" gradientUnits="userSpaceOnUse">
<stop stop-color="#83A4D4"/>
<stop offset="0.9543" stop-color="#B4F7FD"/>
<stop offset="0.9994" stop-color="#B6FBFF"/>
</linearGradient>
<linearGradient id="paint19_linear_70_19982" x1="62.2042" y1="115.247" x2="204.436" y2="115.247" gradientUnits="userSpaceOnUse">
<stop stop-color="#83A4D4"/>
<stop offset="0.9543" stop-color="#B4F7FD"/>
<stop offset="0.9994" stop-color="#B6FBFF"/>
</linearGradient>
<linearGradient id="paint20_linear_70_19982" x1="54.3627" y1="115.298" x2="212.277" y2="115.298" gradientUnits="userSpaceOnUse">
<stop stop-color="#83A4D4"/>
<stop offset="0.9543" stop-color="#B4F7FD"/>
<stop offset="0.9994" stop-color="#B6FBFF"/>
</linearGradient>
<linearGradient id="paint21_linear_70_19982" x1="45.6493" y1="115.346" x2="220.99" y2="115.346" gradientUnits="userSpaceOnUse">
<stop stop-color="#83A4D4"/>
<stop offset="0.9543" stop-color="#B4F7FD"/>
<stop offset="0.9994" stop-color="#B6FBFF"/>
</linearGradient>
<linearGradient id="paint22_linear_70_19982" x1="35.9684" y1="115.39" x2="230.671" y2="115.39" gradientUnits="userSpaceOnUse">
<stop stop-color="#83A4D4"/>
<stop offset="0.9543" stop-color="#B4F7FD"/>
<stop offset="0.9994" stop-color="#B6FBFF"/>
</linearGradient>
<linearGradient id="paint23_linear_70_19982" x1="25.2126" y1="115.433" x2="241.427" y2="115.433" gradientUnits="userSpaceOnUse">
<stop stop-color="#83A4D4"/>
<stop offset="0.9543" stop-color="#B4F7FD"/>
<stop offset="0.9994" stop-color="#B6FBFF"/>
</linearGradient>
<linearGradient id="paint24_linear_70_19982" x1="13.2617" y1="115.473" x2="253.378" y2="115.473" gradientUnits="userSpaceOnUse">
<stop stop-color="#83A4D4"/>
<stop offset="0.9543" stop-color="#B4F7FD"/>
<stop offset="0.9994" stop-color="#B6FBFF"/>
</linearGradient>
<linearGradient id="paint25_linear_70_19982" x1="-0.0165973" y1="115.51" x2="266.656" y2="115.51" gradientUnits="userSpaceOnUse">
<stop stop-color="#83A4D4"/>
<stop offset="0.9543" stop-color="#B4F7FD"/>
<stop offset="0.9994" stop-color="#B6FBFF"/>
</linearGradient>
</defs>
</svg>
