<svg width="259" height="259" viewBox="0 0 259 259" fill="none" xmlns="http://www.w3.org/2000/svg">
<g opacity="0.5">
<path d="M140.738 181.607C126.562 181.607 111.365 177.392 97.9549 168.708C81.6078 158.235 70.7522 143.037 68.198 127.073C66.2823 115.196 69.092 104.213 76.2439 95.2732C93.6127 73.6898 131.671 71.5187 160.917 90.4201C177.264 100.893 188.12 116.09 190.674 132.054C192.59 143.931 189.78 154.915 182.628 163.855C173.177 175.604 157.596 181.607 140.738 181.607ZM118.133 78.032C101.403 78.032 85.95 83.9068 76.627 95.5286C69.4751 104.341 66.7932 115.196 68.5811 126.946C71.1354 142.782 81.8632 157.852 98.0826 168.324C127.201 187.098 164.876 184.927 182.117 163.599C189.269 154.787 191.951 143.931 190.163 132.182C187.609 116.346 176.881 101.276 160.662 90.8033C147.379 82.2465 132.309 78.032 118.133 78.032Z" fill="url(#paint0_linear_70_20061)"/>
<path d="M136.013 184.289C126.052 184.289 115.835 182.245 106.001 178.031C88.6321 170.496 75.2223 157.086 69.3476 141.122C64.7499 128.606 65.2608 115.452 70.7524 104.213C83.6513 77.649 120.56 67.432 152.999 81.4804C170.368 89.0154 183.778 102.425 189.652 118.389C194.25 130.905 193.739 144.059 188.247 155.298C179.18 173.688 158.618 184.289 136.013 184.289ZM70.8801 104.213L71.1355 104.341C65.6439 115.579 65.2608 128.478 69.7307 140.866C75.6055 156.575 88.7598 169.985 106.129 177.392C138.312 191.313 174.838 181.223 187.737 154.915C193.228 143.676 193.611 130.777 189.141 118.389C183.267 102.681 170.112 89.2708 152.744 81.8635C120.56 67.9429 84.0344 78.0321 71.1355 104.341L70.8801 104.213Z" fill="url(#paint1_linear_70_20061)"/>
<path d="M132.182 187.992C126.69 187.992 121.199 187.354 115.58 186.076C97.9553 181.862 82.6298 171.006 73.69 156.32C65.8996 143.421 63.473 128.606 66.9213 114.685H67.1767H66.9213C74.584 83.6514 108.811 65.0055 143.293 73.3068C160.917 77.5212 176.243 88.3768 185.183 103.064C192.973 115.963 195.4 130.777 191.951 144.698C185.566 170.751 160.534 187.992 132.182 187.992ZM126.691 71.7742C98.5939 71.7742 73.69 88.8876 67.3044 114.685C63.8562 128.478 66.2827 143.165 74.0731 155.936C82.8853 170.496 98.083 181.223 115.58 185.438C149.806 193.611 183.778 175.349 191.313 144.442C194.761 130.649 192.334 115.963 184.544 103.191C175.732 88.6322 160.534 77.9044 143.038 73.6899C137.674 72.4128 132.182 71.7742 126.691 71.7742Z" fill="url(#paint2_linear_70_20061)"/>
<path d="M129.883 192.718C128.861 192.718 127.712 192.718 126.69 192.59C91.1864 190.93 63.7283 161.3 65.2609 126.435C66.0271 109.832 73.179 94.507 85.5671 83.1406C98.3383 71.5188 114.941 65.6441 132.31 66.4103C167.814 68.0706 195.272 97.6998 193.739 132.565C192.973 149.168 185.821 164.493 173.433 175.86C161.428 186.843 146.103 192.718 129.883 192.718ZM129.117 67.0489C113.025 67.0489 97.8274 72.9236 85.9502 83.6515C73.6899 94.8901 66.538 110.088 65.7717 126.563C64.2392 161.045 91.5695 190.419 126.69 192.079C143.931 192.845 160.406 186.971 173.05 175.476C185.31 164.238 192.462 149.04 193.228 132.565C194.761 98.0829 167.43 68.7091 132.31 67.0489C131.16 67.0489 130.139 67.0489 129.117 67.0489Z" fill="url(#paint3_linear_70_20061)"/>
<path d="M129.245 198.209C116.218 198.209 103.447 193.995 92.5914 185.949C77.9045 175.093 68.4538 158.618 65.7719 139.717C60.6634 102.297 85.0564 67.4321 120.177 61.8128C136.524 59.2585 152.871 63.3453 166.409 73.4345C181.096 84.29 190.547 100.765 193.228 119.666C198.337 157.086 173.944 191.951 138.823 197.571C135.503 197.954 132.31 198.209 129.245 198.209ZM129.756 61.5573C126.563 61.5573 123.498 61.8128 120.305 62.3236C85.4395 67.8152 61.3019 102.425 66.2827 139.589C68.837 158.363 78.2876 174.582 92.8468 185.438C106.257 195.4 122.476 199.486 138.568 196.932C173.433 191.44 197.571 156.83 192.59 119.666C190.036 100.893 180.585 84.6732 166.026 73.8177C155.298 65.7718 142.655 61.5573 129.756 61.5573Z" fill="url(#paint4_linear_70_20061)"/>
<path d="M130.777 203.956C122.348 203.956 113.792 202.04 105.873 198.209C88.6323 190.035 75.0948 173.688 68.8369 153.51C56.7043 114.685 74.0731 72.4127 107.406 59.1306C122.221 53.2559 138.44 53.8944 152.999 60.9186C170.24 69.0922 183.778 85.4393 190.036 105.618C202.168 144.442 184.799 186.715 151.467 199.997C144.826 202.679 137.801 203.956 130.777 203.956ZM128.095 55.8101C121.199 55.8101 114.302 57.0872 107.661 59.7692C74.4562 72.7958 57.3428 114.813 69.3477 153.382C75.6056 173.433 89.0154 189.652 106.129 197.698C120.56 204.595 136.652 205.233 151.339 199.486C184.544 186.46 201.657 144.442 189.652 105.873C183.395 85.8224 169.985 69.603 152.871 61.5571C144.953 57.7258 136.524 55.8101 128.095 55.8101Z" fill="url(#paint5_linear_70_20061)"/>
<path d="M134.226 209.831C129.756 209.831 125.158 209.32 120.688 208.043C101.659 203.19 84.801 188.375 74.4563 167.686C55.1718 128.734 64.1116 80.0754 94.3794 59.0029C107.406 49.9354 122.987 47.1257 138.312 51.0848C157.341 55.9378 174.199 70.7524 184.544 91.4418C203.829 130.394 194.889 179.052 164.621 200.125C155.426 206.51 144.953 209.831 134.226 209.831ZM75.0948 167.43C85.3118 187.992 102.042 202.679 120.943 207.532C136.013 211.363 151.467 208.681 164.366 199.742C194.378 178.925 203.19 130.522 184.033 91.8249C173.816 71.2633 157.086 56.5764 138.185 51.7233C123.115 47.892 107.661 50.5739 94.7625 59.5138C64.6225 80.3308 55.8103 128.734 75.0948 167.43Z" fill="url(#paint6_linear_70_20061)"/>
<path d="M139.078 215.323C138.056 215.323 137.035 215.323 136.013 215.195C116.218 214.045 96.8054 201.785 82.6294 181.607C56.193 144.059 55.6822 90.2925 81.48 61.5573C92.4632 49.2969 107.15 43.039 122.731 43.933C142.526 45.0824 161.939 57.3428 176.115 77.5213C202.551 115.069 203.062 168.835 177.264 197.571C167.175 209.065 153.637 215.323 139.078 215.323ZM119.794 44.5716C105.49 44.5716 92.2078 50.7017 81.9908 62.0681C56.4484 90.5479 57.087 144.059 83.268 181.351C97.3163 201.402 116.601 213.535 136.141 214.684C151.594 215.578 166.025 209.448 176.881 197.315C202.423 168.835 201.785 115.324 175.604 78.0321C161.555 57.9813 142.271 45.8487 122.731 44.6993C121.709 44.5716 120.815 44.5716 119.794 44.5716Z" fill="url(#paint7_linear_70_20061)"/>
<path d="M145.081 220.048C127.584 220.048 109.066 211.108 93.485 194.761C60.4076 160.279 49.6798 102.936 69.3475 67.0489C77.9042 51.468 91.3139 41.7619 107.15 39.5908C126.562 37.0366 147.763 46.1042 165.259 64.367C198.337 98.8492 209.064 156.192 189.397 192.079C180.84 207.66 167.43 217.366 151.594 219.537C149.551 219.92 147.252 220.048 145.081 220.048ZM113.791 39.8462C111.62 39.8462 109.449 39.9739 107.406 40.2294C91.8248 42.2728 78.5427 51.8512 69.986 67.3043C50.3184 102.936 61.1739 160.023 93.9959 194.25C111.365 212.385 132.31 221.453 151.594 218.899C167.175 216.855 180.457 207.277 189.014 191.824C208.681 156.192 197.826 99.1046 165.004 64.8778C149.423 48.7861 131.16 39.8462 113.791 39.8462Z" fill="url(#paint8_linear_70_20061)"/>
<path d="M151.722 223.879C137.163 223.879 121.327 217.877 106.64 206.638C67.6875 176.626 46.1041 117.751 58.6199 75.3502C64.2393 56.3211 76.1165 42.9114 92.0805 37.8029C110.343 31.9281 132.31 37.292 152.361 52.7452C191.313 82.7575 212.896 141.633 200.38 184.033C194.761 203.062 182.884 216.472 166.92 221.58C162.067 223.113 156.958 223.879 151.722 223.879ZM107.151 36.0149C101.914 36.0149 96.9335 36.7812 92.2082 38.3137C76.4996 43.4222 64.7501 56.5765 59.2585 75.4779C46.7427 117.623 68.1983 176.243 107.023 206C126.946 221.325 148.657 226.689 166.664 220.814C182.373 215.706 194.122 202.551 199.614 183.65C212.13 141.505 190.674 82.8852 151.85 53.1283C137.291 41.8897 121.582 36.0149 107.151 36.0149Z" fill="url(#paint9_linear_70_20061)"/>
<path d="M158.108 226.817C146.614 226.817 134.226 223.368 121.582 216.472C77.5215 192.59 45.2103 134.225 49.4248 86.3334C51.4682 63.7283 61.1743 46.7426 77.0106 38.1859C93.7409 29.1184 115.196 30.7786 137.163 42.7835C181.224 66.6657 213.535 125.03 209.32 172.922C207.277 195.527 197.571 212.513 181.734 221.07C174.71 224.901 166.664 226.817 158.108 226.817ZM100.765 33.2051C92.336 33.2051 84.5456 35.1209 77.3937 38.8245C61.8129 47.2535 52.1067 64.1115 50.1911 86.4611C45.9766 134.098 78.16 192.079 121.965 215.833C143.804 227.711 164.876 229.243 181.479 220.431C197.06 212.002 206.766 195.144 208.682 172.794C212.896 125.158 180.713 67.1765 136.908 43.4221C124.392 36.6534 112.131 33.2051 100.765 33.2051Z" fill="url(#paint10_linear_70_20061)"/>
<path d="M164.11 228.477C156.064 228.477 147.38 226.944 138.312 223.879C90.5478 207.532 47.6365 151.977 42.6558 99.9987C40.2292 74.2008 47.2534 53.3838 62.5788 41.2511C77.2657 29.6293 97.8274 27.5859 120.432 35.3764C168.197 51.7235 211.108 107.278 216.089 159.257C218.515 185.055 211.491 205.872 196.166 218.005C187.481 224.901 176.498 228.477 164.11 228.477ZM94.7623 31.4173C82.6296 31.4173 71.7741 34.8655 63.0897 41.762C47.892 53.7669 40.9955 74.3285 43.422 99.871C48.4028 151.467 91.0586 206.766 138.568 223.113C161.045 230.776 181.351 228.732 195.783 217.366C210.98 205.361 217.877 184.799 215.45 159.257C210.469 107.661 167.814 52.3621 120.305 36.0149C111.365 32.9498 102.808 31.4173 94.7623 31.4173Z" fill="url(#paint11_linear_70_20061)"/>
<path d="M168.452 229.243C164.493 229.243 160.406 228.988 156.192 228.349C106.129 220.814 53.3836 170.368 38.569 116.09C30.9063 88.1214 34.6099 62.9621 48.786 47.1259C61.0463 33.333 80.2031 27.5859 102.68 31.0341C152.744 38.5691 205.489 89.0154 220.303 143.293C227.966 171.262 224.262 196.421 210.086 212.257C200.125 223.368 185.693 229.243 168.452 229.243ZM90.4201 30.7787C73.5621 30.7787 59.2584 36.5257 49.4245 47.6367C35.5039 63.3453 31.8003 88.1214 39.463 115.963C54.1499 169.985 106.64 220.176 156.447 227.711C178.669 231.031 197.57 225.412 209.703 211.874C223.624 196.166 227.327 171.39 219.665 143.548C204.978 89.5262 152.488 39.3354 102.68 31.8004C98.466 31.0341 94.3792 30.7787 90.4201 30.7787Z" fill="url(#paint12_linear_70_20061)"/>
<path d="M170.623 229.499C120.816 229.499 61.9404 187.482 37.6751 133.97C24.2653 104.341 23.6268 75.989 35.8871 55.9382C45.5932 40.1019 62.8344 30.9066 84.4177 29.8849C134.992 27.5861 196.421 70.3696 221.325 125.286C234.735 154.915 235.373 183.267 223.113 203.318C213.407 219.154 196.166 228.349 174.582 229.371C173.178 229.371 171.9 229.499 170.623 229.499ZM174.455 228.605V228.988V228.605C195.783 227.583 212.768 218.516 222.347 202.935C234.479 183.139 233.841 155.043 220.431 125.669C195.655 71.0082 134.609 28.4801 84.29 30.7789C62.9621 31.8006 45.9764 40.8682 36.398 56.449C24.2653 76.2444 24.9039 104.341 38.3136 133.715C63.2175 188.248 124.264 230.904 174.455 228.605Z" fill="url(#paint13_linear_70_20061)"/>
<path d="M169.985 229.499C124.136 229.499 69.9862 198.848 40.2293 153.254C20.817 123.498 14.9423 92.5912 24.2653 68.3259C31.1617 50.3185 45.7209 37.9305 66.1548 32.4389C115.324 19.5399 183.778 52.4896 218.771 105.873C238.183 135.63 244.058 166.536 234.735 190.802C227.838 208.809 213.279 221.197 192.845 226.689C185.566 228.604 177.903 229.499 169.985 229.499ZM89.0153 30.5232C81.2248 30.5232 73.5621 31.4171 66.4102 33.3328C46.2317 38.6967 31.928 50.8294 25.0315 68.7091C15.8363 92.7189 21.5833 123.37 40.8678 152.871C75.6055 206 143.676 238.821 192.59 225.923C212.768 220.559 227.072 208.426 233.968 190.546C243.164 166.536 237.417 135.886 218.132 106.384C188.375 61.0463 134.481 30.5232 89.0153 30.5232Z" fill="url(#paint14_linear_70_20061)"/>
<path d="M166.153 230.009C125.285 230.009 78.2872 209.065 46.3592 173.305C21.1999 145.081 9.70585 112.897 14.6866 84.8008C18.3903 64.75 30.1398 48.9137 48.7857 39.0799C94.6344 15.07 168.069 36.0148 212.64 85.8225C237.8 114.047 249.294 146.23 244.313 174.327C240.609 194.378 228.86 210.214 210.214 220.048L209.958 219.665L210.214 220.048C197.187 226.817 182.117 230.009 166.153 230.009ZM92.8464 30.14C77.0101 30.14 62.0678 33.3328 49.2966 39.9739C30.906 49.68 19.2843 65.2608 15.7083 85.0562C10.7275 112.897 22.0939 144.825 47.1255 172.794C78.9258 208.426 125.668 229.115 166.281 229.243C182.117 229.243 197.059 226.05 209.831 219.409C228.221 209.703 239.843 194.122 243.419 174.327C248.4 146.486 237.033 114.558 212.002 86.5888C180.201 50.8294 133.459 30.14 92.8464 30.14Z" fill="url(#paint15_linear_70_20061)"/>
<path d="M159.001 231.67C124.519 231.67 86.5887 218.643 56.0655 193.484C26.0532 168.708 8.55666 136.78 8.17352 105.746C7.9181 83.5239 16.4748 64.2393 32.9497 49.8079C73.4344 14.6871 149.551 21.7112 202.679 65.6442C232.691 90.4203 250.188 122.348 250.571 153.382C250.826 175.604 242.27 194.889 225.795 209.32C208.681 224.39 184.799 231.67 159.001 231.67ZM99.8708 28.48C74.3284 28.48 50.7016 35.7595 33.5882 50.5741C17.3688 64.7502 8.9398 83.7793 9.19522 105.746C9.57836 136.397 26.9472 168.069 56.7041 192.718C109.577 236.395 185.182 243.419 225.284 208.554L225.539 208.937L225.284 208.554C241.503 194.378 249.932 175.349 249.677 153.382C249.294 122.731 231.925 91.0589 202.168 66.4104C171.9 41.5066 134.098 28.48 99.8708 28.48Z" fill="url(#paint16_linear_70_20061)"/>
<path d="M149.806 235.246C123.242 235.246 95.1453 227.966 69.7306 212.896C36.2701 193.101 13.1542 163.216 6.38544 131.033C1.40467 107.15 6.13002 83.5238 19.6675 64.6224C52.6172 18.7738 128.861 10.4725 189.397 46.3596C222.857 66.1549 245.973 96.0396 252.742 128.223C257.723 152.105 252.997 175.732 239.46 194.633L239.077 194.378L239.46 194.633C220.303 221.325 186.587 235.246 149.806 235.246ZM109.066 24.9039C72.668 24.9039 39.2074 38.6968 20.3061 65.1332C6.64087 84.0346 2.17094 106.767 7.15171 130.777C13.9204 162.705 36.7809 192.334 70.1137 212.002C95.4007 226.944 123.37 234.224 149.806 234.224C186.204 234.224 219.665 220.431 238.566 193.995C252.231 175.093 256.701 152.361 251.72 128.351C244.952 96.4227 222.091 66.7935 188.758 47.1259C163.471 32.1835 135.502 24.9039 109.066 24.9039Z" fill="url(#paint17_linear_70_20061)"/>
<path d="M140.611 241.12C122.859 241.12 104.468 237.8 86.5886 230.903C51.2124 217.238 23.3712 191.313 9.96141 159.895C-0.766396 134.481 -1.14953 107.15 9.06743 83.1405C32.6942 27.3303 105.873 2.8096 172.283 28.352C207.66 42.0172 235.501 67.9427 248.911 99.3599C259.638 124.775 260.022 152.105 249.805 176.115C232.563 216.983 188.758 241.12 140.611 241.12ZM118.261 19.1567C70.4969 19.1567 27.0748 43.0389 9.96141 83.3959C-0.127837 107.15 0.2553 134.225 10.8554 159.385C24.1375 190.674 51.851 216.344 86.8441 229.882C152.743 255.296 225.284 231.031 248.783 175.732C258.872 151.977 258.489 124.902 247.889 99.743C234.607 68.4536 206.893 42.7835 171.9 29.246C154.148 22.3496 135.885 19.1567 118.261 19.1567Z" fill="url(#paint18_linear_70_20061)"/>
<path d="M133.459 249.166C124.647 249.166 115.707 248.272 106.64 246.612C72.6681 239.971 43.1666 221.708 23.499 194.888C3.83134 168.197 -3.70368 136.141 2.29879 104.979C14.8146 40.4846 81.9911 -0.894091 152.105 12.7711C222.219 26.4363 268.962 89.9092 256.446 154.404L255.935 154.276L256.446 154.404C245.59 210.469 193.101 249.166 133.459 249.166ZM125.413 11.1109C66.2825 11.1109 14.3037 49.4245 3.4482 105.107C-2.55427 136.013 4.85303 167.686 24.393 194.25C43.9329 220.814 73.3067 238.949 106.895 245.59C115.835 247.378 124.775 248.144 133.459 248.144C192.59 248.144 244.569 209.831 255.424 154.148C267.812 90.2923 221.453 27.2026 151.977 13.7928C143.037 12.0048 134.098 11.1109 125.413 11.1109Z" fill="url(#paint19_linear_70_20061)"/>
<path d="M129.5 259C58.109 259 0 200.891 0 129.5C0 58.109 58.109 0 129.5 0C200.891 0 259 58.109 259 129.5C259 200.891 200.891 259 129.5 259ZM129.5 1.27712C58.7475 1.27712 1.14941 58.8752 1.14941 129.628C1.14941 200.38 58.7475 257.978 129.5 257.978C200.252 257.978 257.851 200.38 257.851 129.628C257.851 58.8752 200.252 1.27712 129.5 1.27712Z" fill="url(#paint20_linear_70_20061)"/>
</g>
<defs>
<linearGradient id="paint0_linear_70_20061" x1="67.6113" y1="129.611" x2="191.314" y2="129.611" gradientUnits="userSpaceOnUse">
<stop stop-color="#83A4D4"/>
<stop offset="0.9543" stop-color="#B4F7FD"/>
<stop offset="0.9994" stop-color="#B6FBFF"/>
</linearGradient>
<linearGradient id="paint1_linear_70_20061" x1="66.1891" y1="129.611" x2="192.736" y2="129.611" gradientUnits="userSpaceOnUse">
<stop stop-color="#83A4D4"/>
<stop offset="0.9543" stop-color="#B4F7FD"/>
<stop offset="0.9994" stop-color="#B6FBFF"/>
</linearGradient>
<linearGradient id="paint2_linear_70_20061" x1="65.3877" y1="129.611" x2="193.538" y2="129.611" gradientUnits="userSpaceOnUse">
<stop stop-color="#83A4D4"/>
<stop offset="0.9543" stop-color="#B4F7FD"/>
<stop offset="0.9994" stop-color="#B6FBFF"/>
</linearGradient>
<linearGradient id="paint3_linear_70_20061" x1="65.1128" y1="129.611" x2="193.813" y2="129.611" gradientUnits="userSpaceOnUse">
<stop stop-color="#83A4D4"/>
<stop offset="0.9543" stop-color="#B4F7FD"/>
<stop offset="0.9994" stop-color="#B6FBFF"/>
</linearGradient>
<linearGradient id="paint4_linear_70_20061" x1="65.0859" y1="129.611" x2="193.84" y2="129.611" gradientUnits="userSpaceOnUse">
<stop stop-color="#83A4D4"/>
<stop offset="0.9543" stop-color="#B4F7FD"/>
<stop offset="0.9994" stop-color="#B6FBFF"/>
</linearGradient>
<linearGradient id="paint5_linear_70_20061" x1="64.9564" y1="129.611" x2="193.969" y2="129.611" gradientUnits="userSpaceOnUse">
<stop stop-color="#83A4D4"/>
<stop offset="0.9543" stop-color="#B4F7FD"/>
<stop offset="0.9994" stop-color="#B6FBFF"/>
</linearGradient>
<linearGradient id="paint6_linear_70_20061" x1="64.2916" y1="129.611" x2="194.634" y2="129.611" gradientUnits="userSpaceOnUse">
<stop stop-color="#83A4D4"/>
<stop offset="0.9543" stop-color="#B4F7FD"/>
<stop offset="0.9994" stop-color="#B6FBFF"/>
</linearGradient>
<linearGradient id="paint7_linear_70_20061" x1="62.6114" y1="129.611" x2="196.314" y2="129.611" gradientUnits="userSpaceOnUse">
<stop stop-color="#83A4D4"/>
<stop offset="0.9543" stop-color="#B4F7FD"/>
<stop offset="0.9994" stop-color="#B6FBFF"/>
</linearGradient>
<linearGradient id="paint8_linear_70_20061" x1="59.5517" y1="129.611" x2="199.373" y2="129.611" gradientUnits="userSpaceOnUse">
<stop stop-color="#83A4D4"/>
<stop offset="0.9543" stop-color="#B4F7FD"/>
<stop offset="0.9994" stop-color="#B6FBFF"/>
</linearGradient>
<linearGradient id="paint9_linear_70_20061" x1="55.0064" y1="129.611" x2="203.919" y2="129.611" gradientUnits="userSpaceOnUse">
<stop stop-color="#83A4D4"/>
<stop offset="0.9543" stop-color="#B4F7FD"/>
<stop offset="0.9994" stop-color="#B6FBFF"/>
</linearGradient>
<linearGradient id="paint10_linear_70_20061" x1="49.1288" y1="129.611" x2="209.797" y2="129.611" gradientUnits="userSpaceOnUse">
<stop stop-color="#83A4D4"/>
<stop offset="0.9543" stop-color="#B4F7FD"/>
<stop offset="0.9994" stop-color="#B6FBFF"/>
</linearGradient>
<linearGradient id="paint11_linear_70_20061" x1="42.2102" y1="129.611" x2="216.715" y2="129.611" gradientUnits="userSpaceOnUse">
<stop stop-color="#83A4D4"/>
<stop offset="0.9543" stop-color="#B4F7FD"/>
<stop offset="0.9994" stop-color="#B6FBFF"/>
</linearGradient>
<linearGradient id="paint12_linear_70_20061" x1="34.7434" y1="129.611" x2="224.182" y2="129.611" gradientUnits="userSpaceOnUse">
<stop stop-color="#83A4D4"/>
<stop offset="0.9543" stop-color="#B4F7FD"/>
<stop offset="0.9994" stop-color="#B6FBFF"/>
</linearGradient>
<linearGradient id="paint13_linear_70_20061" x1="27.13" y1="129.611" x2="231.795" y2="129.611" gradientUnits="userSpaceOnUse">
<stop stop-color="#83A4D4"/>
<stop offset="0.9543" stop-color="#B4F7FD"/>
<stop offset="0.9994" stop-color="#B6FBFF"/>
</linearGradient>
<linearGradient id="paint14_linear_70_20061" x1="19.9065" y1="129.611" x2="239.019" y2="129.611" gradientUnits="userSpaceOnUse">
<stop stop-color="#83A4D4"/>
<stop offset="0.9543" stop-color="#B4F7FD"/>
<stop offset="0.9994" stop-color="#B6FBFF"/>
</linearGradient>
<linearGradient id="paint15_linear_70_20061" x1="13.5159" y1="129.611" x2="245.409" y2="129.611" gradientUnits="userSpaceOnUse">
<stop stop-color="#83A4D4"/>
<stop offset="0.9543" stop-color="#B4F7FD"/>
<stop offset="0.9994" stop-color="#B6FBFF"/>
</linearGradient>
<linearGradient id="paint16_linear_70_20061" x1="8.24198" y1="129.611" x2="250.683" y2="129.611" gradientUnits="userSpaceOnUse">
<stop stop-color="#83A4D4"/>
<stop offset="0.9543" stop-color="#B4F7FD"/>
<stop offset="0.9994" stop-color="#B6FBFF"/>
</linearGradient>
<linearGradient id="paint17_linear_70_20061" x1="4.2902" y1="129.611" x2="254.635" y2="129.611" gradientUnits="userSpaceOnUse">
<stop stop-color="#83A4D4"/>
<stop offset="0.9543" stop-color="#B4F7FD"/>
<stop offset="0.9994" stop-color="#B6FBFF"/>
</linearGradient>
<linearGradient id="paint18_linear_70_20061" x1="1.71198" y1="129.611" x2="257.213" y2="129.611" gradientUnits="userSpaceOnUse">
<stop stop-color="#83A4D4"/>
<stop offset="0.9543" stop-color="#B4F7FD"/>
<stop offset="0.9994" stop-color="#B6FBFF"/>
</linearGradient>
<linearGradient id="paint19_linear_70_20061" x1="0.365103" y1="129.611" x2="258.539" y2="129.611" gradientUnits="userSpaceOnUse">
<stop stop-color="#83A4D4"/>
<stop offset="0.9543" stop-color="#B4F7FD"/>
<stop offset="0.9994" stop-color="#B6FBFF"/>
</linearGradient>
<linearGradient id="paint20_linear_70_20061" x1="0.0164749" y1="129.611" x2="258.909" y2="129.611" gradientUnits="userSpaceOnUse">
<stop stop-color="#83A4D4"/>
<stop offset="0.9543" stop-color="#B4F7FD"/>
<stop offset="0.9994" stop-color="#B6FBFF"/>
</linearGradient>
</defs>
</svg>
