<svg width="257" height="257" viewBox="0 0 257 257" fill="none" xmlns="http://www.w3.org/2000/svg">
<g opacity="0.7">
<path d="M179.236 244.673C174.287 244.673 169.574 242.788 165.803 239.371L45.5007 127.081C40.3162 122.25 38.0775 115.18 39.7271 108.228C41.3767 101.276 46.3255 95.8562 53.1595 93.7353L210.578 45.6613C217.412 43.5404 224.6 45.19 229.902 50.1388C235.086 54.9698 237.325 62.0395 235.676 68.9914L198.677 229.356C197.028 236.308 192.079 241.728 185.245 243.849C183.242 244.438 181.239 244.673 179.236 244.673ZM45.972 126.609L166.393 238.9C171.459 243.613 178.411 245.262 185.009 243.142C191.608 241.139 196.439 235.954 198.088 229.12L235.086 68.7557C236.618 62.0395 234.497 55.2054 229.548 50.4923C224.482 45.7792 217.53 44.1296 210.932 46.2505L53.3952 94.3244C46.7968 96.3275 41.9658 101.512 40.3162 108.346C38.9023 115.062 40.9054 121.896 45.972 126.609Z" fill="url(#paint0_linear_70_20125)"/>
<path d="M145.301 255.985C145.066 255.985 144.83 255.985 144.594 255.985C137.407 255.749 131.162 251.861 127.863 245.498L50.5672 100.216C47.2681 93.8532 47.5037 86.5478 51.2742 80.4208C55.0447 74.4115 61.5253 70.8767 68.7128 71.1123L233.201 76.8859C240.389 77.1216 246.634 81.0099 249.933 87.3726C253.232 93.7354 252.996 101.041 249.226 107.168L162.033 246.677C158.38 252.568 152.135 255.985 145.301 255.985ZM68.0058 71.8193C61.4075 71.8193 55.3982 75.1185 51.8634 80.7742C48.2107 86.6657 47.975 93.7354 51.1564 99.8624L128.452 245.145C131.751 251.272 137.76 255.042 144.594 255.278C151.546 255.514 157.791 252.214 161.444 246.323L248.637 106.814C252.289 100.923 252.525 93.8532 249.344 87.7261C246.044 81.599 240.035 77.8285 233.201 77.5929L68.7128 71.8193C68.4772 71.8193 68.2415 71.8193 68.0058 71.8193Z" fill="url(#paint1_linear_70_20125)"/>
<path d="M109.364 255.631C107.007 255.631 104.533 255.16 102.176 254.335C95.4599 251.743 90.8646 246.087 89.6863 239.017L63.9997 76.4142C62.9393 69.3445 65.5315 62.5104 71.0694 57.9151C76.6073 53.4376 83.9127 52.2594 90.6289 54.8516L244.277 113.766C250.993 116.358 255.589 122.014 256.767 129.083C257.827 136.153 255.235 142.987 249.697 147.582L121.736 251.154C118.201 254.099 113.841 255.631 109.364 255.631ZM83.5592 54.1446C79.3174 54.1446 75.0756 55.5586 71.6586 58.3864C66.2385 62.7461 63.7641 69.3445 64.8245 76.1785L90.5111 238.782C91.5715 245.616 96.049 251.154 102.53 253.628C109.01 256.102 116.08 255.042 121.382 250.682L249.226 147.111C254.646 142.751 257.12 136.153 256.06 129.319C254.999 122.485 250.522 116.947 244.041 114.473L90.3933 55.4407C88.1545 54.6159 85.798 54.1446 83.5592 54.1446Z" fill="url(#paint2_linear_70_20125)"/>
<path d="M75.4288 243.613C70.8335 243.613 66.4739 241.963 62.8212 239.018C57.4011 234.422 54.8089 227.47 56.105 220.401L84.7373 58.2689C86.0334 51.1992 90.7465 45.5434 97.4627 43.069C104.179 40.5947 111.484 41.8908 116.904 46.4861L242.981 152.296C248.401 156.891 250.993 163.843 249.697 170.913C248.401 177.982 243.688 183.638 236.971 186.113L82.3807 242.435C80.0241 243.142 77.6676 243.613 75.4288 243.613ZM104.179 42.5977C101.94 42.5977 99.7015 42.9512 97.5806 43.776C91.1 46.1326 86.5047 51.5527 85.3264 58.3867L56.6941 220.518C55.5159 227.353 57.9902 234.069 63.1747 238.428C68.477 242.906 75.5467 244.084 82.0272 241.728L236.618 185.406C243.098 183.049 247.694 177.629 248.872 170.795C250.05 163.961 247.576 157.245 242.392 152.885L116.315 47.0752C112.78 44.1295 108.539 42.5977 104.179 42.5977Z" fill="url(#paint3_linear_70_20125)"/>
<path d="M47.386 221.107C40.4341 221.107 34.0714 217.573 30.4187 211.563C26.766 205.436 26.6482 198.013 30.0652 191.768L109.953 47.782L110.306 47.8999L109.953 47.782C113.37 41.5371 119.733 37.7666 126.92 37.6488C133.99 37.531 140.588 41.0658 144.241 47.1929L228.959 188.351C232.612 194.478 232.73 201.901 229.313 208.146C225.896 214.391 219.533 218.162 212.346 218.28L47.7395 221.107C47.6216 221.107 47.5038 221.107 47.386 221.107ZM127.156 38.3558C127.038 38.3558 126.92 38.3558 126.802 38.3558C119.85 38.4736 113.841 42.1263 110.424 48.1355L30.6544 192.122C27.3552 198.131 27.473 205.318 31.0079 211.21C34.5427 217.101 40.7876 220.636 47.7395 220.518L212.346 217.69C219.297 217.573 225.307 213.92 228.724 207.911C232.023 201.901 231.905 194.714 228.37 188.823L143.534 47.5464C140.117 41.7728 133.99 38.3558 127.156 38.3558Z" fill="url(#paint4_linear_70_20125)"/>
<path d="M184.774 241.609C182.771 241.609 180.65 241.256 178.529 240.666L22.0528 189.765C15.2188 187.526 10.27 182.106 8.85604 175.036C7.32427 168.084 9.68084 161.015 14.9831 156.184L137.289 46.0141L137.525 46.2497L137.289 46.0141C142.591 41.1831 149.779 39.6513 156.613 41.8901C163.447 44.1288 168.396 49.5489 169.81 56.6186L203.98 217.572C205.512 224.524 203.155 231.594 197.853 236.425C194.2 239.959 189.487 241.609 184.774 241.609ZM150.368 41.7722C145.773 41.7722 141.295 43.4218 137.642 46.721L15.3366 156.773C10.1521 161.368 8.03124 168.202 9.44518 174.918C10.8591 181.634 15.6901 186.937 22.1706 189.058L178.647 239.959C185.245 242.08 192.197 240.666 197.264 235.953C202.448 231.358 204.569 224.524 203.155 217.808L168.985 56.8543C167.571 50.1381 162.74 44.8358 156.259 42.7149C154.374 42.1257 152.371 41.7722 150.368 41.7722Z" fill="url(#paint5_linear_70_20125)"/>
<path d="M151.193 254.924C146.951 254.924 142.827 253.51 139.292 250.917L7.91341 151.824C2.25765 147.464 -0.688059 140.748 0.136739 133.678C0.961537 126.608 5.43902 120.717 12.0374 117.889L163.565 53.5549C170.163 50.727 177.468 51.6696 183.242 55.9115C188.898 60.2711 191.843 66.9873 191.019 74.057L170.988 237.367C170.163 244.437 165.686 250.328 159.087 253.156C156.495 254.334 153.785 254.924 151.193 254.924ZM163.682 53.9084L163.8 54.2619L12.3909 118.478C6.02816 121.188 1.78634 126.844 0.843711 133.678C0.0189133 140.512 2.84679 147.111 8.26689 151.235L139.645 250.328C145.183 254.452 152.253 255.395 158.616 252.685C164.979 249.975 169.22 244.319 170.163 237.485L190.194 74.1749C191.019 67.3408 188.191 60.7424 182.771 56.6184C177.233 52.4944 170.163 51.5518 163.8 54.2619L163.682 53.9084Z" fill="url(#paint6_linear_70_20125)"/>
<path d="M115.373 256.456C108.774 256.456 102.765 253.274 98.9946 247.736L6.97067 111.409C2.9645 105.518 2.49319 98.0945 5.55673 91.7317C8.73809 85.2512 14.8652 81.1272 21.9349 80.6559L186.07 69.2265C193.257 68.7552 199.856 71.9366 203.862 77.9458C207.868 83.8372 208.339 91.2604 205.276 97.6232L133.165 245.498C129.983 251.978 123.856 256.102 116.787 256.574C116.315 256.456 115.844 256.456 115.373 256.456ZM186.188 69.4622V69.8157L22.0527 81.245C15.2187 81.7163 9.20941 85.7225 6.2637 91.9674C3.20016 98.2123 3.7893 105.282 7.55981 111.056L99.5837 247.501C103.472 253.274 109.835 256.338 116.787 255.867C123.621 255.395 129.63 251.389 132.576 245.144L204.687 97.2697C207.75 91.0248 207.161 83.9551 203.39 78.1815C199.502 72.4079 193.139 69.3444 186.188 69.8157V69.4622Z" fill="url(#paint7_linear_70_20125)"/>
<path d="M80.9673 246.44C79.1999 246.44 77.5503 246.204 75.7828 245.733C68.831 243.848 63.6465 238.663 61.7613 231.711L19.2252 72.7609C17.34 65.809 19.2252 58.7393 24.2919 53.6727C29.3585 48.6061 36.4282 46.7208 43.38 48.6061L202.33 91.2599C209.282 93.1452 214.467 98.3296 216.352 105.281C218.237 112.233 216.234 119.303 211.285 124.37L94.871 240.784C91.1005 244.319 86.1517 246.44 80.9673 246.44ZM38.1956 48.4882C33.2468 48.4882 28.4159 50.4913 24.7632 54.144C19.9322 58.9749 18.047 65.9268 19.8144 72.643L62.4682 231.593C64.2357 238.31 69.3023 243.258 76.0185 245.144C82.7347 246.911 89.5687 245.026 94.5175 240.195L210.932 123.781C215.763 118.95 217.648 111.998 215.881 105.281C214.113 98.5653 209.047 93.6165 202.33 91.7312L43.2622 49.1952C41.6126 48.7239 39.8452 48.4882 38.1956 48.4882Z" fill="url(#paint8_linear_70_20125)"/>
<path d="M51.6282 225.585C47.7399 225.585 43.9694 224.406 40.5523 222.168C34.6609 218.161 31.3617 211.563 31.8331 204.376L43.2624 40.2407C43.7337 33.0532 47.8577 26.9261 54.3383 23.8626C60.8188 20.6812 68.1242 21.2704 74.0156 25.2766L210.579 117.3C216.47 121.307 219.769 127.905 219.298 135.093C218.827 142.28 214.703 148.407 208.222 151.471L60.2297 223.582C57.5196 224.878 54.5739 225.585 51.6282 225.585ZM63.1754 22.4487C60.3475 22.4487 57.5196 23.1556 54.8096 24.4518C48.5647 27.5153 44.5585 33.4067 44.0872 40.2407L32.54 204.493C32.0687 211.327 35.1322 217.808 40.9058 221.696C46.6794 225.585 53.7491 226.056 59.994 222.992L207.869 150.882C214.113 147.818 218.12 141.927 218.591 135.093C219.062 128.258 215.999 121.778 210.225 117.89L73.7799 25.7479C70.4807 23.627 66.8281 22.4487 63.1754 22.4487Z" fill="url(#paint9_linear_70_20125)"/>
<path d="M30.6542 196.363C24.5271 196.363 18.7535 193.535 14.983 188.469C10.6234 182.813 9.79855 175.39 12.6264 168.791L76.9607 17.2643C79.7886 10.6659 85.68 6.18842 92.7497 5.36362C99.8194 4.53882 106.653 7.3667 110.895 13.1403L209.989 144.519C214.348 150.175 215.173 157.598 212.345 164.196C209.518 170.795 203.626 175.272 196.556 176.097L33.1286 196.245C32.3038 196.245 31.479 196.363 30.6542 196.363ZM95.1063 5.95276C94.2815 5.95276 93.4567 5.95276 92.7497 6.07059C85.9156 6.89538 80.1421 11.255 77.5498 17.6178L13.0977 169.145C10.3877 175.508 11.2125 182.577 15.4543 188.115C19.5783 193.653 26.1767 196.363 33.0107 195.539L196.321 175.508C203.155 174.683 208.928 170.323 211.521 163.961C214.231 157.598 213.406 150.528 209.164 144.99L110.188 13.6116C106.536 8.66281 100.998 5.95276 95.1063 5.95276Z" fill="url(#paint10_linear_70_20125)"/>
<path d="M181.474 196.128C180.061 196.128 178.647 196.01 177.233 195.656L16.2792 161.486C9.32731 159.954 3.78938 155.006 1.55064 148.289C-0.688096 141.455 0.843673 134.268 5.67463 128.966L115.844 6.54195C120.675 1.23967 127.627 -0.999066 134.697 0.414873C141.649 1.94664 147.186 6.89543 149.425 13.6116L200.327 170.088C202.566 176.922 201.034 184.109 196.203 189.411C192.315 193.771 187.012 196.128 181.474 196.128ZM130.455 0.768357C125.153 0.768357 120.086 3.0071 116.315 7.13109L6.26378 129.319C1.66847 134.503 0.136701 141.455 2.25761 147.936C4.37852 154.534 9.68079 159.247 16.397 160.661L177.35 194.832C184.067 196.246 190.901 194.007 195.496 188.94C200.091 183.756 201.623 176.804 199.502 170.323L148.718 13.9651C146.597 7.36674 141.295 2.65361 134.579 1.23967C133.165 0.886187 131.751 0.768357 130.455 0.768357Z" fill="url(#paint11_linear_70_20125)"/>
<path d="M162.975 210.856C159.44 210.856 155.906 209.913 152.842 208.028L11.6837 123.191C5.55659 119.539 2.02175 113.058 2.13957 105.871C2.2574 98.683 6.02791 92.4381 12.2728 88.9033L156.259 9.1335C162.504 5.71648 169.927 5.83431 176.054 9.48698C182.181 13.1397 185.716 19.6202 185.598 26.8077L182.77 191.414C182.653 198.601 178.882 204.846 172.637 208.381C169.574 209.913 166.274 210.856 162.975 210.856ZM165.921 7.36607C162.74 7.36607 159.558 8.19087 156.613 9.84047L12.6263 89.4924C6.61705 92.7916 2.96437 98.9187 2.84654 105.871C2.72871 112.822 6.14574 119.067 12.155 122.602L153.195 207.321C159.087 210.856 166.274 210.973 172.284 207.674C178.293 204.375 181.946 198.248 182.063 191.296H182.417H182.063L184.891 26.6899C185.009 19.738 181.592 13.4931 175.583 9.9583C172.637 8.19087 169.22 7.36607 165.921 7.36607Z" fill="url(#paint12_linear_70_20125)"/>
<path d="M140.706 218.634C134.933 218.634 129.513 216.159 125.624 211.564L19.9323 85.4877C15.337 80.0676 14.0409 72.7622 16.5153 66.046C18.9897 59.3298 24.6455 54.6167 31.7152 53.3205L193.611 24.6883C200.681 23.3922 207.633 25.9844 212.228 31.4045C216.823 36.8246 218.12 44.1299 215.645 50.8462L159.441 205.555C156.967 212.271 151.311 216.984 144.241 218.28C143.063 218.516 141.885 218.634 140.706 218.634ZM197.146 25.0418C195.968 25.0418 194.907 25.1596 193.729 25.3952L31.7152 54.0275C24.8811 55.2058 19.461 59.8011 17.1045 66.2817C14.7479 72.7622 15.9262 79.8319 20.4037 85.1342L126.213 211.21C130.691 216.513 137.407 218.987 144.123 217.691C150.957 216.513 156.378 211.917 158.734 205.437L159.088 205.555L158.734 205.437L215.056 50.8462C217.413 44.3656 216.234 37.2959 211.757 31.9936C207.986 27.5162 202.802 25.0418 197.146 25.0418Z" fill="url(#paint13_linear_70_20125)"/>
<path d="M117.376 218.869C116.315 218.869 115.255 218.751 114.194 218.633C107.125 217.573 101.351 212.86 98.8767 206.143L39.8447 52.4952C37.2525 45.779 38.4307 38.4736 42.9082 32.9357C47.3857 27.3978 54.3376 24.6877 61.4073 25.866L224.01 51.5526C231.08 52.613 236.854 57.3262 239.328 64.0424C241.92 70.7586 240.742 78.0639 236.264 83.6019L132.693 211.446L132.458 211.21L132.693 211.446C128.805 216.159 123.267 218.869 117.376 218.869ZM58.2259 26.3373C52.5701 26.3373 47.15 28.8117 43.4974 33.407C39.1377 38.8271 38.0773 45.779 40.5517 52.2595L99.5836 205.908C102.058 212.388 107.596 216.866 114.43 217.926C121.264 218.987 127.862 216.394 132.222 211.092L235.675 83.1306C240.035 77.7105 241.095 70.7586 238.621 64.278C236.147 57.7975 230.609 53.32 223.775 52.2595L61.2894 26.573C60.229 26.3373 59.2864 26.3373 58.2259 26.3373Z" fill="url(#paint14_linear_70_20125)"/>
<path d="M94.9889 211.446C91.8075 211.446 88.6261 210.621 85.6804 209.089C79.3177 205.79 75.4294 199.427 75.1937 192.357L69.4201 27.7512C69.1845 20.5637 72.6015 14.0831 78.7286 10.3126C84.7378 6.5421 92.161 6.30644 98.5237 9.60564L243.806 86.901C250.169 90.2002 254.057 96.5629 254.293 103.633C254.528 110.82 251.111 117.301 244.984 121.071L105.476 208.264C102.176 210.385 98.6416 211.446 94.9889 211.446ZM89.2153 7.95604C85.6804 7.95604 82.2634 8.89867 79.0821 10.9018C73.1906 14.5544 69.8914 20.9172 70.1271 27.7512L75.9007 192.24C76.1363 199.191 79.9068 205.201 86.0339 208.382C92.161 211.681 99.2307 211.328 105.122 207.675L105.358 207.911L105.122 207.675L244.631 120.482C250.522 116.829 253.821 110.467 253.586 103.633C253.35 96.6808 249.58 90.6715 243.453 87.4902L98.1702 10.3126C95.3424 8.78084 92.2788 7.95604 89.2153 7.95604Z" fill="url(#paint15_linear_70_20125)"/>
<path d="M76.2537 197.07C70.8336 197.07 65.6492 194.832 61.8787 190.825C57.0477 185.641 55.3981 178.453 57.4012 171.502L105.475 14.0829C107.596 7.24889 113.016 2.18227 119.968 0.650499C126.92 -0.999098 133.99 1.23964 138.821 6.42409L251.111 126.727C255.942 131.911 257.592 139.099 255.588 146.051C253.468 152.885 248.047 157.951 241.096 159.483L80.7312 196.481L80.6134 196.128L80.7312 196.481C79.1994 196.835 77.7855 197.07 76.2537 197.07ZM124.563 0.768325C123.149 0.768325 121.618 0.886155 120.204 1.23964C113.487 2.77141 108.303 7.60237 106.182 14.3186L58.1082 171.737C56.1051 178.336 57.6369 185.287 62.35 190.354C67.0631 195.421 73.8972 197.542 80.6134 195.892L240.978 158.894C247.694 157.362 252.878 152.531 254.999 145.815C257.002 139.217 255.353 132.265 250.757 127.198L138.349 6.8954C134.697 2.88924 129.748 0.768325 124.563 0.768325Z" fill="url(#paint16_linear_70_20125)"/>
<path d="M227.074 194.596C226.367 194.596 225.66 194.596 224.953 194.478L61.2899 177.275C54.2202 176.568 48.211 172.208 45.2652 165.61C42.3195 159.129 43.1443 151.706 47.3862 145.933L144.123 12.7866C148.365 7.013 155.081 3.94946 162.151 4.77426C169.221 5.48123 175.23 9.84088 178.176 16.4393L245.102 166.788C248.048 173.269 247.223 180.692 242.981 186.465C239.211 191.65 233.437 194.596 227.074 194.596ZM160.03 5.3634C153.903 5.3634 148.247 8.19128 144.594 13.2579L47.8575 146.404C43.8513 151.942 43.0265 159.129 45.8544 165.374C48.6823 171.737 54.4559 175.861 61.2899 176.568L225.071 193.889C231.905 194.596 238.504 191.65 242.51 186.112C246.516 180.574 247.341 173.387 244.513 167.142L177.469 16.7927C174.641 10.43 168.867 6.30603 162.033 5.59906C161.326 5.48123 160.737 5.3634 160.03 5.3634Z" fill="url(#paint17_linear_70_20125)"/>
<path d="M206.69 224.289C203.862 224.289 201.034 223.699 198.324 222.403L49.1532 152.885C42.6727 149.821 38.4309 143.812 37.8417 136.742C37.2526 129.672 40.3161 122.956 46.2075 118.832L181.003 24.4517C186.895 20.3277 194.2 19.7385 200.68 22.6843C207.161 25.7478 211.403 31.757 211.992 38.8267L226.367 202.726C226.956 209.796 223.893 216.512 218.001 220.636C214.584 222.992 210.578 224.289 206.69 224.289ZM192.197 21.3881C188.426 21.3881 184.538 22.5664 181.239 24.923L46.4432 119.186C40.7874 123.192 37.7239 129.672 38.4309 136.506C39.02 143.34 43.144 149.232 49.3889 152.178L198.56 221.696C204.804 224.642 211.874 223.935 217.53 220.047C223.186 216.041 226.249 209.678 225.542 202.726L211.285 38.8267C210.696 31.9927 206.572 26.1013 200.327 23.1556C197.735 21.9773 194.907 21.3881 192.197 21.3881Z" fill="url(#paint18_linear_70_20125)"/>
<path d="M177.586 245.497C172.519 245.497 167.688 243.611 163.918 239.959L45.5004 125.665C40.316 120.716 38.3129 113.647 40.0803 106.695C41.8478 99.743 46.9144 94.4407 53.8663 92.4377L212.11 47.0738C218.944 45.0707 226.131 46.8381 231.316 51.9047C236.5 56.8535 238.503 63.9232 236.736 70.8751L196.91 230.532C195.142 237.484 190.076 242.787 183.124 244.79C181.239 245.261 179.471 245.497 177.586 245.497ZM217.53 46.9559C215.762 46.9559 213.995 47.1916 212.228 47.6629L53.9841 93.0268C47.3857 94.9121 42.4369 100.097 40.6695 106.813C39.0199 113.529 41.023 120.363 45.9717 125.194L164.389 239.487C169.338 244.318 176.29 245.968 182.888 244.083C189.487 242.197 194.435 237.013 196.203 230.297L236.029 70.6394C237.678 63.9232 235.675 57.0892 230.727 52.2582C227.074 48.8412 222.479 46.9559 217.53 46.9559Z" fill="url(#paint19_linear_70_20125)"/>
<path d="M143.416 256.22C143.062 256.22 142.709 256.22 142.355 256.22C135.168 255.866 129.041 251.86 125.742 245.497L51.0384 98.801C47.7392 92.4382 48.2105 85.0151 52.0989 79.0058C55.9872 72.9966 62.5856 69.6974 69.7731 70.0509L234.144 78.6523C241.331 79.0058 247.458 83.012 250.757 89.3747C254.057 95.7374 253.585 103.161 249.697 109.17L160.03 247.147C156.259 252.92 150.132 256.22 143.416 256.22ZM51.6276 98.5653L126.331 245.144C129.512 251.271 135.403 255.159 142.355 255.513C149.307 255.866 155.552 252.685 159.323 246.793L248.99 108.816C252.761 103.043 253.114 95.8553 249.933 89.7282C246.751 83.6011 240.86 79.7128 233.908 79.3593L69.5375 70.7578C62.7034 70.4043 56.3407 73.5857 52.5702 79.4771C48.9175 85.2507 48.564 92.3204 51.6276 98.5653Z" fill="url(#paint20_linear_70_20125)"/>
<path d="M107.478 255.277C105.004 255.277 102.412 254.805 100.055 253.863C93.4567 251.153 88.8614 245.379 87.9188 238.309L64.9423 75.235C63.9997 68.1653 66.7097 61.3313 72.3655 56.8538C78.0212 52.4942 85.3266 51.4337 91.925 54.1438L244.513 115.768C251.111 118.478 255.706 124.252 256.649 131.321C257.592 138.391 254.882 145.225 249.226 149.703L119.497 251.035C116.08 253.863 111.838 255.277 107.478 255.277ZM65.6493 75.1172L88.508 238.074C89.4506 244.908 93.8102 250.564 100.291 253.156C106.654 255.748 113.723 254.805 119.143 250.446L248.872 149.113C254.292 144.872 257.002 138.273 256.06 131.439C255.117 124.605 250.758 118.949 244.277 116.357L91.6893 54.8507C85.3266 52.2585 78.2569 53.2011 72.8368 57.5608C67.4167 61.6848 64.7066 68.2831 65.6493 75.1172Z" fill="url(#paint21_linear_70_20125)"/>
<path d="M73.7796 242.67C69.0664 242.67 64.589 241.02 60.9363 237.839C55.5162 233.126 53.1596 226.174 54.4557 219.104L85.9159 57.5615C87.3298 50.4918 92.1608 44.9539 98.877 42.5973C105.593 40.2407 112.899 41.6547 118.319 46.3678L242.51 154.299C247.93 159.012 250.286 165.964 248.99 173.033C247.576 180.103 242.745 185.641 236.029 187.997L80.3779 241.609C78.1392 242.316 75.9005 242.67 73.7796 242.67ZM86.1515 57.5615L86.505 57.6793L55.0449 219.222C53.7487 226.056 56.1053 232.772 61.2898 237.25C66.4742 241.727 73.5439 243.141 80.0245 240.902L235.676 187.29C242.156 185.052 246.869 179.632 248.165 172.915C249.462 166.081 247.105 159.365 241.921 154.888L117.73 46.8391C112.545 42.3616 105.475 40.9477 98.9948 43.1864C92.5143 45.4252 87.8011 50.8453 86.505 57.5615H86.1515Z" fill="url(#paint22_linear_70_20125)"/>
<path d="M210.696 219.693H46.2074C39.0199 219.693 32.6572 216.041 29.1223 209.796C25.5875 203.551 25.5875 196.245 29.1223 190.001L111.366 47.4283C114.901 41.1834 121.382 37.5308 128.452 37.5308C135.639 37.5308 142.002 41.1834 145.537 47.4283L227.781 190.001C231.316 196.245 231.316 203.551 227.781 209.796C224.246 216.041 217.883 219.693 210.696 219.693ZM111.956 47.8996L29.5936 190.354C26.1766 196.363 26.1766 203.433 29.5936 209.442C33.0107 215.452 39.2556 218.986 46.0896 218.986H210.696C217.648 218.986 223.775 215.452 227.192 209.442C230.609 203.433 230.609 196.363 227.192 190.354L144.948 47.7818C141.531 41.7726 135.286 38.2377 128.452 38.2377C121.5 38.3556 115.373 41.8904 111.956 47.8996Z" fill="url(#paint23_linear_70_20125)"/>
</g>
<defs>
<linearGradient id="paint0_linear_70_20125" x1="39.213" y1="144.697" x2="236.173" y2="144.697" gradientUnits="userSpaceOnUse">
<stop stop-color="#83A4D4"/>
<stop offset="0.9543" stop-color="#B4F7FD"/>
<stop offset="0.9994" stop-color="#B6FBFF"/>
</linearGradient>
<linearGradient id="paint1_linear_70_20125" x1="48.1983" y1="163.559" x2="252.282" y2="163.559" gradientUnits="userSpaceOnUse">
<stop stop-color="#83A4D4"/>
<stop offset="0.9543" stop-color="#B4F7FD"/>
<stop offset="0.9994" stop-color="#B6FBFF"/>
</linearGradient>
<linearGradient id="paint2_linear_70_20125" x1="63.8085" y1="154.559" x2="257.016" y2="154.559" gradientUnits="userSpaceOnUse">
<stop stop-color="#83A4D4"/>
<stop offset="0.9543" stop-color="#B4F7FD"/>
<stop offset="0.9994" stop-color="#B6FBFF"/>
</linearGradient>
<linearGradient id="paint3_linear_70_20125" x1="55.703" y1="142.738" x2="249.919" y2="142.738" gradientUnits="userSpaceOnUse">
<stop stop-color="#83A4D4"/>
<stop offset="0.9543" stop-color="#B4F7FD"/>
<stop offset="0.9994" stop-color="#B6FBFF"/>
</linearGradient>
<linearGradient id="paint4_linear_70_20125" x1="27.6018" y1="129.385" x2="231.761" y2="129.385" gradientUnits="userSpaceOnUse">
<stop stop-color="#83A4D4"/>
<stop offset="0.9543" stop-color="#B4F7FD"/>
<stop offset="0.9994" stop-color="#B6FBFF"/>
</linearGradient>
<linearGradient id="paint5_linear_70_20125" x1="8.36976" y1="141.38" x2="204.463" y2="141.38" gradientUnits="userSpaceOnUse">
<stop stop-color="#83A4D4"/>
<stop offset="0.9543" stop-color="#B4F7FD"/>
<stop offset="0.9994" stop-color="#B6FBFF"/>
</linearGradient>
<linearGradient id="paint6_linear_70_20125" x1="0.0541414" y1="153.427" x2="191.103" y2="153.427" gradientUnits="userSpaceOnUse">
<stop stop-color="#83A4D4"/>
<stop offset="0.9543" stop-color="#B4F7FD"/>
<stop offset="0.9994" stop-color="#B6FBFF"/>
</linearGradient>
<linearGradient id="paint7_linear_70_20125" x1="3.53986" y1="162.776" x2="207.321" y2="162.776" gradientUnits="userSpaceOnUse">
<stop stop-color="#83A4D4"/>
<stop offset="0.9543" stop-color="#B4F7FD"/>
<stop offset="0.9994" stop-color="#B6FBFF"/>
</linearGradient>
<linearGradient id="paint8_linear_70_20125" x1="18.5144" y1="147.11" x2="217.064" y2="147.11" gradientUnits="userSpaceOnUse">
<stop stop-color="#83A4D4"/>
<stop offset="0.9543" stop-color="#B4F7FD"/>
<stop offset="0.9994" stop-color="#B6FBFF"/>
</linearGradient>
<linearGradient id="paint9_linear_70_20125" x1="31.8333" y1="123.695" x2="219.304" y2="123.695" gradientUnits="userSpaceOnUse">
<stop stop-color="#83A4D4"/>
<stop offset="0.9543" stop-color="#B4F7FD"/>
<stop offset="0.9994" stop-color="#B6FBFF"/>
</linearGradient>
<linearGradient id="paint10_linear_70_20125" x1="10.8856" y1="100.822" x2="213.837" y2="100.822" gradientUnits="userSpaceOnUse">
<stop stop-color="#83A4D4"/>
<stop offset="0.9543" stop-color="#B4F7FD"/>
<stop offset="0.9994" stop-color="#B6FBFF"/>
</linearGradient>
<linearGradient id="paint11_linear_70_20125" x1="0.622037" y1="98.0907" x2="201.192" y2="98.0907" gradientUnits="userSpaceOnUse">
<stop stop-color="#83A4D4"/>
<stop offset="0.9543" stop-color="#B4F7FD"/>
<stop offset="0.9994" stop-color="#B6FBFF"/>
</linearGradient>
<linearGradient id="paint12_linear_70_20125" x1="2.14511" y1="108.719" x2="185.632" y2="108.719" gradientUnits="userSpaceOnUse">
<stop stop-color="#83A4D4"/>
<stop offset="0.9543" stop-color="#B4F7FD"/>
<stop offset="0.9994" stop-color="#B6FBFF"/>
</linearGradient>
<linearGradient id="paint13_linear_70_20125" x1="15.2277" y1="121.523" x2="216.899" y2="121.523" gradientUnits="userSpaceOnUse">
<stop stop-color="#83A4D4"/>
<stop offset="0.9543" stop-color="#B4F7FD"/>
<stop offset="0.9994" stop-color="#B6FBFF"/>
</linearGradient>
<linearGradient id="paint14_linear_70_20125" x1="38.5115" y1="122.23" x2="240.66" y2="122.23" gradientUnits="userSpaceOnUse">
<stop stop-color="#83A4D4"/>
<stop offset="0.9543" stop-color="#B4F7FD"/>
<stop offset="0.9994" stop-color="#B6FBFF"/>
</linearGradient>
<linearGradient id="paint15_linear_70_20125" x1="69.4645" y1="109.351" x2="254.324" y2="109.351" gradientUnits="userSpaceOnUse">
<stop stop-color="#83A4D4"/>
<stop offset="0.9543" stop-color="#B4F7FD"/>
<stop offset="0.9994" stop-color="#B6FBFF"/>
</linearGradient>
<linearGradient id="paint16_linear_70_20125" x1="56.5248" y1="98.5756" x2="256.471" y2="98.5756" gradientUnits="userSpaceOnUse">
<stop stop-color="#83A4D4"/>
<stop offset="0.9543" stop-color="#B4F7FD"/>
<stop offset="0.9994" stop-color="#B6FBFF"/>
</linearGradient>
<linearGradient id="paint17_linear_70_20125" x1="43.5333" y1="99.681" x2="246.812" y2="99.681" gradientUnits="userSpaceOnUse">
<stop stop-color="#83A4D4"/>
<stop offset="0.9543" stop-color="#B4F7FD"/>
<stop offset="0.9994" stop-color="#B6FBFF"/>
</linearGradient>
<linearGradient id="paint18_linear_70_20125" x1="37.6691" y1="122.455" x2="226.378" y2="122.455" gradientUnits="userSpaceOnUse">
<stop stop-color="#83A4D4"/>
<stop offset="0.9543" stop-color="#B4F7FD"/>
<stop offset="0.9994" stop-color="#B6FBFF"/>
</linearGradient>
<linearGradient id="paint19_linear_70_20125" x1="39.5014" y1="145.905" x2="237.281" y2="145.905" gradientUnits="userSpaceOnUse">
<stop stop-color="#83A4D4"/>
<stop offset="0.9543" stop-color="#B4F7FD"/>
<stop offset="0.9994" stop-color="#B6FBFF"/>
</linearGradient>
<linearGradient id="paint20_linear_70_20125" x1="48.8668" y1="163.172" x2="252.825" y2="163.172" gradientUnits="userSpaceOnUse">
<stop stop-color="#83A4D4"/>
<stop offset="0.9543" stop-color="#B4F7FD"/>
<stop offset="0.9994" stop-color="#B6FBFF"/>
</linearGradient>
<linearGradient id="paint21_linear_70_20125" x1="64.7832" y1="153.996" x2="256.935" y2="153.996" gradientUnits="userSpaceOnUse">
<stop stop-color="#83A4D4"/>
<stop offset="0.9543" stop-color="#B4F7FD"/>
<stop offset="0.9994" stop-color="#B6FBFF"/>
</linearGradient>
<linearGradient id="paint22_linear_70_20125" x1="54.0491" y1="142.061" x2="249.228" y2="142.061" gradientUnits="userSpaceOnUse">
<stop stop-color="#83A4D4"/>
<stop offset="0.9543" stop-color="#B4F7FD"/>
<stop offset="0.9994" stop-color="#B6FBFF"/>
</linearGradient>
<linearGradient id="paint23_linear_70_20125" x1="26.3454" y1="128.666" x2="230.53" y2="128.666" gradientUnits="userSpaceOnUse">
<stop stop-color="#83A4D4"/>
<stop offset="0.9543" stop-color="#B4F7FD"/>
<stop offset="0.9994" stop-color="#B6FBFF"/>
</linearGradient>
</defs>
</svg>
