<svg width="295" height="302" viewBox="0 0 295 302" fill="none" xmlns="http://www.w3.org/2000/svg">
<g opacity="0.5">
<path d="M77.7749 230.193C72.6319 230.193 68.1984 228.952 65.0062 226.469C58.9765 221.681 57.203 212.813 59.6858 200.577V200.399L132.929 148.792C138.072 145.068 143.57 139.925 147.649 134.25L188.615 80.1597C196.773 69.519 208.478 60.6518 215.394 60.1198C217.168 59.9425 218.586 60.4745 219.473 61.3612C227.808 69.519 226.035 87.0762 215.04 109.776C193.581 153.58 143.392 204.478 103.135 223.099C93.5586 227.888 84.6913 230.193 77.7749 230.193ZM60.9272 201.109C58.6217 212.636 60.2179 220.971 65.7156 225.405C72.8094 231.08 85.9327 229.838 102.78 222.213C142.86 203.591 192.694 153.048 213.976 109.599C224.794 87.4308 226.567 70.4058 218.764 62.6026C218.054 61.8932 216.99 61.7159 215.572 61.7159C209.01 62.2479 197.66 70.7605 189.857 81.2238L148.89 135.314C144.634 140.989 139.136 146.309 133.816 150.033L60.9272 201.109Z" fill="url(#paint0_linear_70_19308)"/>
<path d="M74.0505 231.08C67.8434 231.08 62.8777 229.484 59.3308 226.292C53.1237 220.794 51.8824 210.685 55.6066 197.207V197.03L133.106 148.26C138.604 144.713 144.456 139.57 149.067 134.072L194.645 79.4503C203.689 68.6323 216.103 60.2971 223.02 60.2971C224.793 60.2971 226.212 60.8292 227.099 62.0706C234.547 71.6472 231.355 90.623 218.409 114.032C193.226 159.433 138.781 209.621 97.1053 226.114C88.4154 229.306 80.6122 231.08 74.0505 231.08ZM56.8482 197.739C53.3013 210.508 54.5425 220.085 60.2175 225.227C66.9566 231.257 79.9028 231.08 96.5732 224.518C138.072 208.202 192.162 158.191 217.167 112.968C229.936 89.9136 233.128 71.4698 226.035 62.4252C225.325 61.5385 224.439 61.1838 223.02 61.1838C216.458 61.1838 204.399 69.3417 195.709 79.805L150.131 134.427L149.599 134.072L150.131 134.427C145.343 140.102 139.491 145.422 133.815 148.969L56.8482 197.739Z" fill="url(#paint1_linear_70_19308)"/>
<path d="M70.6809 231.612C63.4098 231.612 57.5574 229.661 53.8332 225.76C47.4488 219.198 46.7395 208.025 51.8825 193.128V192.951L133.284 147.373C139.136 144.181 145.343 139.038 150.486 133.363L200.497 78.5636C210.429 67.7456 223.552 59.7651 230.291 60.4744C232.064 60.6518 233.483 61.3612 234.193 62.7799C240.754 73.7753 235.966 93.9925 221.069 118.111C192.162 164.93 133.461 214.232 90.3661 227.888C83.2723 230.37 76.5333 231.612 70.6809 231.612ZM53.1238 193.837C48.3355 208.025 48.8676 218.666 54.7199 224.873C61.1043 231.435 73.8731 232.144 90.3661 226.824C133.106 213.168 191.453 164.044 220.36 117.579C235.079 93.8152 239.868 74.13 233.483 63.6666C232.951 62.7799 231.887 62.2479 230.468 62.0705C223.907 61.3612 211.315 69.1643 201.739 79.6277L151.727 134.427L151.195 133.895L151.727 134.427C146.585 140.102 140.2 145.245 134.17 148.615L53.1238 193.837Z" fill="url(#paint2_linear_70_19308)"/>
<path d="M68.0207 231.967C59.1535 231.967 52.5918 229.484 48.3355 224.695C41.7738 217.247 41.9511 204.656 48.5128 188.517L48.6902 188.34L133.815 146.664C139.845 143.649 146.584 138.861 152.082 133.186L206.704 78.5636C217.522 67.7456 231 60.4745 237.917 61.8932C239.868 62.2479 241.109 63.312 241.818 64.7308C247.493 77.3222 240.932 98.6036 223.907 123.254C190.92 171.137 128.318 219.02 84.159 229.838C78.1293 231.257 72.809 231.967 68.0207 231.967ZM49.5768 189.049C43.1924 204.656 43.1925 216.538 49.2222 223.631C55.4293 230.725 67.3114 232.321 83.8044 228.242C127.609 217.424 190.034 169.896 222.665 122.19C239.336 97.8942 245.897 76.9675 240.4 64.9081C239.868 63.844 238.981 63.1347 237.385 62.78C231 61.5386 217.699 68.8097 207.413 79.0957L152.791 133.718L152.259 133.186L152.791 133.718C147.116 139.393 140.2 144.358 134.17 147.373L49.5768 189.049Z" fill="url(#paint3_linear_70_19308)"/>
<path d="M65.7154 231.967C55.0747 231.967 47.2715 228.952 42.8379 222.922C36.2761 214.232 37.1629 200.399 45.498 182.842L45.6754 182.665L134.17 145.6C140.555 142.94 147.471 138.329 153.678 132.831L154.21 133.363L153.678 132.831L212.911 78.9184C224.439 68.455 238.271 61.8933 245.188 63.6667C247.139 64.1988 248.557 65.4402 249.089 67.2136C253.523 81.2239 245.188 103.747 226.212 128.93C189.147 177.699 122.643 223.454 77.7747 231.08C73.341 231.612 69.4396 231.967 65.7154 231.967ZM46.5621 183.729C38.7589 200.399 37.6949 214.055 43.7246 222.213C49.3996 229.839 61.1044 232.321 77.2428 229.661C121.756 222.213 188.083 176.458 224.971 128.043C243.769 103.215 252.104 81.2238 247.671 67.5683C247.316 66.1496 246.252 65.2628 244.656 64.9082C238.271 63.1347 224.616 69.6965 213.62 79.8051L154.388 133.718C148.181 139.393 140.909 144.181 134.525 146.841L46.5621 183.729Z" fill="url(#paint4_linear_70_19308)"/>
<path d="M64.4737 231.967C51.7049 231.967 42.4831 228.065 37.5174 220.794C31.133 211.04 33.0838 195.256 43.015 176.812L43.1923 176.635L134.525 144.89C141.087 142.585 148.535 138.329 155.097 132.831L218.763 79.9824C231 69.8737 245.188 64.0214 252.104 66.5042C254.232 67.2136 255.474 68.6323 255.828 70.7605C259.021 86.3668 248.735 109.954 227.631 135.314C186.487 184.616 116.258 227.888 70.858 231.789C68.5526 231.789 66.4245 231.967 64.4737 231.967ZM44.0791 177.522C34.3251 195.611 32.3744 210.685 38.5814 220.085C43.9018 228.242 55.0744 231.789 70.6807 230.371C115.726 226.469 185.777 183.374 226.567 134.25C247.493 109.244 257.602 86.0121 254.587 70.9378C254.232 69.3417 253.346 68.2776 251.572 67.7456C245.188 65.4401 231.355 71.2925 219.473 81.0464L155.806 133.895C149.244 139.393 141.619 143.826 134.88 146.132L44.0791 177.522Z" fill="url(#paint5_linear_70_19308)"/>
<path d="M63.9417 231.789C48.3354 231.789 37.34 227.001 32.197 217.956C25.8126 206.784 29.0048 189.581 41.0642 169.896L41.2415 169.719L135.057 144.004C141.796 142.23 149.599 138.151 156.515 132.831L224.616 81.5785C237.562 71.8246 251.927 67.0363 258.666 69.8738C260.794 70.7605 262.213 72.534 262.39 74.8394C264.163 92.0418 251.927 116.515 228.695 141.876C183.472 191.532 109.519 231.789 63.9417 231.789ZM42.1282 170.605C30.4235 189.936 27.4086 206.429 33.4383 217.247C38.2266 225.937 48.8674 230.371 63.9417 230.371C109.165 230.371 182.585 190.291 227.631 141.166C250.685 115.983 262.922 91.8645 260.971 75.0168C260.794 73.066 259.73 71.8246 257.956 71.1152C251.572 68.455 237.562 73.2433 225.148 82.6426L157.048 133.895L156.693 133.363L157.048 133.895C149.954 139.215 141.973 143.294 135.234 145.245L42.1282 170.605Z" fill="url(#paint6_linear_70_19308)"/>
<path d="M64.8287 231.612C62.1685 231.612 59.6856 231.435 57.2028 231.257C42.3059 229.838 31.8426 223.986 27.4089 214.232C21.3792 201.463 25.8128 182.842 40.0004 161.916L40.1778 161.738L135.766 142.94C142.506 141.521 150.663 137.974 158.112 133.008L230.468 84.0613C243.769 75.0167 258.311 70.9378 265.05 74.4847C267.356 75.7261 268.598 77.6769 268.775 80.5144C269.13 99.3129 254.765 124.496 229.404 149.856C182.231 196.32 110.761 231.612 64.8287 231.612ZM40.7098 162.98C27.0543 183.374 22.6206 201.463 28.473 213.7C32.9066 222.922 42.8379 228.42 57.2028 229.838C102.248 234.095 178.861 197.739 227.986 148.792C253.169 123.609 267.356 98.7809 267.001 80.3371C267.001 78.2089 265.937 76.4355 264.164 75.5488C257.957 72.3566 243.592 76.4355 230.823 85.1254L158.466 134.072L158.112 133.54L158.466 134.072C151.018 139.215 142.683 142.94 135.589 144.181L40.7098 162.98Z" fill="url(#paint7_linear_70_19308)"/>
<path d="M66.7797 231.612C60.9273 231.612 55.4296 231.08 50.2866 230.193C35.9217 227.356 26.3452 220.439 22.4436 210.153C16.9459 195.788 22.7982 175.748 39.1139 153.758L39.2913 153.58L136.299 142.23C143.215 141.343 151.55 138.329 159.353 133.54L235.612 87.4308C249.444 79.0956 263.809 76.0807 270.549 79.9823C273.031 81.4011 274.273 83.8839 274.095 87.0761C272.854 107.471 256.361 133.363 228.873 158.369C181.344 201.286 112.889 231.612 66.7797 231.612ZM40.0006 154.644C24.217 176.103 18.3646 195.611 23.6849 209.444C27.4091 219.375 36.8085 225.937 50.6414 228.774C95.1549 237.642 174.605 205.542 227.808 157.127C255.119 132.299 271.435 106.584 272.677 86.7214C272.854 84.0612 271.79 82.1104 269.839 80.869C263.632 77.1448 249.445 80.1596 236.321 88.3175L160.063 134.427C152.082 139.215 143.57 142.408 136.476 143.294L40.0006 154.644Z" fill="url(#paint8_linear_70_19308)"/>
<path d="M70.3266 231.789C60.3954 231.789 51.5281 230.548 43.725 228.065C30.0694 223.809 21.2022 215.651 18.01 204.656C13.2217 188.34 20.6702 167.059 39.2914 144.359L39.4687 144.181L137.008 140.989C143.925 140.812 152.614 138.151 160.772 133.718L240.755 90.9778C254.765 83.5294 269.307 81.4012 275.869 86.0122C278.529 87.7856 279.77 90.6232 279.238 94.17C276.223 115.983 257.425 142.585 227.986 167.059C180.458 206.252 116.082 231.789 70.3266 231.789ZM40.0007 145.423C21.9115 167.591 14.6404 188.517 19.2513 204.301C22.4435 214.942 30.9561 222.745 44.0796 226.824C87.529 240.657 169.639 213.346 226.744 165.995C256.006 141.698 274.628 115.451 277.642 93.8154C277.997 90.8005 277.11 88.495 274.805 86.8989C268.775 82.6427 254.587 84.7708 241.109 92.0419L161.127 134.782L160.772 134.25L161.127 134.782C152.792 139.216 143.925 141.876 136.831 142.23L40.0007 145.423Z" fill="url(#paint9_linear_70_19308)"/>
<path d="M75.6468 232.499C60.9272 232.499 47.8037 230.193 37.3403 225.405C24.5715 219.553 16.4137 210.153 13.9308 198.449C10.2066 180.359 19.4286 157.482 40.1779 134.427L40.3552 134.25L137.895 140.102C144.811 140.457 153.678 138.506 162.191 134.605L245.543 95.7661C259.73 89.2043 274.095 88.1402 280.48 93.2832C283.317 95.5887 284.381 98.7809 283.495 102.86C278.529 126.269 257.602 153.226 226.035 176.99C179.748 211.395 120.338 232.499 75.6468 232.499ZM40.8872 135.491C20.6699 158.191 11.448 180.359 15.1723 198.094C17.4777 209.444 25.4582 218.488 37.8723 224.163C80.0803 243.317 163.964 221.503 225.148 175.571C256.538 151.984 277.288 125.383 282.076 102.328C282.785 98.7809 281.899 96.1207 279.416 94.17C273.386 89.3817 259.73 90.4457 245.898 96.8301L162.546 135.669C153.856 139.747 144.811 141.876 137.717 141.344L40.8872 135.491Z" fill="url(#paint10_linear_70_19308)"/>
<path d="M82.5634 233.74C62.1688 233.74 44.2569 229.838 31.1334 221.858C19.0739 214.409 11.8028 203.769 10.2067 191C7.72392 170.96 18.8966 147.019 41.774 123.786L41.9515 123.609L138.604 139.215C145.521 140.279 154.388 139.038 163.255 135.491L249.799 101.441C264.164 95.766 277.997 95.766 284.204 101.441C287.219 104.279 288.283 108.003 287.041 112.436C280.125 137.265 256.893 164.398 223.375 187.098C179.216 216.892 125.481 233.74 82.5634 233.74ZM42.6608 124.851C20.3154 147.728 9.32 171.137 11.6255 190.823C13.2216 203.237 20.1381 213.523 31.8428 220.794C72.1 245.445 157.757 229.838 222.666 186.034C256.006 163.512 278.884 136.555 285.8 112.082C286.864 108.18 286.155 104.811 283.495 102.328C277.642 97.0074 264.341 97.0074 250.331 102.505L163.787 136.555C154.742 140.102 145.521 141.521 138.427 140.279L42.6608 124.851Z" fill="url(#paint11_linear_70_19308)"/>
<path d="M91.2531 235.868C64.2967 235.868 40.8873 229.838 25.281 217.424C13.931 208.202 7.7239 196.143 7.19187 182.133C6.48249 160.142 19.606 135.314 44.4342 112.259L44.7889 112.082L139.668 138.151C146.407 139.925 155.452 139.393 164.496 136.378L253.701 107.648C268.066 103.037 281.367 104.101 287.574 110.308C290.766 113.678 291.652 117.934 289.879 123.077C280.834 149.324 255.297 176.635 220.005 197.916C178.861 222.745 131.156 235.868 91.2531 235.868ZM45.1436 113.5C20.8474 136.201 7.72393 160.497 8.4333 182.133C8.96534 195.611 14.9951 207.493 25.9905 216.36C63.9422 246.864 150.486 238.174 219.119 196.675C254.233 175.394 279.593 148.437 288.46 122.545C290.056 118.111 289.347 114.21 286.51 111.195C280.835 105.343 267.711 104.456 254.055 108.89L164.851 137.619C155.452 140.634 146.23 141.166 139.314 139.393L45.1436 113.5Z" fill="url(#paint12_linear_70_19308)"/>
<path d="M101.185 239.061C66.9572 239.061 37.1632 230.016 19.9608 212.104C9.32014 201.109 4.17711 187.276 5.06383 172.024C6.30524 148.26 21.7343 122.723 48.3359 100.2L48.6906 100.022L141.087 137.265C147.649 139.925 156.694 140.102 165.915 137.797L257.248 115.097C271.435 111.55 284.382 113.678 290.234 120.594C293.603 124.496 294.313 129.639 292.007 135.137C280.657 162.625 252.992 189.759 215.749 209.621C178.507 229.129 137.363 239.061 101.185 239.061ZM48.8679 101.441C22.621 123.609 7.54674 148.792 6.48267 172.024C5.7733 186.744 10.7389 200.399 21.0248 211.04C56.139 247.75 143.215 246.332 215.04 208.025C251.927 188.34 279.416 161.561 290.588 134.25C292.717 129.284 292.185 124.673 288.992 121.126C283.495 114.742 271.081 112.791 257.425 116.161L166.093 138.861L165.915 138.152L166.093 138.861C156.516 141.166 147.117 140.989 140.378 138.329L48.8679 101.441Z" fill="url(#paint13_linear_70_19308)"/>
<path d="M111.825 243.494C69.7944 243.494 33.4387 230.548 14.9949 205.72C-10.188 171.67 5.06354 124.141 52.9466 87.4309L53.3014 87.2535L141.974 136.201C148.181 139.57 157.225 140.634 166.624 139.038L259.553 123.254C273.563 120.949 285.623 123.964 291.298 131.412C294.845 136.023 295.199 142.053 292.362 148.083C278.706 176.812 248.735 203.414 209.896 221.503C177.797 236.223 143.392 243.494 111.825 243.494ZM53.4787 88.6723C6.48238 124.851 -8.5919 171.492 16.2363 204.833C31.488 225.582 60.2178 238.528 96.7508 241.366C133.461 244.203 173.541 236.755 209.719 219.907C248.203 202.173 277.997 175.571 291.475 147.196C294.135 141.521 293.78 136.201 290.588 131.944C285.268 125.028 273.386 122.013 260.085 124.319L167.156 140.102L166.979 139.393L167.156 140.102C157.403 141.698 148.181 140.634 141.619 137.087L53.4787 88.6723Z" fill="url(#paint14_linear_70_19308)"/>
<path d="M122.466 249.524C72.6319 249.524 29.1824 231.435 10.7386 198.448C-11.4295 159.255 7.90111 109.244 58.799 73.9526L59.1536 73.598L143.392 135.136C149.245 139.393 158.112 141.521 167.689 140.634V141.344V140.634L261.681 132.299C275.159 131.058 286.864 135.314 292.184 143.294C295.909 148.792 295.908 155.531 292.362 162.093C276.223 191.887 243.947 217.956 203.867 233.74C176.733 244.381 148.713 249.524 122.466 249.524ZM59.1536 75.3714C9.14243 110.131 -9.83334 159.255 11.8027 197.739C25.2809 221.503 52.5919 238.351 88.9475 244.913C125.303 251.474 165.915 247.041 203.157 232.499C243.06 216.892 274.982 191 290.943 161.561C294.312 155.354 294.312 149.147 290.943 144.004C285.977 136.378 274.805 132.476 261.681 133.54L167.689 141.876C157.757 142.762 148.713 140.634 142.505 136.201L59.1536 75.3714Z" fill="url(#paint15_linear_70_19308)"/>
<path d="M132.751 256.795C114.662 256.795 97.1051 254.312 80.612 249.346C44.6111 238.706 18.5416 217.602 7.01418 190.113C-11.607 145.6 11.9799 93.2832 65.7153 59.9424L66.0699 59.5877L144.634 134.072C150.131 139.393 158.821 142.23 168.398 142.23V142.94V142.23L262.745 142.053C275.691 142.053 286.686 147.373 291.475 155.886C295.199 162.448 294.844 170.073 290.411 177.167C271.789 207.848 237.385 233.031 196.063 246.331C175.314 253.425 153.678 256.795 132.751 256.795ZM65.8926 61.3612C13.0439 94.3472 -10.1883 145.777 8.07821 189.581C19.4283 216.715 45.1433 237.464 80.7896 248.105C116.436 258.746 157.225 257.859 195.709 245.445C236.675 232.321 270.903 207.316 289.347 176.812C293.426 170.073 293.78 162.98 290.411 156.772C285.8 148.615 275.336 143.649 262.745 143.649L168.398 143.826C158.466 143.826 149.599 140.634 143.747 135.314L65.8926 61.3612Z" fill="url(#paint16_linear_70_19308)"/>
<path d="M141.087 265.662C116.968 265.662 93.3813 261.051 72.0999 251.829C37.1631 236.755 13.0442 211.572 3.99961 180.714C-10.5426 130.703 17.4778 76.4355 73.8734 45.5775L74.4053 45.2228L146.053 133.363C151.018 139.57 159.531 143.649 168.93 144.536L262.923 153.403C275.514 154.644 285.623 160.851 290.056 170.073C293.603 177.699 292.716 186.389 287.574 194.015C266.292 225.405 229.936 249.524 187.551 259.987C172.122 263.711 156.516 265.662 141.087 265.662ZM74.0507 46.9963C18.5419 77.6769 -9.12387 131.235 5.24104 180.359C14.1083 210.863 38.0497 235.691 72.6318 250.588C107.214 265.485 148.003 268.322 187.374 258.568C229.405 248.282 265.583 224.341 286.687 193.128C291.652 185.857 292.362 177.877 288.992 170.605C284.736 161.738 275.159 155.708 262.923 154.644L168.93 145.777C158.999 144.89 150.309 140.634 145.166 134.072L74.0507 46.9963Z" fill="url(#paint17_linear_70_19308)"/>
<path d="M147.649 275.948C117.677 275.948 88.4155 268.322 63.4099 253.78C30.0691 234.272 8.07839 204.655 1.87133 170.428C-8.41465 114.919 24.394 58.8783 83.2724 30.6805L83.8045 30.5032L147.649 132.831C152.082 140.102 160.063 145.245 169.462 147.019L262.39 165.462C274.272 167.768 283.672 175.216 287.573 185.148C290.943 194.015 289.524 203.591 283.494 211.749C259.553 243.849 221.246 266.371 178.152 273.643C167.866 275.239 157.757 275.948 147.649 275.948ZM83.2724 32.0993C25.2807 60.1197 -6.81853 115.451 3.11277 170.073C9.31982 203.946 30.9559 233.208 64.1193 252.538C97.2827 271.869 137.54 278.785 177.62 272.046C220.36 264.775 258.489 242.43 282.253 210.685C287.928 203.059 289.347 193.837 286.155 185.502C282.43 175.926 273.386 169.009 262.036 166.704L169.107 148.26C159.353 146.309 151.018 140.989 146.407 133.363L83.2724 32.0993Z" fill="url(#paint18_linear_70_19308)"/>
<path d="M152.436 287.83C116.79 287.83 82.5628 276.48 54.897 255.021C23.3297 230.725 4.17659 196.498 0.807048 158.901C-4.51329 97.894 32.9065 40.257 94.0903 15.4288L94.6222 15.2515L94.977 15.7835L149.244 131.944C153.146 140.102 160.594 146.486 169.816 149.501L260.794 178.231C272.144 181.778 280.657 190.29 283.849 200.931C286.864 211.04 284.558 221.68 277.642 230.193C251.04 262.647 210.783 283.396 167.156 287.298C162.191 287.653 157.225 287.83 152.436 287.83ZM93.7355 17.0249C33.6157 41.8531 -3.27192 98.7807 1.87107 158.901C5.06327 196.143 24.2165 229.838 55.4291 253.957C86.6418 278.076 126.367 289.426 166.802 285.879C210.074 282.155 249.976 261.406 276.223 229.306C282.785 221.148 284.913 211.04 282.075 201.286C279.061 191 270.725 182.842 259.907 179.472L168.93 150.743C159.353 147.728 151.55 141.166 147.648 132.476L93.7355 17.0249Z" fill="url(#paint19_linear_70_19308)"/>
<path d="M154.92 301.131C113.953 301.131 75.1146 284.993 45.8528 255.731C16.5909 226.469 0.452637 187.63 0.452637 146.664C0.452637 80.1597 42.838 21.2813 105.795 0.177342L106.505 0L150.663 131.59C153.856 140.812 160.772 148.437 169.639 152.516L257.602 192.241C268.42 197.03 276.046 206.606 278.529 218.134C281.012 229.661 277.819 241.189 270.016 249.878C240.577 282.332 198.724 301.131 154.92 301.131ZM105.618 1.41875C43.5474 22.5227 1.87137 80.6917 1.87137 146.487C1.87137 187.098 17.8324 225.582 46.9169 254.667C76.0014 283.751 114.308 299.712 155.097 299.712C198.546 299.712 240.045 281.091 269.13 248.814C276.578 240.479 279.593 229.306 277.287 218.311C274.982 207.138 267.534 197.916 257.248 193.305L169.285 153.58C160.063 149.324 152.792 141.521 149.599 131.944L105.618 1.41875Z" fill="url(#paint20_linear_70_19308)"/>
</g>
<defs>
<linearGradient id="paint0_linear_70_19308" x1="58.6184" y1="145.244" x2="224.933" y2="145.244" gradientUnits="userSpaceOnUse">
<stop stop-color="#3DDEED"/>
<stop offset="0.9966" stop-color="#CB00DD"/>
</linearGradient>
<linearGradient id="paint1_linear_70_19308" x1="53.5666" y1="145.537" x2="231.177" y2="145.537" gradientUnits="userSpaceOnUse">
<stop stop-color="#3DDEED"/>
<stop offset="0.9966" stop-color="#CB00DD"/>
</linearGradient>
<linearGradient id="paint2_linear_70_19308" x1="48.503" y1="146.048" x2="237.498" y2="146.048" gradientUnits="userSpaceOnUse">
<stop stop-color="#3DDEED"/>
<stop offset="0.9966" stop-color="#CB00DD"/>
</linearGradient>
<linearGradient id="paint3_linear_70_19308" x1="43.4704" y1="146.733" x2="243.847" y2="146.733" gradientUnits="userSpaceOnUse">
<stop stop-color="#3DDEED"/>
<stop offset="0.9966" stop-color="#CB00DD"/>
</linearGradient>
<linearGradient id="paint4_linear_70_19308" x1="38.5156" y1="147.666" x2="250.171" y2="147.666" gradientUnits="userSpaceOnUse">
<stop stop-color="#3DDEED"/>
<stop offset="0.9966" stop-color="#CB00DD"/>
</linearGradient>
<linearGradient id="paint5_linear_70_19308" x1="33.7671" y1="148.889" x2="256.417" y2="148.889" gradientUnits="userSpaceOnUse">
<stop stop-color="#3DDEED"/>
<stop offset="0.9966" stop-color="#CB00DD"/>
</linearGradient>
<linearGradient id="paint6_linear_70_19308" x1="29.1091" y1="150.432" x2="262.533" y2="150.432" gradientUnits="userSpaceOnUse">
<stop stop-color="#3DDEED"/>
<stop offset="0.9966" stop-color="#CB00DD"/>
</linearGradient>
<linearGradient id="paint7_linear_70_19308" x1="24.6681" y1="152.378" x2="268.465" y2="152.378" gradientUnits="userSpaceOnUse">
<stop stop-color="#3DDEED"/>
<stop offset="0.9966" stop-color="#CB00DD"/>
</linearGradient>
<linearGradient id="paint8_linear_70_19308" x1="20.4892" y1="154.751" x2="274.097" y2="154.751" gradientUnits="userSpaceOnUse">
<stop stop-color="#3DDEED"/>
<stop offset="0.9966" stop-color="#CB00DD"/>
</linearGradient>
<linearGradient id="paint9_linear_70_19308" x1="16.6168" y1="157.669" x2="279.23" y2="157.669" gradientUnits="userSpaceOnUse">
<stop stop-color="#3DDEED"/>
<stop offset="0.9966" stop-color="#CB00DD"/>
</linearGradient>
<linearGradient id="paint10_linear_70_19308" x1="13.0925" y1="161.189" x2="283.775" y2="161.189" gradientUnits="userSpaceOnUse">
<stop stop-color="#3DDEED"/>
<stop offset="0.9966" stop-color="#CB00DD"/>
</linearGradient>
<linearGradient id="paint11_linear_70_19308" x1="9.95243" y1="165.363" x2="287.652" y2="165.363" gradientUnits="userSpaceOnUse">
<stop stop-color="#3DDEED"/>
<stop offset="0.9966" stop-color="#CB00DD"/>
</linearGradient>
<linearGradient id="paint12_linear_70_19308" x1="7.22397" y1="170.32" x2="290.779" y2="170.32" gradientUnits="userSpaceOnUse">
<stop stop-color="#3DDEED"/>
<stop offset="0.9966" stop-color="#CB00DD"/>
</linearGradient>
<linearGradient id="paint13_linear_70_19308" x1="4.92763" y1="169.489" x2="293.043" y2="169.489" gradientUnits="userSpaceOnUse">
<stop stop-color="#3DDEED"/>
<stop offset="0.9966" stop-color="#CB00DD"/>
</linearGradient>
<linearGradient id="paint14_linear_70_19308" x1="2.99557" y1="165.334" x2="294.413" y2="165.334" gradientUnits="userSpaceOnUse">
<stop stop-color="#3DDEED"/>
<stop offset="0.9966" stop-color="#CB00DD"/>
</linearGradient>
<linearGradient id="paint15_linear_70_19308" x1="1.61881" y1="161.576" x2="294.789" y2="161.576" gradientUnits="userSpaceOnUse">
<stop stop-color="#3DDEED"/>
<stop offset="0.9966" stop-color="#CB00DD"/>
</linearGradient>
<linearGradient id="paint16_linear_70_19308" x1="0.687603" y1="158.254" x2="294.095" y2="158.254" gradientUnits="userSpaceOnUse">
<stop stop-color="#3DDEED"/>
<stop offset="0.9966" stop-color="#CB00DD"/>
</linearGradient>
<linearGradient id="paint17_linear_70_19308" x1="0.174465" y1="155.482" x2="292.214" y2="155.482" gradientUnits="userSpaceOnUse">
<stop stop-color="#3DDEED"/>
<stop offset="0.9966" stop-color="#CB00DD"/>
</linearGradient>
<linearGradient id="paint18_linear_70_19308" x1="0.0242866" y1="153.243" x2="289.169" y2="153.243" gradientUnits="userSpaceOnUse">
<stop stop-color="#3DDEED"/>
<stop offset="0.9966" stop-color="#CB00DD"/>
</linearGradient>
<linearGradient id="paint19_linear_70_19308" x1="0.153534" y1="151.556" x2="284.864" y2="151.556" gradientUnits="userSpaceOnUse">
<stop stop-color="#3DDEED"/>
<stop offset="0.9966" stop-color="#CB00DD"/>
</linearGradient>
<linearGradient id="paint20_linear_70_19308" x1="0.4404" y1="150.434" x2="279.251" y2="150.434" gradientUnits="userSpaceOnUse">
<stop stop-color="#3DDEED"/>
<stop offset="0.9966" stop-color="#CB00DD"/>
</linearGradient>
</defs>
</svg>
