<svg width="1695" height="718" viewBox="0 0 1695 718" fill="none" xmlns="http://www.w3.org/2000/svg">
<g filter="url(#filter0_bd_70_19834)">
<path d="M221.395 241.771C269.89 237.439 313.182 271.999 319.661 320.344C320.152 324.184 320.839 328.122 321.526 331.962C343.81 447.655 455.23 523.372 570.577 501.12C685.826 478.867 761.317 367.113 739.131 251.42C716.945 135.826 605.525 60.1085 490.178 82.361C465.243 87.1856 442.076 96.2441 421.461 108.552C379.74 131.986 326.827 118.989 300.715 78.5209C277.94 43.2716 235.531 23.4807 191.847 31.9484C134.419 43.0746 96.9186 98.7057 107.913 156.207C118.319 210.165 167.894 246.694 221.395 241.771Z" fill="url(#paint0_linear_70_19834)"/>
</g>
<g filter="url(#filter1_bd_70_19834)">
<path d="M1467.48 173.306C1410.61 144.338 1343.93 138.152 1282.65 156.023C1217.53 175.073 1172.46 225.447 1116.38 260.896C1110.29 264.725 1104 268.555 1096.93 270.028C1072.28 275.134 1051.27 252.451 1036.53 235.856C1021.12 218.377 1002.75 203.943 981.93 193.337C913.969 158.773 834.518 171.047 780.306 218.181C759.44 235.47 731.542 238.508 708.296 228.51C707.526 228.179 706.809 227.736 706.156 227.209C694.13 217.509 682.484 206.968 671.49 195.498C662.946 186.267 652.732 178.412 640.849 172.324C587.03 144.927 521.328 166.334 493.927 220.145C466.527 273.956 487.937 339.648 541.755 367.044C571.709 382.265 605.395 382.363 634.072 370.187C671.49 354.279 714.506 373.722 727.371 412.312C741.906 456.009 772.94 494.305 817.331 516.89C886.569 552.142 967.69 538.787 1021.9 489.395C1057.26 457.187 1107.15 475.353 1129.44 511.98C1157.63 558.328 1189.84 596.428 1239.24 621.566C1363.08 684.607 1514.62 635.313 1577.67 511.489C1640.52 387.862 1591.32 236.347 1467.48 173.306Z" fill="url(#paint1_linear_70_19834)" shape-rendering="crispEdges"/>
</g>
<g filter="url(#filter2_bd_70_19834)">
<path d="M227.652 640.698C284.566 669.662 351.309 675.847 412.646 657.978C477.718 638.93 522.836 588.563 578.963 553.119C585.057 549.29 591.348 545.461 598.425 543.988C623.098 538.882 644.133 561.563 658.878 578.155C674.31 595.632 692.691 610.065 713.53 620.669C781.551 655.229 861.073 642.956 915.332 595.828C936.223 578.536 964.155 575.502 987.425 585.509C988.183 585.835 988.89 586.269 989.535 586.785C1001.66 596.488 1013.24 607.033 1024.34 618.509C1032.89 627.738 1043.12 635.592 1055.01 641.68C1108.88 669.072 1174.64 647.669 1202.06 593.865C1229.49 540.061 1208.06 474.377 1154.19 446.984C1124.21 431.765 1090.5 431.667 1061.79 443.842C1024.34 459.747 981.289 440.307 968.412 401.721C953.864 358.03 922.803 319.739 878.373 297.157C809.074 261.91 727.881 275.262 673.622 324.648C638.235 356.852 588.301 338.688 565.988 302.066C537.777 255.724 505.536 217.629 456.093 192.494C332.239 129.363 180.569 178.651 117.462 302.459C54.3563 426.267 103.701 577.665 227.652 640.698Z" fill="url(#paint2_linear_70_19834)" shape-rendering="crispEdges"/>
</g>
<g filter="url(#filter3_bd_70_19834)">
<path d="M378.412 590.709C459.713 638.333 559.277 627.162 627.617 570.228C646.961 554.941 686.237 521.722 712.846 527.013C721.978 528.777 730.127 534.069 737.001 540.34C758.701 560.135 771.858 583.163 797.878 598.45C854.632 631.67 923.855 625.202 972.95 587.475C991.836 573.628 1015.92 572.52 1035.47 582.206C1036.21 582.574 1036.89 583.049 1037.51 583.603C1047.38 592.492 1056.79 602.204 1065.64 612.561C1072.51 620.89 1080.96 628.24 1090.88 634.021C1135.85 660.381 1193.68 645.291 1220 600.508C1246.41 555.627 1231.29 497.909 1186.41 471.647C1161.38 456.948 1132.31 455.185 1106.98 464.2C1073.89 475.959 1037.76 457.046 1028.72 423.239C1018.41 384.826 993.668 350.332 956.553 328.676C898.719 294.77 828.022 302.12 778.731 341.807C742.205 371.205 709.311 344.649 686.531 313.193C659.725 276.25 639.106 240.874 598.161 216.866C494.669 156.209 361.524 190.898 300.744 294.182C240.259 397.173 274.92 530.051 378.412 590.709Z" fill="url(#paint3_linear_70_19834)" shape-rendering="crispEdges"/>
</g>
<defs>
<filter id="filter0_bd_70_19834" x="6" y="-70" width="837" height="725" filterUnits="userSpaceOnUse" color-interpolation-filters="sRGB">
<feFlood flood-opacity="0" result="BackgroundImageFix"/>
<feGaussianBlur in="BackgroundImageFix" stdDeviation="50"/>
<feComposite in2="SourceAlpha" operator="in" result="effect1_backgroundBlur_70_19834"/>
<feColorMatrix in="SourceAlpha" type="matrix" values="0 0 0 0 0 0 0 0 0 0 0 0 0 0 0 0 0 0 127 0" result="hardAlpha"/>
<feOffset dy="60"/>
<feGaussianBlur stdDeviation="45"/>
<feComposite in2="hardAlpha" operator="out"/>
<feColorMatrix type="matrix" values="0 0 0 0 0.0275531 0 0 0 0 0.0164931 0 0 0 0 0.0791667 0 0 0 1 0"/>
<feBlend mode="normal" in2="effect1_backgroundBlur_70_19834" result="effect2_dropShadow_70_19834"/>
<feBlend mode="normal" in="SourceGraphic" in2="effect2_dropShadow_70_19834" result="shape"/>
</filter>
<filter id="filter1_bd_70_19834" x="382" y="16" width="1323" height="733" filterUnits="userSpaceOnUse" color-interpolation-filters="sRGB">
<feFlood flood-opacity="0" result="BackgroundImageFix"/>
<feGaussianBlur in="BackgroundImageFix" stdDeviation="50"/>
<feComposite in2="SourceAlpha" operator="in" result="effect1_backgroundBlur_70_19834"/>
<feColorMatrix in="SourceAlpha" type="matrix" values="0 0 0 0 0 0 0 0 0 0 0 0 0 0 0 0 0 0 127 0" result="hardAlpha"/>
<feOffset dy="-40"/>
<feGaussianBlur stdDeviation="45"/>
<feComposite in2="hardAlpha" operator="out"/>
<feColorMatrix type="matrix" values="0 0 0 0 0.0275531 0 0 0 0 0.0164931 0 0 0 0 0.0791667 0 0 0 1 0"/>
<feBlend mode="normal" in2="effect1_backgroundBlur_70_19834" result="effect2_dropShadow_70_19834"/>
<feBlend mode="normal" in="SourceGraphic" in2="effect2_dropShadow_70_19834" result="shape"/>
</filter>
<filter id="filter2_bd_70_19834" x="-10" y="35" width="1324" height="733" filterUnits="userSpaceOnUse" color-interpolation-filters="sRGB">
<feFlood flood-opacity="0" result="BackgroundImageFix"/>
<feGaussianBlur in="BackgroundImageFix" stdDeviation="50"/>
<feComposite in2="SourceAlpha" operator="in" result="effect1_backgroundBlur_70_19834"/>
<feColorMatrix in="SourceAlpha" type="matrix" values="0 0 0 0 0 0 0 0 0 0 0 0 0 0 0 0 0 0 127 0" result="hardAlpha"/>
<feOffset dy="-40"/>
<feGaussianBlur stdDeviation="45"/>
<feComposite in2="hardAlpha" operator="out"/>
<feColorMatrix type="matrix" values="0 0 0 0 0.0275531 0 0 0 0 0.0164931 0 0 0 0 0.0791667 0 0 0 1 0"/>
<feBlend mode="normal" in2="effect1_backgroundBlur_70_19834" result="effect2_dropShadow_70_19834"/>
<feBlend mode="normal" in="SourceGraphic" in2="effect2_dropShadow_70_19834" result="shape"/>
</filter>
<filter id="filter3_bd_70_19834" x="171" y="57" width="1162" height="690" filterUnits="userSpaceOnUse" color-interpolation-filters="sRGB">
<feFlood flood-opacity="0" result="BackgroundImageFix"/>
<feGaussianBlur in="BackgroundImageFix" stdDeviation="50"/>
<feComposite in2="SourceAlpha" operator="in" result="effect1_backgroundBlur_70_19834"/>
<feColorMatrix in="SourceAlpha" type="matrix" values="0 0 0 0 0 0 0 0 0 0 0 0 0 0 0 0 0 0 127 0" result="hardAlpha"/>
<feOffset dy="-40"/>
<feGaussianBlur stdDeviation="45"/>
<feComposite in2="hardAlpha" operator="out"/>
<feColorMatrix type="matrix" values="0 0 0 0 0.0275531 0 0 0 0 0.0164931 0 0 0 0 0.0791667 0 0 0 1 0"/>
<feBlend mode="normal" in2="effect1_backgroundBlur_70_19834" result="effect2_dropShadow_70_19834"/>
<feBlend mode="normal" in="SourceGraphic" in2="effect2_dropShadow_70_19834" result="shape"/>
</filter>
<linearGradient id="paint0_linear_70_19834" x1="66.6889" y1="-20.2519" x2="307.714" y2="659.372" gradientUnits="userSpaceOnUse">
<stop stop-color="#201E3B"/>
<stop offset="1" stop-color="#141025"/>
</linearGradient>
<linearGradient id="paint1_linear_70_19834" x1="412.696" y1="92.7859" x2="577.797" y2="867.818" gradientUnits="userSpaceOnUse">
<stop stop-color="#201E3B"/>
<stop offset="1" stop-color="#0F0C1D" stop-opacity="0"/>
</linearGradient>
<linearGradient id="paint2_linear_70_19834" x1="20.6348" y1="111.786" x2="0.914472" y2="641.758" gradientUnits="userSpaceOnUse">
<stop stop-color="#201E3B"/>
<stop offset="1" stop-color="#0F0C1D" stop-opacity="0"/>
</linearGradient>
<linearGradient id="paint3_linear_70_19834" x1="247.193" y1="139.571" x2="255.812" y2="657.705" gradientUnits="userSpaceOnUse">
<stop stop-color="#201E3B"/>
<stop offset="1" stop-color="#0F0C1D" stop-opacity="0"/>
</linearGradient>
</defs>
</svg>
