<svg width="105" height="32" viewBox="0 0 105 32" fill="none" xmlns="http://www.w3.org/2000/svg">
<path d="M42.9112 17.962H50.1272V14.288H42.9112V17.962Z" fill="white"/>
<path d="M66.3312 23.308C69.1252 23.308 71.3912 22.274 73.0192 20.932V14.002H65.9352V17.126H68.9712V18.996C68.3332 19.414 67.5412 19.634 66.5072 19.634C64.0652 19.634 62.3272 17.852 62.3272 15.366C62.3272 12.968 64.0432 11.098 66.2652 11.098C67.7832 11.098 68.8832 11.626 69.9832 12.55L72.4912 9.53596C70.8632 8.12796 68.9492 7.29196 66.2432 7.29196C61.4692 7.29196 57.9492 10.812 57.9492 15.3C57.9492 20.008 61.5352 23.308 66.3312 23.308Z" fill="white"/>
<path d="M75.3854 23H87.8814V19.37H79.6094V16.928H87.0014V13.562H79.6094V11.23H87.7714V7.59996H75.3854V23Z" fill="white"/>
<path d="M90.0592 23H94.2832V14.552L100.861 23H104.601V7.59996H100.377V15.74L94.0412 7.59996H90.0592V23Z" fill="white"/>
<path d="M26.2917 31.7079L31.7083 26.2913L21.4169 15.9998L31.7083 5.70842L26.2916 0.291776L16.0002 10.5832L5.70841 0.291382L0.291767 5.70803L10.5836 15.9998L0.291748 26.2917L5.70839 31.7083L16.0002 21.4165L26.2917 31.7079Z" fill="#ED3F40"/>
</svg>
