<svg width="283" height="310" viewBox="0 0 283 310" fill="none" xmlns="http://www.w3.org/2000/svg">
<g opacity="0.5">
<path d="M269.783 256.603L13.1802 187.774L200.954 0L201.117 0.650804L269.783 256.603ZM14.8073 187.449L268.644 255.464L200.629 1.62716L14.8073 187.449Z" fill="url(#paint0_linear_70_19214)"/>
<path d="M262.949 263.111L10.251 180.94L207.625 3.2543L207.788 3.90511L262.949 263.111ZM11.8781 180.777L261.81 261.972L207.137 4.88146L11.8781 180.777Z" fill="url(#paint1_linear_70_19214)"/>
<path d="M255.626 269.295L254.975 268.969L7.64746 173.943L214.134 6.83398L214.297 7.48489L255.626 269.295ZM9.27462 173.943L254.65 268.156L213.483 8.62392L9.27462 173.943Z" fill="url(#paint2_linear_70_19214)"/>
<path d="M248.142 275.152L247.491 274.827L5.36963 167.109L220.317 10.9019V11.5528L248.142 275.152ZM7.15946 166.946L247.328 273.851L219.829 12.529L7.15946 166.946Z" fill="url(#paint3_linear_70_19214)"/>
<path d="M240.331 280.522L239.68 280.196L3.57959 159.95L226.338 15.2951V15.946L240.331 280.522ZM5.20675 159.787L239.355 279.058L225.524 16.5968L5.20675 159.787Z" fill="url(#paint4_linear_70_19214)"/>
<path d="M232.195 285.403L2.11523 152.627L232.195 19.8513V285.403ZM3.74239 152.627L231.382 284.102V21.1531L3.74239 152.627Z" fill="url(#paint5_linear_70_19214)"/>
<path d="M223.897 289.96L1.13916 145.305L1.78996 144.98L237.891 24.7327V25.3836L223.897 289.96ZM2.76632 145.468L223.246 288.658L237.077 26.1972L2.76632 145.468Z" fill="url(#paint6_linear_70_19214)"/>
<path d="M215.273 294.027L0.325195 137.82L242.934 29.7771V30.4279L215.273 294.027ZM1.95235 138.146L214.622 292.563L242.121 31.2415L1.95235 138.146Z" fill="url(#paint7_linear_70_19214)"/>
<path d="M206.486 297.77L0 130.498L247.979 35.3093L247.816 35.9602L206.486 297.77ZM1.62716 130.823L205.835 296.305L247.003 36.7737L1.62716 130.823Z" fill="url(#paint8_linear_70_19214)"/>
<path d="M197.537 300.862L0.162598 123.176L0.813501 123.013L252.86 41.1672L252.698 41.818L197.537 300.862ZM1.78976 123.501L197.049 299.397L251.721 42.3062L1.78976 123.501Z" fill="url(#paint9_linear_70_19214)"/>
<path d="M188.425 303.628L0.650879 115.691L257.254 46.8622L257.091 47.513L188.425 303.628ZM2.11536 116.179L187.937 302.001L255.952 48.164L2.11536 116.179Z" fill="url(#paint10_linear_70_19214)"/>
<path d="M179.15 305.743L178.662 305.255L1.30176 108.369L1.95266 108.206L261.159 53.0453L179.15 305.743ZM3.09159 108.857L178.987 304.116L260.183 54.1843L3.09159 108.857Z" fill="url(#paint11_linear_70_19214)"/>
<path d="M169.875 307.533L169.387 307.045L2.76611 101.046L265.227 59.554L169.875 307.533ZM4.2305 101.697L169.712 305.906L263.925 60.5302L4.2305 101.697Z" fill="url(#paint12_linear_70_19214)"/>
<path d="M160.438 308.835L159.95 308.184L4.23047 93.8869L268.481 66.0625L268.156 66.7134L160.438 308.835ZM5.85763 94.5378L160.275 307.207L267.179 67.0388L5.85763 94.5378Z" fill="url(#paint13_linear_70_19214)"/>
<path d="M151 309.485L6.3457 86.7275L271.572 72.8967L271.247 73.5475L151 309.485ZM7.81019 87.5411L151 308.021L270.271 73.8729L7.81019 87.5411Z" fill="url(#paint14_linear_70_19214)"/>
<path d="M141.562 309.811L141.237 309.16L8.78613 79.7307H274.501L274.176 80.3815L141.562 309.811ZM10.0879 80.5443L141.562 308.184L273.037 80.5443H10.0879Z" fill="url(#paint15_linear_70_19214)"/>
<path d="M131.963 309.485L131.637 308.835L11.3901 72.7339L276.617 86.5647L131.963 309.485ZM12.6918 73.7102L131.963 307.858L275.153 87.3783L12.6918 73.7102Z" fill="url(#paint16_linear_70_19214)"/>
<path d="M122.525 308.835L14.4814 66.2253L278.732 94.0498L278.244 94.7006L122.525 308.835ZM15.7833 67.0389L122.687 307.208L277.105 94.5379L15.7833 67.0389Z" fill="url(#paint17_linear_70_19214)"/>
<path d="M113.088 307.533L17.8989 59.554L280.359 101.046L113.088 307.533ZM19.2006 60.5302L113.413 305.906L278.895 101.697L19.2006 60.5302Z" fill="url(#paint18_linear_70_19214)"/>
<path d="M103.813 305.743L21.6411 53.0453L22.292 53.208L281.498 108.369L281.01 108.857L103.813 305.743ZM22.9428 54.1843L104.138 304.116L280.034 108.857L22.9428 54.1843Z" fill="url(#paint19_linear_70_19214)"/>
<path d="M94.5378 303.628L94.375 302.977L25.709 47.0247L282.312 115.853L94.5378 303.628ZM27.0107 48.1637L95.0259 302L280.847 116.179L27.0107 48.1637Z" fill="url(#paint20_linear_70_19214)"/>
<path d="M85.4258 300.862L85.2631 300.211L30.1025 41.0044L282.8 123.176L85.4258 300.862ZM31.2416 42.3062L85.914 299.397L281.173 123.501L31.2416 42.3062Z" fill="url(#paint21_linear_70_19214)"/>
<path d="M76.476 297.77L76.3133 297.119L34.8208 35.4721L35.4717 35.7976L282.8 130.824L282.311 131.312L76.476 297.77ZM35.9598 36.6111L77.1269 296.143L281.335 130.661L35.9598 36.6111Z" fill="url(#paint22_linear_70_19214)"/>
<path d="M67.6896 294.027V293.376L40.0278 29.9396L282.637 137.983L281.986 138.471L67.6896 294.027ZM40.8414 31.2413L68.3403 292.563L281.01 138.146L40.8414 31.2413Z" fill="url(#paint23_linear_70_19214)"/>
<path d="M59.0657 289.96V289.309L45.2349 24.7327L281.986 145.305L59.0657 289.96ZM46.0484 26.0345L59.8793 288.495L280.359 145.305L46.0484 26.0345Z" fill="url(#paint24_linear_70_19214)"/>
<path d="M50.7671 285.403V19.8513L280.847 152.627L50.7671 285.403ZM51.5807 21.1531V283.939L279.22 152.465L51.5807 21.1531Z" fill="url(#paint25_linear_70_19214)"/>
<path d="M42.6313 280.522V279.871L56.4622 15.2952L279.22 159.95L278.569 160.275L42.6313 280.522ZM57.2758 16.5969L43.4449 279.058L277.593 159.787L57.2758 16.5969Z" fill="url(#paint26_linear_70_19214)"/>
<path d="M34.8208 275.152V274.502L62.4825 11.0648L63.1334 11.5529L277.43 167.272L34.8208 275.152ZM63.2961 12.3665L35.7972 273.688L275.966 166.784L63.2961 12.3665Z" fill="url(#paint27_linear_70_19214)"/>
<path d="M27.3364 269.295L27.4991 268.644L68.9916 6.99686L275.478 174.106L27.3364 269.295ZM69.4799 8.46124L28.3127 267.993L273.688 173.781L69.4799 8.46124Z" fill="url(#paint28_linear_70_19214)"/>
<path d="M20.0142 263.111L20.1768 262.461L75.3375 3.2543L272.712 180.94L272.061 181.103L20.0142 263.111ZM75.8258 4.88146L21.1532 261.972L271.085 180.777L75.8258 4.88146Z" fill="url(#paint29_linear_70_19214)"/>
<path d="M13.1802 256.603L13.343 255.952L81.8463 0L269.783 187.937L13.1802 256.603ZM82.3345 1.62716L14.3192 255.464L268.156 187.449L82.3345 1.62716Z" fill="url(#paint30_linear_70_19214)"/>
</g>
<defs>
<linearGradient id="paint0_linear_70_19214" x1="13.1995" y1="128.332" x2="269.802" y2="128.332" gradientUnits="userSpaceOnUse">
<stop stop-color="#3DDEED"/>
<stop offset="0.9966" stop-color="#CB00DD"/>
</linearGradient>
<linearGradient id="paint1_linear_70_19214" x1="10.2588" y1="133.247" x2="262.911" y2="133.247" gradientUnits="userSpaceOnUse">
<stop stop-color="#3DDEED"/>
<stop offset="0.9966" stop-color="#CB00DD"/>
</linearGradient>
<linearGradient id="paint2_linear_70_19214" x1="7.67821" y1="138.149" x2="255.687" y2="138.149" gradientUnits="userSpaceOnUse">
<stop stop-color="#3DDEED"/>
<stop offset="0.9966" stop-color="#CB00DD"/>
</linearGradient>
<linearGradient id="paint3_linear_70_19214" x1="5.46482" y1="143.024" x2="248.151" y2="143.024" gradientUnits="userSpaceOnUse">
<stop stop-color="#3DDEED"/>
<stop offset="0.9966" stop-color="#CB00DD"/>
</linearGradient>
<linearGradient id="paint4_linear_70_19214" x1="3.62303" y1="147.859" x2="240.323" y2="147.859" gradientUnits="userSpaceOnUse">
<stop stop-color="#3DDEED"/>
<stop offset="0.9966" stop-color="#CB00DD"/>
</linearGradient>
<linearGradient id="paint5_linear_70_19214" x1="2.15966" y1="152.641" x2="232.223" y2="152.641" gradientUnits="userSpaceOnUse">
<stop stop-color="#3DDEED"/>
<stop offset="0.9966" stop-color="#CB00DD"/>
</linearGradient>
<linearGradient id="paint6_linear_70_19214" x1="1.07847" y1="157.355" x2="237.779" y2="157.355" gradientUnits="userSpaceOnUse">
<stop stop-color="#3DDEED"/>
<stop offset="0.9966" stop-color="#CB00DD"/>
</linearGradient>
<linearGradient id="paint7_linear_70_19214" x1="0.382146" y1="161.991" x2="243.069" y2="161.991" gradientUnits="userSpaceOnUse">
<stop stop-color="#3DDEED"/>
<stop offset="0.9966" stop-color="#CB00DD"/>
</linearGradient>
<linearGradient id="paint8_linear_70_19214" x1="0.0733848" y1="166.534" x2="248.082" y2="166.534" gradientUnits="userSpaceOnUse">
<stop stop-color="#3DDEED"/>
<stop offset="0.9966" stop-color="#CB00DD"/>
</linearGradient>
<linearGradient id="paint9_linear_70_19214" x1="0.150231" y1="170.972" x2="252.802" y2="170.972" gradientUnits="userSpaceOnUse">
<stop stop-color="#3DDEED"/>
<stop offset="0.9966" stop-color="#CB00DD"/>
</linearGradient>
<linearGradient id="paint10_linear_70_19214" x1="0.616058" y1="175.293" x2="257.219" y2="175.293" gradientUnits="userSpaceOnUse">
<stop stop-color="#3DDEED"/>
<stop offset="0.9966" stop-color="#CB00DD"/>
</linearGradient>
<linearGradient id="paint11_linear_70_19214" x1="1.46773" y1="179.486" x2="261.317" y2="179.486" gradientUnits="userSpaceOnUse">
<stop stop-color="#3DDEED"/>
<stop offset="0.9966" stop-color="#CB00DD"/>
</linearGradient>
<linearGradient id="paint12_linear_70_19214" x1="2.70314" y1="183.538" x2="265.087" y2="183.538" gradientUnits="userSpaceOnUse">
<stop stop-color="#3DDEED"/>
<stop offset="0.9966" stop-color="#CB00DD"/>
</linearGradient>
<linearGradient id="paint13_linear_70_19214" x1="4.3198" y1="187.439" x2="268.518" y2="187.439" gradientUnits="userSpaceOnUse">
<stop stop-color="#3DDEED"/>
<stop offset="0.9966" stop-color="#CB00DD"/>
</linearGradient>
<linearGradient id="paint14_linear_70_19214" x1="6.31153" y1="191.178" x2="271.601" y2="191.178" gradientUnits="userSpaceOnUse">
<stop stop-color="#3DDEED"/>
<stop offset="0.9966" stop-color="#CB00DD"/>
</linearGradient>
<linearGradient id="paint15_linear_70_19214" x1="8.67256" y1="194.745" x2="274.328" y2="194.745" gradientUnits="userSpaceOnUse">
<stop stop-color="#3DDEED"/>
<stop offset="0.9966" stop-color="#CB00DD"/>
</linearGradient>
<linearGradient id="paint16_linear_70_19214" x1="11.3999" y1="191.178" x2="276.69" y2="191.178" gradientUnits="userSpaceOnUse">
<stop stop-color="#3DDEED"/>
<stop offset="0.9966" stop-color="#CB00DD"/>
</linearGradient>
<linearGradient id="paint17_linear_70_19214" x1="14.4831" y1="187.439" x2="278.682" y2="187.439" gradientUnits="userSpaceOnUse">
<stop stop-color="#3DDEED"/>
<stop offset="0.9966" stop-color="#CB00DD"/>
</linearGradient>
<linearGradient id="paint18_linear_70_19214" x1="17.9142" y1="183.538" x2="280.298" y2="183.538" gradientUnits="userSpaceOnUse">
<stop stop-color="#3DDEED"/>
<stop offset="0.9966" stop-color="#CB00DD"/>
</linearGradient>
<linearGradient id="paint19_linear_70_19214" x1="21.6847" y1="179.486" x2="281.533" y2="179.486" gradientUnits="userSpaceOnUse">
<stop stop-color="#3DDEED"/>
<stop offset="0.9966" stop-color="#CB00DD"/>
</linearGradient>
<linearGradient id="paint20_linear_70_19214" x1="25.7827" y1="175.293" x2="282.385" y2="175.293" gradientUnits="userSpaceOnUse">
<stop stop-color="#3DDEED"/>
<stop offset="0.9966" stop-color="#CB00DD"/>
</linearGradient>
<linearGradient id="paint21_linear_70_19214" x1="30.1989" y1="170.972" x2="282.851" y2="170.972" gradientUnits="userSpaceOnUse">
<stop stop-color="#3DDEED"/>
<stop offset="0.9966" stop-color="#CB00DD"/>
</linearGradient>
<linearGradient id="paint22_linear_70_19214" x1="34.9194" y1="166.534" x2="282.928" y2="166.534" gradientUnits="userSpaceOnUse">
<stop stop-color="#3DDEED"/>
<stop offset="0.9966" stop-color="#CB00DD"/>
</linearGradient>
<linearGradient id="paint23_linear_70_19214" x1="39.9313" y1="161.99" x2="282.618" y2="161.99" gradientUnits="userSpaceOnUse">
<stop stop-color="#3DDEED"/>
<stop offset="0.9966" stop-color="#CB00DD"/>
</linearGradient>
<linearGradient id="paint24_linear_70_19214" x1="45.2228" y1="157.355" x2="281.923" y2="157.355" gradientUnits="userSpaceOnUse">
<stop stop-color="#3DDEED"/>
<stop offset="0.9966" stop-color="#CB00DD"/>
</linearGradient>
<linearGradient id="paint25_linear_70_19214" x1="50.778" y1="152.641" x2="280.841" y2="152.641" gradientUnits="userSpaceOnUse">
<stop stop-color="#3DDEED"/>
<stop offset="0.9966" stop-color="#CB00DD"/>
</linearGradient>
<linearGradient id="paint26_linear_70_19214" x1="42.6779" y1="147.859" x2="279.379" y2="147.859" gradientUnits="userSpaceOnUse">
<stop stop-color="#3DDEED"/>
<stop offset="0.9966" stop-color="#CB00DD"/>
</linearGradient>
<linearGradient id="paint27_linear_70_19214" x1="34.8494" y1="143.024" x2="277.537" y2="143.024" gradientUnits="userSpaceOnUse">
<stop stop-color="#3DDEED"/>
<stop offset="0.9966" stop-color="#CB00DD"/>
</linearGradient>
<linearGradient id="paint28_linear_70_19214" x1="27.3141" y1="138.149" x2="275.323" y2="138.149" gradientUnits="userSpaceOnUse">
<stop stop-color="#3DDEED"/>
<stop offset="0.9966" stop-color="#CB00DD"/>
</linearGradient>
<linearGradient id="paint29_linear_70_19214" x1="20.0903" y1="133.247" x2="272.742" y2="133.247" gradientUnits="userSpaceOnUse">
<stop stop-color="#3DDEED"/>
<stop offset="0.9966" stop-color="#CB00DD"/>
</linearGradient>
<linearGradient id="paint30_linear_70_19214" x1="13.1995" y1="128.332" x2="269.802" y2="128.332" gradientUnits="userSpaceOnUse">
<stop stop-color="#3DDEED"/>
<stop offset="0.9966" stop-color="#CB00DD"/>
</linearGradient>
</defs>
</svg>
