<svg width="309" height="357" viewBox="0 0 309 357" fill="none" xmlns="http://www.w3.org/2000/svg">
<g opacity="0.5">
<path d="M146.261 201.618C146.076 201.618 146.076 201.618 145.891 201.433L130.154 182.734C129.969 182.549 129.969 182.364 130.154 182.364L138.485 159.221C138.485 159.036 138.67 159.036 138.856 158.851L163.109 154.593C163.294 154.593 163.479 154.593 163.479 154.778L179.216 173.477C179.401 173.662 179.401 173.847 179.216 173.847L170.885 196.99C170.885 197.175 170.7 197.175 170.515 197.36L146.261 201.618C146.261 201.618 146.261 201.433 146.261 201.618ZM130.894 182.179L146.261 200.507L169.959 196.249L178.105 173.662L162.739 155.333L139.041 159.591L130.894 182.179Z" fill="url(#paint0_linear_70_19372)"/>
<path d="M143.669 202.174C143.484 202.174 143.299 202.174 143.299 201.988L128.302 180.697C128.117 180.512 128.117 180.327 128.302 180.327L139.411 156.629C139.411 156.444 139.596 156.444 139.781 156.444L165.886 154.222C166.071 154.222 166.256 154.222 166.256 154.407L181.253 175.699C181.438 175.884 181.438 176.069 181.253 176.069L170.144 199.767C170.144 199.952 169.959 199.952 169.774 199.952L143.669 202.174ZM129.043 180.327L143.669 201.248L169.219 199.026L179.957 175.884L165.331 154.963L139.781 157.184L129.043 180.327Z" fill="url(#paint1_linear_70_19372)"/>
<path d="M168.478 202.544H140.707C140.522 202.544 140.337 202.544 140.337 202.359L126.451 178.291C126.451 178.106 126.451 177.92 126.451 177.735L140.337 153.667C140.337 153.482 140.522 153.482 140.707 153.482H168.478C168.663 153.482 168.848 153.482 168.848 153.667L182.734 177.735C182.734 177.92 182.734 178.106 182.734 178.291L168.848 202.359C168.848 202.359 168.663 202.544 168.478 202.544ZM141.077 201.618H168.293L181.993 178.106L168.293 154.593H141.077L127.377 178.106L141.077 201.618Z" fill="url(#paint2_linear_70_19372)"/>
<path d="M167.182 205.321L137.745 202.729C137.56 202.729 137.375 202.544 137.375 202.544L124.785 175.699C124.785 175.513 124.785 175.328 124.785 175.328L141.818 151.075C142.003 150.89 142.003 150.89 142.188 150.89L171.626 153.482C171.811 153.482 171.996 153.667 171.996 153.667L184.586 180.512C184.586 180.697 184.586 180.882 184.586 180.882L167.553 205.136C167.368 205.136 167.368 205.321 167.182 205.321ZM137.93 201.803L166.812 204.395L183.475 180.697L171.256 154.407L142.374 151.815L125.711 175.513L137.93 201.803Z" fill="url(#paint3_linear_70_19372)"/>
<path d="M165.331 207.913L134.227 202.359C134.042 202.359 133.857 202.174 133.857 201.989L123.119 172.551C123.119 172.366 123.119 172.181 123.119 172.181L143.299 148.113C143.484 147.928 143.484 147.928 143.669 147.928L174.588 153.482C174.773 153.482 174.958 153.667 174.958 153.852L185.696 183.289C185.696 183.475 185.696 183.66 185.696 183.66L165.516 207.728C165.701 207.913 165.516 207.913 165.331 207.913ZM134.783 201.618L165.331 206.987L185.141 183.289L174.588 154.222L144.04 148.853L124.229 172.551L134.783 201.618Z" fill="url(#paint4_linear_70_19372)"/>
<path d="M163.294 210.69L130.895 201.989C130.709 201.989 130.524 201.804 130.524 201.618L121.823 169.404C121.823 169.219 121.823 169.034 122.008 169.034L145.706 145.336C145.891 145.15 146.076 145.15 146.076 145.15L178.476 153.852C178.661 153.852 178.846 154.037 178.846 154.222L187.548 186.437C187.548 186.622 187.548 186.807 187.363 186.807L163.665 210.505C163.479 210.69 163.479 210.69 163.294 210.69ZM131.265 201.248L163.109 209.765L186.437 186.437L177.92 154.593L146.076 146.076L122.748 169.404L131.265 201.248Z" fill="url(#paint5_linear_70_19372)"/>
<path d="M160.887 213.467C160.702 213.467 160.702 213.467 160.887 213.467L127.191 201.248C127.006 201.248 127.006 201.063 126.821 200.878L120.526 165.886C120.526 165.701 120.526 165.516 120.711 165.516L147.927 142.743C148.112 142.558 148.297 142.558 148.297 142.743L181.808 154.963C181.993 154.963 181.993 155.148 182.178 155.333L188.473 190.325C188.473 190.51 188.473 190.695 188.288 190.695L161.072 213.467H160.887ZM127.747 200.507L160.702 212.541L187.547 189.954L181.438 155.518L148.483 143.484L121.637 166.071L127.747 200.507Z" fill="url(#paint6_linear_70_19372)"/>
<path d="M157.925 216.245H157.74L123.489 200.322C123.304 200.322 123.304 200.137 123.304 199.952L119.971 162.183C119.971 161.998 119.971 161.813 120.156 161.813L151.075 140.152C151.26 139.966 151.445 139.966 151.445 140.152L185.696 156.074C185.881 156.074 185.881 156.259 185.881 156.444L189.214 194.213C189.214 194.398 189.214 194.583 189.029 194.583L158.11 216.245C158.11 216.059 158.11 216.245 157.925 216.245ZM124.044 199.397L157.925 215.134L188.473 193.842L185.141 156.629L151.26 140.892L120.712 162.183L124.044 199.397Z" fill="url(#paint7_linear_70_19372)"/>
<path d="M154.592 218.651H154.407L119.416 198.471C119.231 198.471 119.23 198.286 119.23 198.101V157.925C119.23 157.74 119.231 157.555 119.416 157.555L154.222 137.375C154.407 137.375 154.592 137.375 154.592 137.375L189.584 157.555C189.769 157.555 189.769 157.74 189.769 157.925V198.101C189.769 198.286 189.769 198.471 189.584 198.471L154.778 218.651C154.778 218.651 154.778 218.651 154.592 218.651ZM120.156 197.916L154.592 217.726L189.029 197.916V158.11L154.592 138.3L120.156 158.11V197.916Z" fill="url(#paint8_linear_70_19372)"/>
<path d="M150.89 221.058C150.705 221.058 150.705 221.058 150.705 221.058L115.528 196.434C115.343 196.249 115.343 196.249 115.343 196.064L119.046 153.482C119.046 153.297 119.231 153.111 119.231 153.111L158.11 134.968C158.295 134.968 158.481 134.968 158.481 134.968L193.657 159.591C193.842 159.777 193.842 159.777 193.842 159.962L190.14 202.544C190.14 202.729 189.955 202.914 189.955 202.914L151.075 221.058C151.075 221.058 151.075 221.058 150.89 221.058ZM116.268 195.879L150.89 220.133L189.214 202.359L192.917 160.147L158.295 135.893L119.971 153.667L116.268 195.879Z" fill="url(#paint9_linear_70_19372)"/>
<path d="M146.817 223.28C146.631 223.28 146.631 223.28 146.446 223.095L111.455 193.842C111.269 193.657 111.27 193.657 111.27 193.472L119.231 148.668C119.231 148.483 119.416 148.298 119.601 148.298L162.368 132.746C162.554 132.746 162.739 132.746 162.739 132.746L197.73 161.998C197.915 162.183 197.915 162.183 197.915 162.368L189.954 207.173C189.954 207.358 189.769 207.543 189.584 207.543L146.817 223.28ZM112.38 193.287L147.002 222.354L189.399 206.987L197.175 162.554L162.554 133.486L120.156 148.853L112.38 193.287Z" fill="url(#paint10_linear_70_19372)"/>
<path d="M142.188 225.316C142.003 225.316 142.003 225.316 141.818 225.131L107.567 190.88C107.382 190.695 107.382 190.51 107.382 190.51L119.971 143.669C119.971 143.484 120.157 143.299 120.342 143.299L167.182 130.709C167.367 130.709 167.553 130.709 167.553 130.895L201.804 165.146C201.989 165.331 201.989 165.516 201.989 165.516L189.399 212.357C189.399 212.542 189.214 212.727 189.029 212.727L142.188 225.316ZM108.308 190.325L142.188 224.206L188.473 211.801L200.878 165.516L166.997 131.635L120.712 144.04L108.308 190.325Z" fill="url(#paint11_linear_70_19372)"/>
<path d="M137.004 226.983C136.819 226.983 136.819 226.983 136.634 226.797L103.494 187.177C103.309 186.992 103.309 186.807 103.494 186.807L121.082 138.3C121.082 138.115 121.267 138.115 121.453 137.93L172.181 129.043C172.366 129.043 172.551 129.043 172.551 129.228L205.692 168.848C205.877 169.033 205.877 169.219 205.692 169.219L188.103 217.725C188.103 217.911 187.918 217.911 187.733 218.096L137.004 226.983ZM104.42 186.807L137.189 225.872L187.363 216.985L204.766 169.033L171.996 129.969L121.823 138.856L104.42 186.807Z" fill="url(#paint12_linear_70_19372)"/>
<path d="M131.45 228.279C131.265 228.279 131.08 228.279 131.08 228.093L99.6057 183.104C99.4205 182.919 99.4205 182.734 99.6057 182.734L122.748 132.931C122.748 132.746 122.933 132.746 123.119 132.746L177.735 127.932C177.92 127.932 178.105 127.932 178.105 128.117L209.579 173.107C209.764 173.292 209.764 173.477 209.579 173.477L186.437 223.28C186.437 223.465 186.252 223.465 186.066 223.465L131.45 228.279ZM100.531 182.734L131.635 227.353L185.696 222.724L208.654 173.477L177.55 128.858L123.489 133.486L100.531 182.734Z" fill="url(#paint13_linear_70_19372)"/>
<path d="M183.845 229.019H125.525C125.34 229.019 125.155 229.019 125.155 228.834L95.9028 178.291C95.9028 178.105 95.9028 177.92 95.9028 177.92L124.97 127.377C124.97 127.192 125.155 127.192 125.34 127.192H183.66C183.845 127.192 184.03 127.192 184.03 127.377L213.282 177.92C213.282 178.105 213.282 178.291 213.282 178.291L184.215 228.834C184.215 229.019 184.03 229.019 183.845 229.019ZM125.71 228.093H183.474L212.356 177.92L183.474 127.932H125.71L96.8285 178.105L125.71 228.093Z" fill="url(#paint14_linear_70_19372)"/>
<path d="M180.883 234.759L119.046 229.39C118.86 229.39 118.675 229.204 118.675 229.204L92.3853 172.736C92.3853 172.551 92.3853 172.366 92.3853 172.366L127.932 121.452C128.117 121.267 128.117 121.267 128.303 121.267L190.14 126.636C190.325 126.636 190.51 126.821 190.51 126.821L216.8 183.104C216.8 183.289 216.8 183.475 216.8 183.475L181.253 234.388C181.253 234.759 181.068 234.759 180.883 234.759ZM119.416 228.464L180.697 233.833L215.874 183.475L189.769 127.562L128.488 122.193L93.311 172.551L119.416 228.464Z" fill="url(#paint15_linear_70_19372)"/>
<path d="M177.18 240.683L112.01 229.204C111.825 229.204 111.64 229.019 111.64 228.834L89.0527 166.627C89.0527 166.442 89.0527 166.256 89.0527 166.256L131.45 115.713C131.635 115.528 131.635 115.528 131.82 115.528L196.805 127.007C196.99 127.007 197.175 127.192 197.175 127.377L219.762 189.584C219.762 189.769 219.762 189.954 219.762 189.954L177.365 240.498C177.55 240.498 177.365 240.683 177.18 240.683ZM112.566 228.279L176.995 239.757L219.022 189.584L196.62 127.932L132.191 116.454L90.1635 166.627L112.566 228.279Z" fill="url(#paint16_linear_70_19372)"/>
<path d="M172.921 246.422C172.736 246.422 172.736 246.422 172.921 246.422L104.975 228.093C104.789 228.093 104.604 227.908 104.604 227.723L86.4604 159.777C86.4604 159.591 86.4605 159.406 86.6457 159.406L136.263 109.603C136.449 109.418 136.634 109.418 136.634 109.418L204.395 127.562C204.58 127.562 204.765 127.747 204.765 127.932L222.909 195.879C222.909 196.064 222.909 196.249 222.724 196.249L173.106 246.052C173.106 246.422 172.921 246.422 172.921 246.422ZM105.345 227.353L172.736 245.497L221.984 196.249L203.84 128.858L136.448 110.714L87.2011 159.962L105.345 227.353Z" fill="url(#paint17_linear_70_19372)"/>
<path d="M167.552 252.162L97.1988 226.427C97.0137 226.427 97.0137 226.242 96.8285 226.057L83.8687 152.371C83.8687 152.186 83.8686 152 84.0537 152L141.262 103.864C141.447 103.679 141.633 103.679 141.633 103.864L211.801 129.413C211.986 129.413 211.986 129.598 212.171 129.784L225.131 203.47C225.131 203.655 225.131 203.84 224.946 203.84L167.737 251.977C167.923 252.162 167.737 252.162 167.552 252.162ZM97.7542 225.687L167.367 251.051L224.205 203.284L211.246 130.154L141.633 104.79L84.7944 152.556L97.7542 225.687Z" fill="url(#paint18_linear_70_19372)"/>
<path d="M161.628 257.716H161.443L89.423 224.02C89.2379 224.02 89.2378 223.835 89.2378 223.65L82.3877 144.41C82.3877 144.225 82.3877 144.04 82.5728 144.04L147.742 98.3098C147.928 98.1246 148.113 98.1246 148.113 98.3098L220.132 132.005C220.318 132.005 220.318 132.191 220.318 132.376L227.168 211.616C227.168 211.801 227.168 211.986 226.983 211.986L161.813 257.716H161.628ZM89.9784 223.28L161.443 256.79L226.057 211.431L219.207 132.746L147.742 99.2355L83.1282 144.595L89.9784 223.28Z" fill="url(#paint19_linear_70_19372)"/>
<path d="M154.593 263.085H154.408L81.2769 220.688C81.0918 220.688 81.0918 220.503 81.0918 220.318V135.708C81.0918 135.523 81.0918 135.338 81.2769 135.338L154.408 92.9407C154.593 92.9407 154.778 92.9407 154.963 92.9407L228.094 135.338C228.279 135.338 228.279 135.523 228.279 135.708V220.318C228.279 220.503 228.279 220.688 228.094 220.688L154.963 263.085C154.778 263.085 154.778 263.085 154.593 263.085ZM81.8323 220.132L154.593 262.159L227.353 220.132V135.893L154.593 93.8664L81.8323 135.893V220.132Z" fill="url(#paint20_linear_70_19372)"/>
<path d="M146.817 268.269C146.631 268.269 146.631 268.269 146.631 268.269L72.9453 216.615C72.7602 216.43 72.7603 216.43 72.7603 216.244L80.5362 126.451C80.5362 126.266 80.7213 126.081 80.7213 126.081L162.183 87.9419C162.368 87.9419 162.554 87.9419 162.554 87.9419L236.24 139.596C236.425 139.781 236.425 139.781 236.425 139.966L228.649 229.76C228.649 229.945 228.464 230.13 228.464 230.13L147.002 268.269C146.817 268.269 146.817 268.269 146.817 268.269ZM73.686 215.874L147.002 267.158L228.093 229.204L235.869 139.966L162.554 88.6824L81.4619 126.636L73.686 215.874Z" fill="url(#paint21_linear_70_19372)"/>
<path d="M137.93 272.898C137.745 272.898 137.745 272.898 137.56 272.712L64.2437 211.061C64.0585 210.875 64.0586 210.875 64.0586 210.69L80.7213 116.268C80.7213 116.083 80.9064 115.898 81.0916 115.898L171.07 83.1282C171.255 83.1282 171.44 83.1282 171.44 83.1282L244.756 144.78C244.941 144.965 244.941 144.965 244.941 145.15L228.279 239.572C228.279 239.757 228.093 239.942 227.908 239.942L137.93 272.898C138.115 272.898 138.115 272.898 137.93 272.898ZM65.1694 210.69L138.115 271.972L227.538 239.387L244.016 145.521L171.07 84.239L81.647 116.824L65.1694 210.69Z" fill="url(#paint22_linear_70_19372)"/>
<path d="M128.303 276.971C128.118 276.971 128.118 276.971 127.932 276.785L55.9126 204.766C55.7275 204.58 55.7275 204.395 55.7275 204.395L82.2027 105.9C82.2027 105.715 82.3878 105.53 82.573 105.53L180.883 79.055C181.068 79.055 181.253 79.055 181.253 79.2401L253.273 151.26C253.458 151.445 253.458 151.63 253.458 151.63L226.983 250.125C226.983 250.31 226.798 250.495 226.613 250.495L128.303 276.971ZM56.8383 204.395L128.488 276.045L226.242 249.755L252.532 151.815L180.883 80.1658L83.1284 106.456L56.8383 204.395Z" fill="url(#paint23_linear_70_19372)"/>
<path d="M117.565 280.489C117.379 280.489 117.379 280.489 117.194 280.303L47.5812 197.175C47.3961 196.99 47.3961 196.805 47.5812 196.805L84.6094 94.7922C84.6094 94.6071 84.7946 94.6071 84.9797 94.422L191.621 75.5376C191.806 75.5376 191.991 75.5376 191.991 75.7227L261.604 158.851C261.789 159.036 261.789 159.221 261.604 159.221L224.576 261.234C224.576 261.419 224.391 261.419 224.206 261.604L117.565 280.489ZM48.5069 196.805L117.75 279.378L223.835 260.493L260.678 159.036L191.436 76.4633L85.35 95.3477L48.5069 196.805Z" fill="url(#paint24_linear_70_19372)"/>
<path d="M105.9 283.08C105.715 283.08 105.53 283.08 105.53 282.895L39.4348 188.473C39.2496 188.288 39.2496 188.103 39.4348 188.103L88.1268 83.4984C88.1268 83.3133 88.3119 83.3133 88.4971 83.3133L203.284 73.1306C203.47 73.1306 203.655 73.1305 203.655 73.3156L269.75 167.737C269.935 167.923 269.935 168.108 269.75 168.108L221.058 272.712C221.058 272.897 220.873 272.898 220.688 272.898L105.9 283.08ZM40.3605 188.103L106.085 282.155L220.317 272.157L268.824 168.108L203.099 74.0563L88.8674 84.0539L40.3605 188.103Z" fill="url(#paint25_linear_70_19372)"/>
<path d="M93.3111 284.746C93.1259 284.746 92.9408 284.746 92.9408 284.561L31.6592 178.29C31.6592 178.105 31.6592 177.92 31.6592 177.92L93.126 71.6493C93.126 71.4642 93.3111 71.4641 93.4963 71.4641L216.059 71.2791C216.245 71.2791 216.43 71.279 216.43 71.4641L277.711 177.735C277.711 177.92 277.711 178.105 277.711 178.105L216.245 284.376C216.245 284.561 216.059 284.561 215.874 284.561L93.3111 284.746ZM32.5849 178.105L93.4963 283.821L215.504 283.636L276.6 177.735L215.689 72.0196L93.6814 72.2048L32.5849 178.105Z" fill="url(#paint26_linear_70_19372)"/>
<path d="M209.579 296.781L79.6106 285.487C79.4254 285.487 79.2403 285.302 79.2403 285.302L24.2534 166.997C24.2534 166.812 24.2534 166.627 24.2534 166.627L99.2355 59.6153C99.4206 59.4302 99.4206 59.4302 99.6058 59.4302L229.575 70.7238C229.76 70.7238 229.945 70.9089 229.945 70.9089L284.932 189.214C284.932 189.399 284.932 189.584 284.932 189.584L209.95 296.596C209.95 296.596 209.764 296.781 209.579 296.781ZM79.9808 284.561L209.394 295.855L284.006 189.399L229.204 71.6495L99.7909 60.3559L25.1791 166.812L79.9808 284.561Z" fill="url(#paint27_linear_70_19372)"/>
<path d="M201.989 308.815L65.1695 284.747C64.9843 284.747 64.7993 284.561 64.7993 284.376L17.5884 154.222C17.5884 154.037 17.5884 153.852 17.5884 153.852L106.826 47.3959C107.011 47.2108 107.011 47.2108 107.196 47.2108L243.83 71.2791C244.016 71.2791 244.201 71.4642 244.201 71.6494L291.597 201.989C291.597 202.174 291.597 202.359 291.597 202.359L202.359 308.815C202.174 308.815 202.174 308.815 201.989 308.815ZM65.725 284.006L201.803 307.889L290.856 201.803L243.645 71.8345L107.567 47.9514L18.5141 154.037L65.725 284.006Z" fill="url(#paint28_linear_70_19372)"/>
<path d="M192.731 321.034L49.9879 282.895C49.8028 282.895 49.6176 282.71 49.6176 282.525L11.4785 139.967C11.4785 139.781 11.4786 139.596 11.6637 139.596L116.268 34.9918C116.453 34.8067 116.639 34.8066 116.639 34.8066L259.197 72.9457C259.382 72.9457 259.567 73.1308 259.567 73.3159L297.706 215.874C297.706 216.06 297.706 216.245 297.521 216.245L192.917 320.849C192.917 321.034 192.917 321.034 192.731 321.034ZM50.5433 282.155L192.546 320.109L296.595 216.06L258.642 74.0565L116.639 36.1026L12.5894 140.152L50.5433 282.155Z" fill="url(#paint29_linear_70_19372)"/>
<path d="M181.808 333.068C181.623 333.068 181.808 333.068 181.808 333.068L34.0659 279.377C33.8808 279.377 33.8807 279.192 33.6956 279.007L6.47998 124.414C6.47998 124.229 6.47994 124.044 6.66508 124.044L127.192 22.9573C127.377 22.7721 127.562 22.7721 127.562 22.9573L275.119 76.463C275.304 76.463 275.304 76.6481 275.49 76.8333L302.705 231.426C302.705 231.611 302.705 231.796 302.52 231.796L181.993 332.883C181.993 333.068 181.808 333.068 181.808 333.068ZM34.6213 278.822L181.808 332.142L301.78 231.426L274.749 77.2035L127.562 23.883L7.59078 124.6L34.6213 278.822Z" fill="url(#paint30_linear_70_19372)"/>
<path d="M169.034 344.917H168.849L17.4034 274.379C17.2183 274.379 17.2183 274.193 17.2183 274.008L2.77734 107.567C2.77734 107.382 2.7773 107.196 2.96244 107.196L139.967 11.2934C140.152 11.1083 140.337 11.1083 140.337 11.2934L291.782 81.8321C291.967 81.8321 291.967 82.0172 291.967 82.2024L306.408 248.644C306.408 248.829 306.408 249.014 306.223 249.014L169.219 344.917C169.219 344.917 169.219 344.917 169.034 344.917ZM17.9588 273.638L168.849 343.806L305.483 248.089L291.042 82.2024L140.152 12.034L3.51784 107.752L17.9588 273.638Z" fill="url(#paint31_linear_70_19372)"/>
<path d="M154.407 356.211H154.222L0.185096 267.529C-4.52032e-05 267.529 0 267.343 0 267.158L0.185096 89.423C0.185096 89.2379 0.18505 89.0527 0.370191 89.0527L154.407 0C154.593 0 154.778 0 154.778 0L308.815 88.6824C309 88.6824 309 88.8676 309 89.0527L308.815 266.788C308.815 266.973 308.815 267.158 308.63 267.158L154.593 356.211C154.593 356.211 154.593 356.211 154.407 356.211ZM0.925704 266.788L154.407 355.285L308.074 266.603L308.26 89.423L154.778 0.925704L1.1108 89.6082L0.925704 266.788Z" fill="url(#paint32_linear_70_19372)"/>
</g>
<defs>
<linearGradient id="paint0_linear_70_19372" x1="129.967" y1="178.014" x2="179.285" y2="178.014" gradientUnits="userSpaceOnUse">
<stop stop-color="#3DDEED"/>
<stop offset="0.9966" stop-color="#CB00DD"/>
</linearGradient>
<linearGradient id="paint1_linear_70_19372" x1="128.125" y1="178.014" x2="181.127" y2="178.014" gradientUnits="userSpaceOnUse">
<stop stop-color="#3DDEED"/>
<stop offset="0.9966" stop-color="#CB00DD"/>
</linearGradient>
<linearGradient id="paint2_linear_70_19372" x1="126.358" y1="178.014" x2="182.895" y2="178.014" gradientUnits="userSpaceOnUse">
<stop stop-color="#3DDEED"/>
<stop offset="0.9966" stop-color="#CB00DD"/>
</linearGradient>
<linearGradient id="paint3_linear_70_19372" x1="124.696" y1="178.015" x2="184.558" y2="178.015" gradientUnits="userSpaceOnUse">
<stop stop-color="#3DDEED"/>
<stop offset="0.9966" stop-color="#CB00DD"/>
</linearGradient>
<linearGradient id="paint4_linear_70_19372" x1="123.173" y1="178.014" x2="186.08" y2="178.014" gradientUnits="userSpaceOnUse">
<stop stop-color="#3DDEED"/>
<stop offset="0.9966" stop-color="#CB00DD"/>
</linearGradient>
<linearGradient id="paint5_linear_70_19372" x1="121.827" y1="178.015" x2="187.426" y2="178.015" gradientUnits="userSpaceOnUse">
<stop stop-color="#3DDEED"/>
<stop offset="0.9966" stop-color="#CB00DD"/>
</linearGradient>
<linearGradient id="paint6_linear_70_19372" x1="120.697" y1="178.014" x2="188.555" y2="178.014" gradientUnits="userSpaceOnUse">
<stop stop-color="#3DDEED"/>
<stop offset="0.9966" stop-color="#CB00DD"/>
</linearGradient>
<linearGradient id="paint7_linear_70_19372" x1="119.826" y1="178.014" x2="189.427" y2="178.014" gradientUnits="userSpaceOnUse">
<stop stop-color="#3DDEED"/>
<stop offset="0.9966" stop-color="#CB00DD"/>
</linearGradient>
<linearGradient id="paint8_linear_70_19372" x1="119.257" y1="178.015" x2="189.995" y2="178.015" gradientUnits="userSpaceOnUse">
<stop stop-color="#3DDEED"/>
<stop offset="0.9966" stop-color="#CB00DD"/>
</linearGradient>
<linearGradient id="paint9_linear_70_19372" x1="115.34" y1="178.015" x2="193.913" y2="178.015" gradientUnits="userSpaceOnUse">
<stop stop-color="#3DDEED"/>
<stop offset="0.9966" stop-color="#CB00DD"/>
</linearGradient>
<linearGradient id="paint10_linear_70_19372" x1="111.344" y1="178.015" x2="197.909" y2="178.015" gradientUnits="userSpaceOnUse">
<stop stop-color="#3DDEED"/>
<stop offset="0.9966" stop-color="#CB00DD"/>
</linearGradient>
<linearGradient id="paint11_linear_70_19372" x1="107.343" y1="178.014" x2="201.91" y2="178.014" gradientUnits="userSpaceOnUse">
<stop stop-color="#3DDEED"/>
<stop offset="0.9966" stop-color="#CB00DD"/>
</linearGradient>
<linearGradient id="paint12_linear_70_19372" x1="103.384" y1="178.014" x2="205.869" y2="178.014" gradientUnits="userSpaceOnUse">
<stop stop-color="#3DDEED"/>
<stop offset="0.9966" stop-color="#CB00DD"/>
</linearGradient>
<linearGradient id="paint13_linear_70_19372" x1="99.5222" y1="178.015" x2="209.73" y2="178.015" gradientUnits="userSpaceOnUse">
<stop stop-color="#3DDEED"/>
<stop offset="0.9966" stop-color="#CB00DD"/>
</linearGradient>
<linearGradient id="paint14_linear_70_19372" x1="95.8162" y1="178.014" x2="213.436" y2="178.014" gradientUnits="userSpaceOnUse">
<stop stop-color="#3DDEED"/>
<stop offset="0.9966" stop-color="#CB00DD"/>
</linearGradient>
<linearGradient id="paint15_linear_70_19372" x1="92.3323" y1="178.015" x2="216.921" y2="178.015" gradientUnits="userSpaceOnUse">
<stop stop-color="#3DDEED"/>
<stop offset="0.9966" stop-color="#CB00DD"/>
</linearGradient>
<linearGradient id="paint16_linear_70_19372" x1="89.1422" y1="178.015" x2="220.111" y2="178.015" gradientUnits="userSpaceOnUse">
<stop stop-color="#3DDEED"/>
<stop offset="0.9966" stop-color="#CB00DD"/>
</linearGradient>
<linearGradient id="paint17_linear_70_19372" x1="86.3225" y1="178.014" x2="222.93" y2="178.014" gradientUnits="userSpaceOnUse">
<stop stop-color="#3DDEED"/>
<stop offset="0.9966" stop-color="#CB00DD"/>
</linearGradient>
<linearGradient id="paint18_linear_70_19372" x1="83.9579" y1="178.014" x2="225.295" y2="178.014" gradientUnits="userSpaceOnUse">
<stop stop-color="#3DDEED"/>
<stop offset="0.9966" stop-color="#CB00DD"/>
</linearGradient>
<linearGradient id="paint19_linear_70_19372" x1="82.1363" y1="178.015" x2="227.117" y2="178.015" gradientUnits="userSpaceOnUse">
<stop stop-color="#3DDEED"/>
<stop offset="0.9966" stop-color="#CB00DD"/>
</linearGradient>
<linearGradient id="paint20_linear_70_19372" x1="80.9505" y1="178.015" x2="228.302" y2="178.015" gradientUnits="userSpaceOnUse">
<stop stop-color="#3DDEED"/>
<stop offset="0.9966" stop-color="#CB00DD"/>
</linearGradient>
<linearGradient id="paint21_linear_70_19372" x1="72.6471" y1="178.015" x2="236.605" y2="178.015" gradientUnits="userSpaceOnUse">
<stop stop-color="#3DDEED"/>
<stop offset="0.9966" stop-color="#CB00DD"/>
</linearGradient>
<linearGradient id="paint22_linear_70_19372" x1="64.2426" y1="178.015" x2="245.01" y2="178.015" gradientUnits="userSpaceOnUse">
<stop stop-color="#3DDEED"/>
<stop offset="0.9966" stop-color="#CB00DD"/>
</linearGradient>
<linearGradient id="paint23_linear_70_19372" x1="55.8255" y1="178.014" x2="253.428" y2="178.014" gradientUnits="userSpaceOnUse">
<stop stop-color="#3DDEED"/>
<stop offset="0.9966" stop-color="#CB00DD"/>
</linearGradient>
<linearGradient id="paint24_linear_70_19372" x1="47.4959" y1="178.015" x2="261.757" y2="178.015" gradientUnits="userSpaceOnUse">
<stop stop-color="#3DDEED"/>
<stop offset="0.9966" stop-color="#CB00DD"/>
</linearGradient>
<linearGradient id="paint25_linear_70_19372" x1="39.3666" y1="178.014" x2="269.886" y2="178.014" gradientUnits="userSpaceOnUse">
<stop stop-color="#3DDEED"/>
<stop offset="0.9966" stop-color="#CB00DD"/>
</linearGradient>
<linearGradient id="paint26_linear_70_19372" x1="31.5649" y1="178.014" x2="277.688" y2="178.014" gradientUnits="userSpaceOnUse">
<stop stop-color="#3DDEED"/>
<stop offset="0.9966" stop-color="#CB00DD"/>
</linearGradient>
<linearGradient id="paint27_linear_70_19372" x1="24.2269" y1="178.015" x2="285.026" y2="178.015" gradientUnits="userSpaceOnUse">
<stop stop-color="#3DDEED"/>
<stop offset="0.9966" stop-color="#CB00DD"/>
</linearGradient>
<linearGradient id="paint28_linear_70_19372" x1="17.504" y1="178.014" x2="291.749" y2="178.014" gradientUnits="userSpaceOnUse">
<stop stop-color="#3DDEED"/>
<stop offset="0.9966" stop-color="#CB00DD"/>
</linearGradient>
<linearGradient id="paint29_linear_70_19372" x1="11.5581" y1="178.015" x2="297.694" y2="178.015" gradientUnits="userSpaceOnUse">
<stop stop-color="#3DDEED"/>
<stop offset="0.9966" stop-color="#CB00DD"/>
</linearGradient>
<linearGradient id="paint30_linear_70_19372" x1="6.56496" y1="178.014" x2="302.688" y2="178.014" gradientUnits="userSpaceOnUse">
<stop stop-color="#3DDEED"/>
<stop offset="0.9966" stop-color="#CB00DD"/>
</linearGradient>
<linearGradient id="paint31_linear_70_19372" x1="2.71069" y1="178.014" x2="306.543" y2="178.014" gradientUnits="userSpaceOnUse">
<stop stop-color="#3DDEED"/>
<stop offset="0.9966" stop-color="#CB00DD"/>
</linearGradient>
<linearGradient id="paint32_linear_70_19372" x1="0.053876" y1="178.014" x2="309.199" y2="178.014" gradientUnits="userSpaceOnUse">
<stop stop-color="#3DDEED"/>
<stop offset="0.9966" stop-color="#CB00DD"/>
</linearGradient>
</defs>
</svg>
